STARTFONT 2.1
COMMENT
COMMENT Converted from OpenType font "UbuntuMono-Italic.ttf" by "otf2bdf 3.0".
COMMENT
FONT -FreeType-Ubuntu Mono-Medium-I-Normal--22-160-100-100-P-105-ISO10646-1
SIZE 16 100 100
FONTBOUNDINGBOX 20 23 -5 -4
STARTPROPERTIES 19
FOUNDRY "FreeType"
FAMILY_NAME "Ubuntu Mono"
WEIGHT_NAME "Medium"
SLANT "I"
SETWIDTH_NAME "Normal"
ADD_STYLE_NAME ""
PIXEL_SIZE 22
POINT_SIZE 160
RESOLUTION_X 100
RESOLUTION_Y 100
SPACING "P"
AVERAGE_WIDTH 105
CHARSET_REGISTRY "ISO10646"
CHARSET_ENCODING "1"
FONT_ASCENT 18
FONT_DESCENT 3
COPYRIGHT "Copyright 2011 Canonical Ltd.  Licensed under the Ubuntu Font Licence 1.0"
_OTF_FONTFILE "UbuntuMono-Italic.ttf"
_OTF_PSNAME "UbuntuMono-Italic"
ENDPROPERTIES
CHARS 1224
STARTCHAR 0000
ENCODING 0
SWIDTH 495 0
DWIDTH 11 0
BBX 0 0 0 0
BITMAP
ENDCHAR
STARTCHAR 0008
ENCODING 8
SWIDTH 495 0
DWIDTH 11 0
BBX 0 0 0 0
BITMAP
ENDCHAR
STARTCHAR 0009
ENCODING 9
SWIDTH 495 0
DWIDTH 11 0
BBX 0 0 0 0
BITMAP
ENDCHAR
STARTCHAR 000D
ENCODING 13
SWIDTH 495 0
DWIDTH 11 0
BBX 0 0 0 0
BITMAP
ENDCHAR
STARTCHAR 001D
ENCODING 29
SWIDTH 495 0
DWIDTH 11 0
BBX 0 0 0 0
BITMAP
ENDCHAR
STARTCHAR 0020
ENCODING 32
SWIDTH 495 0
DWIDTH 11 0
BBX 0 0 0 0
BITMAP
ENDCHAR
STARTCHAR 0021
ENCODING 33
SWIDTH 495 0
DWIDTH 11 0
BBX 5 14 4 0
BITMAP
18
18
18
30
30
30
30
20
20
00
00
40
E0
E0
ENDCHAR
STARTCHAR 0022
ENCODING 34
SWIDTH 495 0
DWIDTH 11 0
BBX 6 5 5 10
BITMAP
4C
4C
CC
C8
88
ENDCHAR
STARTCHAR 0023
ENCODING 35
SWIDTH 495 0
DWIDTH 11 0
BBX 12 14 1 0
BITMAP
0230
0660
0660
0C40
7FE0
0880
1980
1100
3300
FFC0
6200
6600
4400
CC00
ENDCHAR
STARTCHAR 0024
ENCODING 36
SWIDTH 495 0
DWIDTH 11 0
BBX 10 17 2 -2
BITMAP
0300
0200
0FC0
3880
3000
3000
3000
1C00
0E00
0300
0100
0300
8300
FE00
3800
3000
3000
ENDCHAR
STARTCHAR 0025
ENCODING 37
SWIDTH 495 0
DWIDTH 11 0
BBX 12 14 1 0
BITMAP
1C10
2420
2460
64C0
6D80
6B00
3200
0480
0BC0
1A40
3640
6640
C6C0
8380
ENDCHAR
STARTCHAR 0026
ENCODING 38
SWIDTH 495 0
DWIDTH 11 0
BBX 10 14 1 0
BITMAP
0780
0D80
1880
1980
1980
1F00
0C00
3CC0
6680
4780
C300
C300
6F80
7D80
ENDCHAR
STARTCHAR 0027
ENCODING 39
SWIDTH 495 0
DWIDTH 11 0
BBX 2 6 7 9
BITMAP
40
C0
C0
C0
80
80
ENDCHAR
STARTCHAR 0028
ENCODING 40
SWIDTH 495 0
DWIDTH 11 0
BBX 8 18 3 -3
BITMAP
03
07
0C
18
18
30
60
60
40
C0
C0
C0
C0
C0
60
60
30
30
ENDCHAR
STARTCHAR 0029
ENCODING 41
SWIDTH 495 0
DWIDTH 11 0
BBX 9 18 1 -3
BITMAP
0600
0600
0300
0300
0100
0180
0180
0180
0100
0300
0300
0300
0600
0C00
0C00
1800
7000
E000
ENDCHAR
STARTCHAR 002A
ENCODING 42
SWIDTH 495 0
DWIDTH 11 0
BBX 8 8 3 6
BITMAP
18
18
09
EF
3E
1C
36
66
ENDCHAR
STARTCHAR 002B
ENCODING 43
SWIDTH 495 0
DWIDTH 11 0
BBX 9 10 2 1
BITMAP
0600
0400
0C00
0C00
FF80
FF80
1800
1800
1800
1000
ENDCHAR
STARTCHAR 002C
ENCODING 44
SWIDTH 495 0
DWIDTH 11 0
BBX 5 6 2 -3
BITMAP
38
38
38
18
30
E0
ENDCHAR
STARTCHAR 002D
ENCODING 45
SWIDTH 495 0
DWIDTH 11 0
BBX 5 2 4 5
BITMAP
F8
F8
ENDCHAR
STARTCHAR 002E
ENCODING 46
SWIDTH 495 0
DWIDTH 11 0
BBX 3 3 4 0
BITMAP
E0
E0
E0
ENDCHAR
STARTCHAR 002F
ENCODING 47
SWIDTH 495 0
DWIDTH 11 0
BBX 12 20 0 -4
BITMAP
0030
0030
0060
0060
00C0
0080
0180
0300
0300
0600
0600
0C00
0C00
1800
1000
3000
6000
6000
C000
C000
ENDCHAR
STARTCHAR 0030
ENCODING 48
SWIDTH 495 0
DWIDTH 11 0
BBX 10 14 2 0
BITMAP
0F00
1F80
3080
30C0
60C0
68C0
CC80
CD80
C180
C180
C300
C700
EE00
7C00
ENDCHAR
STARTCHAR 0031
ENCODING 49
SWIDTH 495 0
DWIDTH 11 0
BBX 8 14 2 0
BITMAP
01
07
1F
3A
26
06
06
04
0C
0C
0C
08
FF
FF
ENDCHAR
STARTCHAR 0032
ENCODING 50
SWIDTH 495 0
DWIDTH 11 0
BBX 10 14 2 0
BITMAP
0F00
3F80
00C0
00C0
0180
0180
0300
0E00
1C00
3800
6000
C000
FF00
FF00
ENDCHAR
STARTCHAR 0033
ENCODING 51
SWIDTH 495 0
DWIDTH 11 0
BBX 10 14 1 0
BITMAP
0F80
0FC0
00C0
0040
00C0
0180
0F00
0780
0180
0080
0080
0180
4780
FE00
ENDCHAR
STARTCHAR 0034
ENCODING 52
SWIDTH 495 0
DWIDTH 11 0
BBX 10 14 1 0
BITMAP
00C0
01C0
03C0
06C0
0C80
1980
3180
2180
6100
FFC0
0300
0300
0200
0600
ENDCHAR
STARTCHAR 0035
ENCODING 53
SWIDTH 495 0
DWIDTH 11 0
BBX 11 14 1 0
BITMAP
07E0
0FE0
0C00
0C00
0800
1800
1F00
0380
0180
0080
0180
0180
4700
FE00
ENDCHAR
STARTCHAR 0036
ENCODING 54
SWIDTH 495 0
DWIDTH 11 0
BBX 10 14 2 0
BITMAP
01C0
07C0
0C00
1800
3000
6000
7F00
E180
C180
C180
C180
C300
6700
7E00
ENDCHAR
STARTCHAR 0037
ENCODING 55
SWIDTH 495 0
DWIDTH 11 0
BBX 10 14 3 0
BITMAP
7FC0
7FC0
0180
0300
0600
0C00
0C00
1800
1800
3000
6000
6000
6000
C000
ENDCHAR
STARTCHAR 0038
ENCODING 56
SWIDTH 495 0
DWIDTH 11 0
BBX 10 14 2 0
BITMAP
0F80
1DC0
30C0
30C0
30C0
3180
1F00
3F00
6300
C180
C180
C300
C700
7E00
ENDCHAR
STARTCHAR 0039
ENCODING 57
SWIDTH 495 0
DWIDTH 11 0
BBX 10 14 2 0
BITMAP
0F00
3F80
30C0
60C0
60C0
60C0
60C0
3F80
1D80
0300
0300
0E00
FC00
F000
ENDCHAR
STARTCHAR 003A
ENCODING 58
SWIDTH 495 0
DWIDTH 11 0
BBX 5 10 4 0
BITMAP
38
38
30
00
00
00
00
E0
E0
E0
ENDCHAR
STARTCHAR 003B
ENCODING 59
SWIDTH 495 0
DWIDTH 11 0
BBX 7 13 2 -3
BITMAP
0E
0E
0C
00
00
00
00
38
38
38
18
30
E0
ENDCHAR
STARTCHAR 003C
ENCODING 60
SWIDTH 495 0
DWIDTH 11 0
BBX 10 8 2 1
BITMAP
0080
07C0
1E00
F000
C000
F000
1C00
0700
ENDCHAR
STARTCHAR 003D
ENCODING 61
SWIDTH 495 0
DWIDTH 11 0
BBX 10 6 2 3
BITMAP
7FC0
7F80
0000
0000
FF80
FF00
ENDCHAR
STARTCHAR 003E
ENCODING 62
SWIDTH 495 0
DWIDTH 11 0
BBX 10 9 1 1
BITMAP
3000
3C00
0F00
03C0
01C0
0780
3C00
F000
8000
ENDCHAR
STARTCHAR 003F
ENCODING 63
SWIDTH 495 0
DWIDTH 11 0
BBX 8 14 4 0
BITMAP
7C
66
03
02
06
0C
18
30
60
00
00
C0
E0
C0
ENDCHAR
STARTCHAR 0040
ENCODING 64
SWIDTH 495 0
DWIDTH 11 0
BBX 10 17 2 -3
BITMAP
0780
1DC0
3040
6040
61C0
47C0
CCC0
D8C0
9880
9980
9980
9D80
8F00
C000
C000
7C00
3C00
ENDCHAR
STARTCHAR 0041
ENCODING 65
SWIDTH 495 0
DWIDTH 11 0
BBX 10 14 0 0
BITMAP
0180
03C0
03C0
06C0
04C0
0CC0
08C0
18C0
10C0
3FC0
6040
6040
C040
C040
ENDCHAR
STARTCHAR 0042
ENCODING 66
SWIDTH 495 0
DWIDTH 11 0
BBX 11 14 1 0
BITMAP
1F80
1FC0
1860
3060
3040
30C0
3F00
7F80
60C0
60C0
60C0
4180
C780
FE00
ENDCHAR
STARTCHAR 0043
ENCODING 67
SWIDTH 495 0
DWIDTH 11 0
BBX 10 14 2 0
BITMAP
07C0
1FC0
3800
3000
6000
6000
C000
C000
C000
C000
C000
C000
7300
3F00
ENDCHAR
STARTCHAR 0044
ENCODING 68
SWIDTH 495 0
DWIDTH 11 0
BBX 11 14 1 0
BITMAP
1F00
1F80
30C0
3040
3060
3060
2060
6040
60C0
60C0
4180
C380
CF00
FC00
ENDCHAR
STARTCHAR 0045
ENCODING 69
SWIDTH 495 0
DWIDTH 11 0
BBX 11 14 2 0
BITMAP
1FE0
1FC0
3000
3000
3000
2000
7F00
7F00
6000
4000
C000
C000
FF00
FF00
ENDCHAR
STARTCHAR 0046
ENCODING 70
SWIDTH 495 0
DWIDTH 11 0
BBX 11 14 2 0
BITMAP
1FE0
1FC0
3000
3000
3000
2000
7F00
7F00
6000
4000
C000
C000
C000
C000
ENDCHAR
STARTCHAR 0047
ENCODING 71
SWIDTH 495 0
DWIDTH 11 0
BBX 10 14 2 0
BITMAP
07C0
1FC0
3000
6000
6000
C000
C000
C180
C180
C180
C300
C300
6300
7F00
ENDCHAR
STARTCHAR 0048
ENCODING 72
SWIDTH 495 0
DWIDTH 11 0
BBX 12 14 1 0
BITMAP
1830
1830
1060
3060
3060
3060
3FC0
7FC0
60C0
60C0
4080
C180
C180
C180
ENDCHAR
STARTCHAR 0049
ENCODING 73
SWIDTH 495 0
DWIDTH 11 0
BBX 10 14 2 0
BITMAP
1FC0
1FC0
0600
0600
0400
0C00
0C00
0C00
0800
1800
1800
1800
FE00
FE00
ENDCHAR
STARTCHAR 004A
ENCODING 74
SWIDTH 495 0
DWIDTH 11 0
BBX 10 14 2 0
BITMAP
0FC0
0FC0
00C0
00C0
0180
0180
0180
0180
0300
0300
0300
0600
CE00
FC00
ENDCHAR
STARTCHAR 004B
ENCODING 75
SWIDTH 495 0
DWIDTH 11 0
BBX 12 14 1 0
BITMAP
1830
1860
18C0
1180
3300
3600
3C00
2C00
6E00
6600
6300
4300
C180
C180
ENDCHAR
STARTCHAR 004C
ENCODING 76
SWIDTH 495 0
DWIDTH 11 0
BBX 8 14 1 0
BITMAP
18
18
18
18
30
30
30
30
20
60
60
60
7F
FF
ENDCHAR
STARTCHAR 004D
ENCODING 77
SWIDTH 495 0
DWIDTH 11 0
BBX 11 14 1 0
BITMAP
0820
1C60
1CE0
1CA0
3DE0
2D60
2760
6640
6440
40C0
C0C0
C0C0
C080
8180
ENDCHAR
STARTCHAR 004E
ENCODING 78
SWIDTH 495 0
DWIDTH 11 0
BBX 12 14 1 0
BITMAP
1830
1830
1C20
3C60
3460
3660
2640
66C0
62C0
62C0
4380
C380
C380
C180
ENDCHAR
STARTCHAR 004F
ENCODING 79
SWIDTH 495 0
DWIDTH 11 0
BBX 10 14 2 0
BITMAP
0F00
1F80
30C0
60C0
60C0
40C0
C0C0
C0C0
C080
C180
C180
C300
E600
7C00
ENDCHAR
STARTCHAR 0050
ENCODING 80
SWIDTH 495 0
DWIDTH 11 0
BBX 11 14 1 0
BITMAP
1F80
1FC0
1860
1860
3060
3060
30C0
3F80
3E00
6000
6000
6000
4000
C000
ENDCHAR
STARTCHAR 0051
ENCODING 81
SWIDTH 495 0
DWIDTH 11 0
BBX 10 17 2 -4
BITMAP
0F00
1F80
30C0
60C0
60C0
40C0
C0C0
C0C0
C080
C180
C180
C300
E600
7C00
3000
3800
1E00
ENDCHAR
STARTCHAR 0052
ENCODING 82
SWIDTH 495 0
DWIDTH 11 0
BBX 11 14 1 0
BITMAP
1F80
1FC0
1860
3060
3060
30C0
31C0
3F80
7E00
6300
6300
4100
C180
C180
ENDCHAR
STARTCHAR 0053
ENCODING 83
SWIDTH 495 0
DWIDTH 11 0
BBX 10 14 2 0
BITMAP
0FC0
1FC0
3000
3000
3000
3000
1C00
0F00
0300
0300
0100
0300
C700
FC00
ENDCHAR
STARTCHAR 0054
ENCODING 84
SWIDTH 495 0
DWIDTH 11 0
BBX 10 14 3 0
BITMAP
7FC0
FFC0
0C00
0C00
1800
1800
1800
1800
1000
3000
3000
3000
2000
6000
ENDCHAR
STARTCHAR 0055
ENCODING 85
SWIDTH 495 0
DWIDTH 11 0
BBX 11 14 2 0
BITMAP
3060
3040
20C0
60C0
60C0
60C0
4180
C180
C180
C180
C300
C300
E600
7C00
ENDCHAR
STARTCHAR 0056
ENCODING 86
SWIDTH 495 0
DWIDTH 11 0
BBX 10 14 3 0
BITMAP
C040
C0C0
C080
C180
C100
C300
C200
C600
C400
CC00
5800
5800
7000
6000
ENDCHAR
STARTCHAR 0057
ENCODING 87
SWIDTH 495 0
DWIDTH 11 0
BBX 12 14 1 0
BITMAP
1010
3030
3030
3020
2060
2660
6660
6E40
6AC0
52C0
5280
6280
E380
C300
ENDCHAR
STARTCHAR 0058
ENCODING 88
SWIDTH 495 0
DWIDTH 11 0
BBX 12 14 1 0
BITMAP
1830
1830
0C60
0CC0
0D80
0700
0700
0700
0F00
1B00
3180
6180
E180
C080
ENDCHAR
STARTCHAR 0059
ENCODING 89
SWIDTH 495 0
DWIDTH 11 0
BBX 11 14 3 0
BITMAP
C060
C0C0
4180
6180
6300
6600
2400
3C00
3800
3000
3000
3000
3000
6000
ENDCHAR
STARTCHAR 005A
ENCODING 90
SWIDTH 495 0
DWIDTH 11 0
BBX 12 14 1 0
BITMAP
1FF0
1FE0
0060
00C0
0180
0300
0600
0C00
1800
1800
3000
6000
FF80
FF80
ENDCHAR
STARTCHAR 005B
ENCODING 91
SWIDTH 495 0
DWIDTH 11 0
BBX 10 20 2 -4
BITMAP
07C0
07C0
0C00
0C00
0C00
0800
1800
1800
1800
1000
3000
3000
3000
2000
6000
6000
6000
4000
FC00
FC00
ENDCHAR
STARTCHAR 005C
ENCODING 92
SWIDTH 495 0
DWIDTH 11 0
BBX 3 20 5 -4
BITMAP
C0
C0
C0
C0
C0
C0
C0
C0
C0
40
60
60
60
60
60
60
60
60
60
60
ENDCHAR
STARTCHAR 005D
ENCODING 93
SWIDTH 495 0
DWIDTH 11 0
BBX 10 20 1 -4
BITMAP
0FC0
0F80
0180
0180
0180
0100
0300
0300
0300
0200
0600
0600
0600
0400
0C00
0C00
0C00
0800
F800
F800
ENDCHAR
STARTCHAR 005E
ENCODING 94
SWIDTH 495 0
DWIDTH 11 0
BBX 8 8 3 6
BITMAP
04
0E
1E
32
63
63
C1
80
ENDCHAR
STARTCHAR 005F
ENCODING 95
SWIDTH 495 0
DWIDTH 11 0
BBX 11 2 -1 -4
BITMAP
7FE0
FFC0
ENDCHAR
STARTCHAR 0060
ENCODING 96
SWIDTH 495 0
DWIDTH 11 0
BBX 3 3 6 11
BITMAP
C0
60
20
ENDCHAR
STARTCHAR 0061
ENCODING 97
SWIDTH 495 0
DWIDTH 11 0
BBX 9 11 2 0
BITMAP
0200
1F80
3180
6180
C180
C100
8300
8300
C300
C700
7B00
ENDCHAR
STARTCHAR 0062
ENCODING 98
SWIDTH 495 0
DWIDTH 11 0
BBX 10 15 1 0
BITMAP
0C00
0800
1800
1800
1A00
1F80
38C0
30C0
30C0
20C0
60C0
6180
6180
4700
FC00
ENDCHAR
STARTCHAR 0063
ENCODING 99
SWIDTH 495 0
DWIDTH 11 0
BBX 9 11 2 0
BITMAP
0700
1F80
7000
6000
C000
C000
8000
8000
C000
E300
7F00
ENDCHAR
STARTCHAR 0064
ENCODING 100
SWIDTH 495 0
DWIDTH 11 0
BBX 11 15 2 0
BITMAP
0060
0040
00C0
00C0
03C0
1F80
3180
6180
C180
C180
C300
C300
C300
E700
7F00
ENDCHAR
STARTCHAR 0065
ENCODING 101
SWIDTH 495 0
DWIDTH 11 0
BBX 9 11 2 0
BITMAP
0600
3F80
7180
6180
C180
CF00
FC00
8000
C000
E300
7F00
ENDCHAR
STARTCHAR 0066
ENCODING 102
SWIDTH 495 0
DWIDTH 11 0
BBX 13 19 0 -4
BITMAP
00F8
01C0
0180
0300
0300
0FF0
0300
0200
0600
0600
0600
0600
0C00
0C00
0C00
0C00
1800
F800
E000
ENDCHAR
STARTCHAR 0067
ENCODING 103
SWIDTH 495 0
DWIDTH 11 0
BBX 11 15 1 -4
BITMAP
0180
0FE0
1C40
30C0
20C0
60C0
6080
6180
6180
3F80
1900
0300
0700
FE00
7800
ENDCHAR
STARTCHAR 0068
ENCODING 104
SWIDTH 495 0
DWIDTH 11 0
BBX 10 15 1 0
BITMAP
1800
1800
1800
1800
3200
3F80
3180
30C0
20C0
6180
6180
6180
4180
C100
C300
ENDCHAR
STARTCHAR 0069
ENCODING 105
SWIDTH 495 0
DWIDTH 11 0
BBX 6 15 3 0
BITMAP
0C
1C
1C
00
00
F8
18
10
30
30
30
30
30
3C
1C
ENDCHAR
STARTCHAR 006A
ENCODING 106
SWIDTH 495 0
DWIDTH 11 0
BBX 10 19 1 -4
BITMAP
00C0
01C0
01C0
0000
0000
1F80
0180
0180
0180
0100
0300
0300
0300
0200
0600
0600
0600
FC00
7000
ENDCHAR
STARTCHAR 006B
ENCODING 107
SWIDTH 495 0
DWIDTH 11 0
BBX 10 15 2 0
BITMAP
1800
1000
3000
3000
3000
31C0
6300
6E00
7C00
7800
D800
CC00
C600
C600
8300
ENDCHAR
STARTCHAR 006C
ENCODING 108
SWIDTH 495 0
DWIDTH 11 0
BBX 6 15 4 0
BITMAP
F8
18
10
30
30
30
30
60
60
60
60
40
C0
E4
7C
ENDCHAR
STARTCHAR 006D
ENCODING 109
SWIDTH 495 0
DWIDTH 11 0
BBX 11 11 1 0
BITMAP
0880
3FC0
2660
6640
6640
64C0
4CC0
40C0
C080
C180
8180
ENDCHAR
STARTCHAR 006E
ENCODING 110
SWIDTH 495 0
DWIDTH 11 0
BBX 9 11 2 0
BITMAP
0400
3F00
6180
6180
6180
6180
C100
C300
C300
C300
8300
ENDCHAR
STARTCHAR 006F
ENCODING 111
SWIDTH 495 0
DWIDTH 11 0
BBX 9 11 2 0
BITMAP
0400
3F00
7180
6180
C180
C180
C180
C180
C300
EE00
7C00
ENDCHAR
STARTCHAR 0070
ENCODING 112
SWIDTH 495 0
DWIDTH 11 0
BBX 11 15 0 -4
BITMAP
0300
0FC0
1860
1860
1860
1060
3060
30E0
30C0
3380
7F00
6000
6000
4000
C000
ENDCHAR
STARTCHAR 0071
ENCODING 113
SWIDTH 495 0
DWIDTH 11 0
BBX 10 15 2 -4
BITMAP
0300
1FC0
3180
6180
C180
C180
C300
C300
C300
E700
7E00
0600
0600
0600
0400
ENDCHAR
STARTCHAR 0072
ENCODING 114
SWIDTH 495 0
DWIDTH 11 0
BBX 9 11 2 0
BITMAP
0300
3F80
3000
3000
2000
6000
6000
6000
4000
C000
C000
ENDCHAR
STARTCHAR 0073
ENCODING 115
SWIDTH 495 0
DWIDTH 11 0
BBX 9 11 2 0
BITMAP
0600
1F80
3000
3000
3000
1C00
0E00
0300
0300
C600
FC00
ENDCHAR
STARTCHAR 0074
ENCODING 116
SWIDTH 495 0
DWIDTH 11 0
BBX 8 13 3 1
BITMAP
18
18
10
FF
30
30
30
60
60
60
60
62
3E
ENDCHAR
STARTCHAR 0075
ENCODING 117
SWIDTH 495 0
DWIDTH 11 0
BBX 9 10 2 0
BITMAP
6180
6180
6180
4180
C300
C300
C300
C300
CF00
7B00
ENDCHAR
STARTCHAR 0076
ENCODING 118
SWIDTH 495 0
DWIDTH 11 0
BBX 9 10 3 0
BITMAP
C180
C300
C300
C600
C600
CC00
4800
7800
7000
6000
ENDCHAR
STARTCHAR 0077
ENCODING 119
SWIDTH 495 0
DWIDTH 11 0
BBX 11 10 2 0
BITMAP
C060
C040
CCC0
CC80
DC80
D580
B500
A700
C600
C600
ENDCHAR
STARTCHAR 0078
ENCODING 120
SWIDTH 495 0
DWIDTH 11 0
BBX 11 10 1 0
BITMAP
30E0
18C0
1980
0F00
0E00
0E00
1B00
3300
6300
C180
ENDCHAR
STARTCHAR 0079
ENCODING 121
SWIDTH 495 0
DWIDTH 11 0
BBX 12 14 0 -4
BITMAP
1830
1860
1860
1860
08C0
0CC0
0D80
0D80
0700
0600
0600
0C00
F800
E000
ENDCHAR
STARTCHAR 007A
ENCODING 122
SWIDTH 495 0
DWIDTH 11 0
BBX 10 10 1 0
BITMAP
1FC0
0180
0300
0600
0C00
1800
3000
3000
7F00
FF00
ENDCHAR
STARTCHAR 007B
ENCODING 123
SWIDTH 495 0
DWIDTH 11 0
BBX 11 20 2 -4
BITMAP
00E0
07C0
0600
0C00
0C00
0C00
0800
1800
1800
F000
F000
3000
3000
3000
2000
2000
6000
6000
7C00
1C00
ENDCHAR
STARTCHAR 007C
ENCODING 124
SWIDTH 495 0
DWIDTH 11 0
BBX 7 20 3 -4
BITMAP
06
06
04
0C
0C
0C
08
18
18
18
10
30
30
30
20
60
60
60
40
C0
ENDCHAR
STARTCHAR 007D
ENCODING 125
SWIDTH 495 0
DWIDTH 11 0
BBX 11 20 0 -4
BITMAP
0600
0F80
00C0
0080
0080
0180
0180
0100
0100
01E0
01C0
0300
0200
0600
0600
0600
0400
0C00
F800
F000
ENDCHAR
STARTCHAR 007E
ENCODING 126
SWIDTH 495 0
DWIDTH 11 0
BBX 9 3 2 4
BITMAP
7880
CF80
8700
ENDCHAR
STARTCHAR 00A0
ENCODING 160
SWIDTH 495 0
DWIDTH 11 0
BBX 0 0 0 0
BITMAP
ENDCHAR
STARTCHAR 00A1
ENCODING 161
SWIDTH 495 0
DWIDTH 11 0
BBX 6 14 3 -4
BITMAP
1C
1C
18
00
00
30
30
30
60
60
60
60
C0
C0
ENDCHAR
STARTCHAR 00A2
ENCODING 162
SWIDTH 495 0
DWIDTH 11 0
BBX 9 16 2 -2
BITMAP
0300
0200
0200
0F80
3F80
7000
6000
C000
C000
C000
C000
E100
7F00
1800
1000
1000
ENDCHAR
STARTCHAR 00A3
ENCODING 163
SWIDTH 495 0
DWIDTH 11 0
BBX 10 14 2 0
BITMAP
07C0
0FC0
0C00
1800
1800
1000
3000
FF00
3000
2000
6000
6000
7F00
FF00
ENDCHAR
STARTCHAR 00A4
ENCODING 164
SWIDTH 495 0
DWIDTH 11 0
BBX 9 9 2 3
BITMAP
DD80
7F80
6100
4180
4180
6100
7700
FF80
4080
ENDCHAR
STARTCHAR 00A5
ENCODING 165
SWIDTH 495 0
DWIDTH 11 0
BBX 12 14 2 0
BITMAP
6070
2060
30C0
3180
1100
1B00
1E00
7F80
0C00
1800
FF00
FF00
1800
3000
ENDCHAR
STARTCHAR 00A6
ENCODING 166
SWIDTH 495 0
DWIDTH 11 0
BBX 7 20 3 -4
BITMAP
06
04
04
0C
0C
0C
08
18
00
00
00
00
30
30
20
60
60
60
40
C0
ENDCHAR
STARTCHAR 00A7
ENCODING 167
SWIDTH 495 0
DWIDTH 11 0
BBX 11 16 1 -2
BITMAP
07E0
0E40
0800
1800
0E00
1F80
3180
20C0
2080
3180
1F00
0700
0300
0300
C600
FC00
ENDCHAR
STARTCHAR 00A8
ENCODING 168
SWIDTH 495 0
DWIDTH 11 0
BBX 6 3 5 12
BITMAP
44
EC
4C
ENDCHAR
STARTCHAR 00A9
ENCODING 169
SWIDTH 495 0
DWIDTH 11 0
BBX 9 11 2 0
BITMAP
0800
7E00
4100
9D80
B480
A080
A080
BC80
CD80
6300
3E00
ENDCHAR
STARTCHAR 00AA
ENCODING 170
SWIDTH 495 0
DWIDTH 11 0
BBX 7 7 4 7
BITMAP
1E
66
44
C4
8C
CC
FC
ENDCHAR
STARTCHAR 00AB
ENCODING 171
SWIDTH 495 0
DWIDTH 11 0
BBX 9 7 2 3
BITMAP
1980
3300
6600
CC00
6600
6600
2200
ENDCHAR
STARTCHAR 00AC
ENCODING 172
SWIDTH 495 0
DWIDTH 11 0
BBX 9 7 2 1
BITMAP
FF80
FF80
0180
0180
0180
0100
0300
ENDCHAR
STARTCHAR 00AD
ENCODING 173
SWIDTH 495 0
DWIDTH 11 0
BBX 5 2 4 5
BITMAP
F8
F8
ENDCHAR
STARTCHAR 00AE
ENCODING 174
SWIDTH 495 0
DWIDTH 11 0
BBX 9 11 2 0
BITMAP
0800
7E00
4100
9D80
9480
9480
9C80
9480
D780
6300
3E00
ENDCHAR
STARTCHAR 00AF
ENCODING 175
SWIDTH 495 0
DWIDTH 11 0
BBX 6 1 5 13
BITMAP
FC
ENDCHAR
STARTCHAR 00B0
ENCODING 176
SWIDTH 495 0
DWIDTH 11 0
BBX 6 5 5 10
BITMAP
78
C8
8C
C8
78
ENDCHAR
STARTCHAR 00B1
ENCODING 177
SWIDTH 495 0
DWIDTH 11 0
BBX 10 12 1 0
BITMAP
0300
0300
0200
0600
3FC0
0600
0400
0C00
0C00
0000
FF80
FF80
ENDCHAR
STARTCHAR 00B2
ENCODING 178
SWIDTH 495 0
DWIDTH 11 0
BBX 6 8 4 6
BITMAP
3C
04
04
0C
30
60
FC
F8
ENDCHAR
STARTCHAR 00B3
ENCODING 179
SWIDTH 495 0
DWIDTH 11 0
BBX 6 8 4 6
BITMAP
3C
04
04
38
0C
04
8C
F8
ENDCHAR
STARTCHAR 00B4
ENCODING 180
SWIDTH 495 0
DWIDTH 11 0
BBX 3 4 7 11
BITMAP
20
60
C0
80
ENDCHAR
STARTCHAR 00B5
ENCODING 181
SWIDTH 495 0
DWIDTH 11 0
BBX 11 14 0 -4
BITMAP
1860
1860
1860
1040
30C0
30C0
30C0
30C0
7BC0
7F60
6000
4000
C000
C000
ENDCHAR
STARTCHAR 00B6
ENCODING 182
SWIDTH 495 0
DWIDTH 11 0
BBX 11 18 2 -4
BITMAP
0FE0
3FC0
7EC0
7CC0
FCC0
FC80
FC80
7980
3980
1900
1900
1300
1300
3200
3200
3600
2600
2400
ENDCHAR
STARTCHAR 00B7
ENCODING 183
SWIDTH 495 0
DWIDTH 11 0
BBX 3 3 5 5
BITMAP
E0
E0
C0
ENDCHAR
STARTCHAR 00B8
ENCODING 184
SWIDTH 495 0
DWIDTH 11 0
BBX 4 4 3 -4
BITMAP
20
70
B0
E0
ENDCHAR
STARTCHAR 00B9
ENCODING 185
SWIDTH 495 0
DWIDTH 11 0
BBX 6 8 4 6
BITMAP
08
38
18
10
10
10
FC
F8
ENDCHAR
STARTCHAR 00BA
ENCODING 186
SWIDTH 495 0
DWIDTH 11 0
BBX 7 7 4 7
BITMAP
3C
66
42
C2
C6
C4
78
ENDCHAR
STARTCHAR 00BB
ENCODING 187
SWIDTH 495 0
DWIDTH 11 0
BBX 9 7 2 3
BITMAP
2200
3300
1100
1980
3300
6600
CC00
ENDCHAR
STARTCHAR 00BC
ENCODING 188
SWIDTH 495 0
DWIDTH 11 0
BBX 12 14 1 0
BITMAP
0C30
3860
0840
08C0
1980
1300
0600
0400
0C40
19C0
33C0
2680
47C0
C180
ENDCHAR
STARTCHAR 00BD
ENCODING 189
SWIDTH 495 0
DWIDTH 11 0
BBX 12 14 1 0
BITMAP
0C30
3860
08C0
0880
1980
1300
0600
0C00
0980
1BC0
3040
6180
4200
C780
ENDCHAR
STARTCHAR 00BE
ENCODING 190
SWIDTH 495 0
DWIDTH 11 0
BBX 12 14 1 0
BITMAP
3C30
0C60
1840
08C0
0980
7300
0600
0400
0C40
19C0
33C0
2680
47C0
C180
ENDCHAR
STARTCHAR 00BF
ENCODING 191
SWIDTH 495 0
DWIDTH 11 0
BBX 8 14 2 -4
BITMAP
07
07
06
00
00
0C
18
30
60
C0
C0
C0
FC
78
ENDCHAR
STARTCHAR 00C0
ENCODING 192
SWIDTH 495 0
DWIDTH 11 0
BBX 10 18 0 0
BITMAP
0180
0180
00C0
0040
0180
03C0
03C0
06C0
04C0
0CC0
08C0
18C0
10C0
3FC0
6040
6040
C040
C040
ENDCHAR
STARTCHAR 00C1
ENCODING 193
SWIDTH 495 0
DWIDTH 11 0
BBX 11 18 0 0
BITMAP
0020
0060
00C0
0000
0180
03C0
03C0
06C0
04C0
0CC0
08C0
18C0
10C0
3FC0
6040
6040
C040
C040
ENDCHAR
STARTCHAR 00C2
ENCODING 194
SWIDTH 495 0
DWIDTH 11 0
BBX 11 18 0 0
BITMAP
00C0
01E0
0320
0000
0180
03C0
03C0
06C0
04C0
0CC0
08C0
18C0
10C0
3FC0
6040
6040
C040
C040
ENDCHAR
STARTCHAR 00C3
ENCODING 195
SWIDTH 495 0
DWIDTH 11 0
BBX 12 18 0 0
BITMAP
0110
03F0
0260
0000
0180
03C0
03C0
06C0
04C0
0CC0
08C0
18C0
10C0
3FC0
6040
6040
C040
C040
ENDCHAR
STARTCHAR 00C4
ENCODING 196
SWIDTH 495 0
DWIDTH 11 0
BBX 12 18 0 0
BITMAP
0110
0330
0130
0000
0180
03C0
03C0
06C0
04C0
0CC0
08C0
18C0
10C0
3FC0
6040
6040
C040
C040
ENDCHAR
STARTCHAR 00C5
ENCODING 197
SWIDTH 495 0
DWIDTH 11 0
BBX 10 17 0 0
BITMAP
0080
0140
0240
01C0
03C0
03C0
06C0
04C0
0CC0
08C0
18C0
10C0
3FC0
6040
6040
C040
C040
ENDCHAR
STARTCHAR 00C6
ENCODING 198
SWIDTH 495 0
DWIDTH 11 0
BBX 13 14 0 0
BITMAP
00F8
01F8
03C0
02C0
0680
0480
0DE0
09E0
1980
3F00
3300
6300
63E0
C3C0
ENDCHAR
STARTCHAR 00C7
ENCODING 199
SWIDTH 495 0
DWIDTH 11 0
BBX 10 18 2 -4
BITMAP
07C0
1FC0
3800
3000
6000
6000
C000
C000
C000
C000
C000
C000
7300
3F00
1000
1800
1800
7000
ENDCHAR
STARTCHAR 00C8
ENCODING 200
SWIDTH 495 0
DWIDTH 11 0
BBX 11 18 2 0
BITMAP
0600
0300
0180
0000
1FE0
1FC0
3000
3000
3000
2000
7F00
7F00
6000
4000
C000
C000
FF00
FF00
ENDCHAR
STARTCHAR 00C9
ENCODING 201
SWIDTH 495 0
DWIDTH 11 0
BBX 11 18 2 0
BITMAP
0080
0180
0300
0000
1FE0
1FC0
3000
3000
3000
2000
7F00
7F00
6000
4000
C000
C000
FF00
FF00
ENDCHAR
STARTCHAR 00CA
ENCODING 202
SWIDTH 495 0
DWIDTH 11 0
BBX 11 18 2 0
BITMAP
0100
0380
04C0
0000
1FE0
1FC0
3000
3000
3000
2000
7F00
7F00
6000
4000
C000
C000
FF00
FF00
ENDCHAR
STARTCHAR 00CB
ENCODING 203
SWIDTH 495 0
DWIDTH 11 0
BBX 11 18 2 0
BITMAP
0440
0CC0
04C0
0000
1FE0
1FC0
3000
3000
3000
2000
7F00
7F00
6000
4000
C000
C000
FF00
FF00
ENDCHAR
STARTCHAR 00CC
ENCODING 204
SWIDTH 495 0
DWIDTH 11 0
BBX 10 18 2 0
BITMAP
0600
0600
0300
0100
1FC0
1FC0
0600
0600
0400
0C00
0C00
0C00
0800
1800
1800
1800
FE00
FE00
ENDCHAR
STARTCHAR 00CD
ENCODING 205
SWIDTH 495 0
DWIDTH 11 0
BBX 10 18 2 0
BITMAP
0180
0380
0600
0000
1FC0
1FC0
0600
0600
0400
0C00
0C00
0C00
0800
1800
1800
1800
FE00
FE00
ENDCHAR
STARTCHAR 00CE
ENCODING 206
SWIDTH 495 0
DWIDTH 11 0
BBX 10 18 2 0
BITMAP
0300
0780
0C80
0000
1FC0
1FC0
0600
0600
0400
0C00
0C00
0C00
0800
1800
1800
1800
FE00
FE00
ENDCHAR
STARTCHAR 00CF
ENCODING 207
SWIDTH 495 0
DWIDTH 11 0
BBX 10 18 2 0
BITMAP
0440
0CC0
04C0
0000
1FC0
1FC0
0600
0600
0400
0C00
0C00
0C00
0800
1800
1800
1800
FE00
FE00
ENDCHAR
STARTCHAR 00D0
ENCODING 208
SWIDTH 495 0
DWIDTH 11 0
BBX 11 14 1 0
BITMAP
0F00
1FC0
18C0
1840
1860
1060
7C60
FC40
30C0
20C0
6180
6380
6F00
7C00
ENDCHAR
STARTCHAR 00D1
ENCODING 209
SWIDTH 495 0
DWIDTH 11 0
BBX 12 18 1 0
BITMAP
0220
07E0
04C0
0000
1830
1830
1C20
3C60
3460
3660
2640
66C0
62C0
62C0
4380
C380
C380
C180
ENDCHAR
STARTCHAR 00D2
ENCODING 210
SWIDTH 495 0
DWIDTH 11 0
BBX 10 18 2 0
BITMAP
0600
0300
0100
0000
0F00
1F80
30C0
60C0
60C0
40C0
C0C0
C0C0
C080
C180
C180
C300
E600
7C00
ENDCHAR
STARTCHAR 00D3
ENCODING 211
SWIDTH 495 0
DWIDTH 11 0
BBX 10 18 2 0
BITMAP
0080
0180
0300
0000
0F00
1F80
30C0
60C0
60C0
40C0
C0C0
C0C0
C080
C180
C180
C300
E600
7C00
ENDCHAR
STARTCHAR 00D4
ENCODING 212
SWIDTH 495 0
DWIDTH 11 0
BBX 10 18 2 0
BITMAP
0100
0780
0CC0
0000
0F00
1F80
30C0
60C0
60C0
40C0
C0C0
C0C0
C080
C180
C180
C300
E600
7C00
ENDCHAR
STARTCHAR 00D5
ENCODING 213
SWIDTH 495 0
DWIDTH 11 0
BBX 10 18 2 0
BITMAP
0440
0FC0
0980
0000
0F00
1F80
30C0
60C0
60C0
40C0
C0C0
C0C0
C080
C180
C180
C300
E600
7C00
ENDCHAR
STARTCHAR 00D6
ENCODING 214
SWIDTH 495 0
DWIDTH 11 0
BBX 10 18 2 0
BITMAP
0440
0EC0
04C0
0000
0F00
1F80
30C0
60C0
60C0
40C0
C0C0
C0C0
C080
C180
C180
C300
E600
7C00
ENDCHAR
STARTCHAR 00D7
ENCODING 215
SWIDTH 495 0
DWIDTH 11 0
BBX 9 8 2 2
BITMAP
2080
3180
3700
1E00
1C00
3600
6600
C200
ENDCHAR
STARTCHAR 00D8
ENCODING 216
SWIDTH 495 0
DWIDTH 11 0
BBX 11 14 1 -1
BITMAP
07A0
0FE0
18E0
31E0
3160
6360
6660
6440
4CC0
58C0
7080
6180
6300
FE00
ENDCHAR
STARTCHAR 00D9
ENCODING 217
SWIDTH 495 0
DWIDTH 11 0
BBX 11 18 2 0
BITMAP
0C00
0600
0300
0000
3060
3040
20C0
60C0
60C0
60C0
4180
C180
C180
C180
C300
C300
E600
7C00
ENDCHAR
STARTCHAR 00DA
ENCODING 218
SWIDTH 495 0
DWIDTH 11 0
BBX 11 18 2 0
BITMAP
0080
0180
0300
0000
3060
3040
20C0
60C0
60C0
60C0
4180
C180
C180
C180
C300
C300
E600
7C00
ENDCHAR
STARTCHAR 00DB
ENCODING 219
SWIDTH 495 0
DWIDTH 11 0
BBX 11 18 2 0
BITMAP
0300
0780
0C80
0000
3060
3040
20C0
60C0
60C0
60C0
4180
C180
C180
C180
C300
C300
E600
7C00
ENDCHAR
STARTCHAR 00DC
ENCODING 220
SWIDTH 495 0
DWIDTH 11 0
BBX 11 18 2 0
BITMAP
0440
0CC0
04C0
0000
3060
3040
20C0
60C0
60C0
60C0
4180
C180
C180
C180
C300
C300
E600
7C00
ENDCHAR
STARTCHAR 00DD
ENCODING 221
SWIDTH 495 0
DWIDTH 11 0
BBX 11 18 3 0
BITMAP
0180
0300
0600
0000
C060
C0C0
4180
6180
6300
6600
2400
3C00
3800
3000
3000
3000
3000
6000
ENDCHAR
STARTCHAR 00DE
ENCODING 222
SWIDTH 495 0
DWIDTH 11 0
BBX 10 14 1 0
BITMAP
1800
1800
1E00
1FC0
30C0
30C0
3040
30C0
60C0
6780
7E00
6000
4000
C000
ENDCHAR
STARTCHAR 00DF
ENCODING 223
SWIDTH 495 0
DWIDTH 11 0
BBX 13 19 -2 -4
BITMAP
00F8
0198
0108
0318
0338
0370
0240
06C0
06E0
0670
0418
0C18
0C18
0D38
0DF0
0800
1800
F000
E000
ENDCHAR
STARTCHAR 00E0
ENCODING 224
SWIDTH 495 0
DWIDTH 11 0
BBX 9 15 2 0
BITMAP
0400
0600
0300
0000
0200
1F80
3180
6180
C180
C100
8300
8300
C300
C700
7B00
ENDCHAR
STARTCHAR 00E1
ENCODING 225
SWIDTH 495 0
DWIDTH 11 0
BBX 9 15 2 0
BITMAP
0180
0380
0600
0000
0200
1F80
3180
6180
C180
C100
8300
8300
C300
C700
7B00
ENDCHAR
STARTCHAR 00E2
ENCODING 226
SWIDTH 495 0
DWIDTH 11 0
BBX 9 15 2 0
BITMAP
0300
0700
0D80
0000
0200
1F80
3180
6180
C180
C100
8300
8300
C300
C700
7B00
ENDCHAR
STARTCHAR 00E3
ENCODING 227
SWIDTH 495 0
DWIDTH 11 0
BBX 10 14 2 1
BITMAP
0FC0
0980
0000
0200
1F80
3180
6180
C180
C100
8300
8300
C300
C700
7B00
ENDCHAR
STARTCHAR 00E4
ENCODING 228
SWIDTH 495 0
DWIDTH 11 0
BBX 10 15 2 0
BITMAP
0400
0CC0
0CC0
0000
0200
1F80
3180
6180
C180
C100
8300
8300
C300
C700
7B00
ENDCHAR
STARTCHAR 00E5
ENCODING 229
SWIDTH 495 0
DWIDTH 11 0
BBX 9 15 2 0
BITMAP
0780
0480
0580
0200
0200
1F80
3180
6180
C180
C100
8300
8300
C300
C700
7B00
ENDCHAR
STARTCHAR 00E6
ENCODING 230
SWIDTH 495 0
DWIDTH 11 0
BBX 11 11 1 0
BITMAP
1040
3DE0
0F60
0660
0660
3FC0
6700
CC00
CC00
DE80
F780
ENDCHAR
STARTCHAR 00E7
ENCODING 231
SWIDTH 495 0
DWIDTH 11 0
BBX 9 15 2 -4
BITMAP
0700
1F80
7000
6000
C000
C000
8000
8000
C000
E300
7F00
1000
3800
5800
7000
ENDCHAR
STARTCHAR 00E8
ENCODING 232
SWIDTH 495 0
DWIDTH 11 0
BBX 9 15 2 0
BITMAP
0400
0600
0300
0000
0600
3F80
7180
6180
C180
CF00
FC00
8000
C000
E300
7F00
ENDCHAR
STARTCHAR 00E9
ENCODING 233
SWIDTH 495 0
DWIDTH 11 0
BBX 9 15 2 0
BITMAP
0100
0300
0600
0400
0600
3F80
7180
6180
C180
CF00
FC00
8000
C000
E300
7F00
ENDCHAR
STARTCHAR 00EA
ENCODING 234
SWIDTH 495 0
DWIDTH 11 0
BBX 9 15 2 0
BITMAP
0200
0700
0980
0000
0600
3F80
7180
6180
C180
CF00
FC00
8000
C000
E300
7F00
ENDCHAR
STARTCHAR 00EB
ENCODING 235
SWIDTH 495 0
DWIDTH 11 0
BBX 10 14 2 1
BITMAP
0CC0
0C80
0000
0600
3F80
7180
6180
C180
CF00
FC00
8000
C000
E300
7F00
ENDCHAR
STARTCHAR 00EC
ENCODING 236
SWIDTH 495 0
DWIDTH 11 0
BBX 6 15 3 0
BITMAP
30
18
0C
00
00
F8
18
10
30
30
30
30
30
3C
1C
ENDCHAR
STARTCHAR 00ED
ENCODING 237
SWIDTH 495 0
DWIDTH 11 0
BBX 7 15 3 0
BITMAP
06
0E
18
00
00
F8
18
10
30
30
30
30
30
3C
1C
ENDCHAR
STARTCHAR 00EE
ENCODING 238
SWIDTH 495 0
DWIDTH 11 0
BBX 7 15 3 0
BITMAP
08
1C
36
00
00
F8
18
10
30
30
30
30
30
3C
1C
ENDCHAR
STARTCHAR 00EF
ENCODING 239
SWIDTH 495 0
DWIDTH 11 0
BBX 8 15 3 0
BITMAP
02
37
22
00
00
F8
18
10
30
30
30
30
30
3C
1C
ENDCHAR
STARTCHAR 00F0
ENCODING 240
SWIDTH 495 0
DWIDTH 11 0
BBX 10 15 2 0
BITMAP
0600
03C0
0780
0D80
0180
0F80
3F80
6180
C180
C180
C180
C300
C300
EE00
7C00
ENDCHAR
STARTCHAR 00F1
ENCODING 241
SWIDTH 495 0
DWIDTH 11 0
BBX 9 15 2 0
BITMAP
0080
1F80
1300
0000
0400
3F00
6180
6180
6180
6180
C100
C300
C300
C300
8300
ENDCHAR
STARTCHAR 00F2
ENCODING 242
SWIDTH 495 0
DWIDTH 11 0
BBX 9 15 2 0
BITMAP
0C00
0600
0300
0000
0400
3F00
7180
6180
C180
C180
C180
C180
C300
EE00
7C00
ENDCHAR
STARTCHAR 00F3
ENCODING 243
SWIDTH 495 0
DWIDTH 11 0
BBX 9 15 2 0
BITMAP
0100
0300
0600
0400
0400
3F00
7180
6180
C180
C180
C180
C180
C300
EE00
7C00
ENDCHAR
STARTCHAR 00F4
ENCODING 244
SWIDTH 495 0
DWIDTH 11 0
BBX 9 15 2 0
BITMAP
0200
0700
0980
0000
0400
3F00
7180
6180
C180
C180
C180
C180
C300
EE00
7C00
ENDCHAR
STARTCHAR 00F5
ENCODING 245
SWIDTH 495 0
DWIDTH 11 0
BBX 9 14 2 1
BITMAP
1F80
1100
0000
0400
3F00
7180
6180
C180
C180
C180
C180
C300
EE00
7C00
ENDCHAR
STARTCHAR 00F6
ENCODING 246
SWIDTH 495 0
DWIDTH 11 0
BBX 10 15 2 0
BITMAP
0880
0DC0
0880
0000
0400
3F00
7180
6180
C180
C180
C180
C180
C300
EE00
7C00
ENDCHAR
STARTCHAR 00F7
ENCODING 247
SWIDTH 495 0
DWIDTH 11 0
BBX 9 10 2 1
BITMAP
0400
0E00
0C00
0000
FF80
FF80
0000
0000
1800
1800
ENDCHAR
STARTCHAR 00F8
ENCODING 248
SWIDTH 495 0
DWIDTH 11 0
BBX 11 12 1 -1
BITMAP
0220
1FE0
38C0
31C0
63C0
66C0
6CC0
78C0
7180
7700
FE00
8000
ENDCHAR
STARTCHAR 00F9
ENCODING 249
SWIDTH 495 0
DWIDTH 11 0
BBX 9 15 2 0
BITMAP
0800
0C00
0600
0200
0000
6180
6180
6180
4180
C300
C300
C300
C300
CF00
7B00
ENDCHAR
STARTCHAR 00FA
ENCODING 250
SWIDTH 495 0
DWIDTH 11 0
BBX 9 15 2 0
BITMAP
0100
0300
0600
0000
0000
6180
6180
6180
4180
C300
C300
C300
C300
CF00
7B00
ENDCHAR
STARTCHAR 00FB
ENCODING 251
SWIDTH 495 0
DWIDTH 11 0
BBX 9 15 2 0
BITMAP
0200
0F00
1900
0000
0000
6180
6180
6180
4180
C300
C300
C300
C300
CF00
7B00
ENDCHAR
STARTCHAR 00FC
ENCODING 252
SWIDTH 495 0
DWIDTH 11 0
BBX 9 15 2 0
BITMAP
0800
1980
1980
0000
0000
6180
6180
6180
4180
C300
C300
C300
C300
CF00
7B00
ENDCHAR
STARTCHAR 00FD
ENCODING 253
SWIDTH 495 0
DWIDTH 11 0
BBX 12 19 0 -4
BITMAP
0040
00C0
0180
0000
0000
1830
1860
1860
1860
08C0
0CC0
0D80
0D80
0700
0600
0600
0C00
F800
E000
ENDCHAR
STARTCHAR 00FE
ENCODING 254
SWIDTH 495 0
DWIDTH 11 0
BBX 11 19 0 -4
BITMAP
0600
0400
0C00
0C00
0D80
0FC0
1860
1860
1860
1060
3060
30C0
30C0
2380
7F00
6000
6000
4000
C000
ENDCHAR
STARTCHAR 00FF
ENCODING 255
SWIDTH 495 0
DWIDTH 11 0
BBX 12 19 0 -4
BITMAP
0200
0660
0660
0000
0000
1830
1860
1860
1860
08C0
0CC0
0D80
0D80
0700
0600
0600
0C00
F800
E000
ENDCHAR
STARTCHAR 0100
ENCODING 256
SWIDTH 495 0
DWIDTH 11 0
BBX 12 17 0 0
BITMAP
03F0
0000
0000
0180
03C0
03C0
06C0
04C0
0CC0
08C0
18C0
10C0
3FC0
6040
6040
C040
C040
ENDCHAR
STARTCHAR 0101
ENCODING 257
SWIDTH 495 0
DWIDTH 11 0
BBX 10 14 2 0
BITMAP
0FC0
0000
0000
0200
1F80
3180
6180
C180
C100
8300
8300
C300
C700
7B00
ENDCHAR
STARTCHAR 0102
ENCODING 258
SWIDTH 495 0
DWIDTH 11 0
BBX 12 18 0 0
BITMAP
0110
01E0
00C0
0000
0180
03C0
03C0
06C0
04C0
0CC0
08C0
18C0
10C0
3FC0
6040
6040
C040
C040
ENDCHAR
STARTCHAR 0103
ENCODING 259
SWIDTH 495 0
DWIDTH 11 0
BBX 10 15 2 0
BITMAP
0440
04C0
0780
0000
0200
1F80
3180
6180
C180
C100
8300
8300
C300
C700
7B00
ENDCHAR
STARTCHAR 0104
ENCODING 260
SWIDTH 495 0
DWIDTH 11 0
BBX 10 18 0 -4
BITMAP
0180
03C0
03C0
06C0
04C0
0CC0
08C0
18C0
10C0
3FC0
6040
6040
C040
C040
00C0
0180
01C0
01C0
ENDCHAR
STARTCHAR 0105
ENCODING 261
SWIDTH 495 0
DWIDTH 11 0
BBX 9 15 2 -4
BITMAP
0200
1F80
3180
6180
C180
C100
8300
8300
C300
C700
7B00
0600
0C00
0E00
0600
ENDCHAR
STARTCHAR 0106
ENCODING 262
SWIDTH 495 0
DWIDTH 11 0
BBX 10 18 2 0
BITMAP
00C0
0180
0300
0000
07C0
1FC0
3800
3000
6000
6000
C000
C000
C000
C000
C000
C000
7300
3F00
ENDCHAR
STARTCHAR 0107
ENCODING 263
SWIDTH 495 0
DWIDTH 11 0
BBX 9 15 2 0
BITMAP
0180
0380
0600
0000
0700
1F80
7000
6000
C000
C000
8000
8000
C000
E300
7F00
ENDCHAR
STARTCHAR 0108
ENCODING 264
SWIDTH 495 0
DWIDTH 11 0
BBX 10 18 2 0
BITMAP
0180
03C0
0640
0000
07C0
1FC0
3800
3000
6000
6000
C000
C000
C000
C000
C000
C000
7300
3F00
ENDCHAR
STARTCHAR 0109
ENCODING 265
SWIDTH 495 0
DWIDTH 11 0
BBX 9 15 2 0
BITMAP
0300
0700
0D80
0000
0700
1F80
7000
6000
C000
C000
8000
8000
C000
E300
7F00
ENDCHAR
STARTCHAR 010A
ENCODING 266
SWIDTH 495 0
DWIDTH 11 0
BBX 10 18 2 0
BITMAP
0100
0380
0100
0000
07C0
1FC0
3800
3000
6000
6000
C000
C000
C000
C000
C000
C000
7300
3F00
ENDCHAR
STARTCHAR 010B
ENCODING 267
SWIDTH 495 0
DWIDTH 11 0
BBX 9 14 2 1
BITMAP
0300
0300
0000
0700
1F80
7000
6000
C000
C000
8000
8000
C000
E300
7F00
ENDCHAR
STARTCHAR 010C
ENCODING 268
SWIDTH 495 0
DWIDTH 11 0
BBX 11 18 2 0
BITMAP
0660
0380
0100
0000
07C0
1FC0
3800
3000
6000
6000
C000
C000
C000
C000
C000
C000
7300
3F00
ENDCHAR
STARTCHAR 010D
ENCODING 269
SWIDTH 495 0
DWIDTH 11 0
BBX 10 15 2 0
BITMAP
0CC0
0780
0200
0000
0700
1F80
7000
6000
C000
C000
8000
8000
C000
E300
7F00
ENDCHAR
STARTCHAR 010E
ENCODING 270
SWIDTH 495 0
DWIDTH 11 0
BBX 11 18 1 0
BITMAP
06C0
0380
0300
0000
1F00
1F80
30C0
3040
3060
3060
2060
6040
60C0
60C0
4180
C380
CF00
FC00
ENDCHAR
STARTCHAR 010F
ENCODING 271
SWIDTH 495 0
DWIDTH 11 0
BBX 13 15 1 0
BITMAP
00D8
00D8
00D0
0090
0380
1F80
3180
6100
6300
C300
C300
C200
C200
EE00
7A00
ENDCHAR
STARTCHAR 0110
ENCODING 272
SWIDTH 495 0
DWIDTH 11 0
BBX 11 14 1 0
BITMAP
0F00
1FC0
18C0
1840
1860
1060
7C60
FC40
30C0
20C0
6180
6380
6F00
7C00
ENDCHAR
STARTCHAR 0111
ENCODING 273
SWIDTH 495 0
DWIDTH 11 0
BBX 12 15 2 0
BITMAP
00C0
0FF0
0FE0
00C0
0380
1F80
3180
6180
C100
C300
C300
C300
C200
CE00
7B00
ENDCHAR
STARTCHAR 0112
ENCODING 274
SWIDTH 495 0
DWIDTH 11 0
BBX 11 17 2 0
BITMAP
07C0
0000
0000
1FE0
1FC0
3000
3000
3000
2000
7F00
7F00
6000
4000
C000
C000
FF00
FF00
ENDCHAR
STARTCHAR 0113
ENCODING 275
SWIDTH 495 0
DWIDTH 11 0
BBX 9 14 2 0
BITMAP
0F80
0000
0000
0600
3F80
7180
6180
C180
CF00
FC00
8000
C000
E300
7F00
ENDCHAR
STARTCHAR 0114
ENCODING 276
SWIDTH 495 0
DWIDTH 11 0
BBX 11 18 2 0
BITMAP
0440
06C0
0380
0000
1FE0
1FC0
3000
3000
3000
2000
7F00
7F00
6000
4000
C000
C000
FF00
FF00
ENDCHAR
STARTCHAR 0115
ENCODING 277
SWIDTH 495 0
DWIDTH 11 0
BBX 10 15 2 0
BITMAP
08C0
0D80
0700
0000
0600
3F80
7180
6180
C180
CF00
FC00
8000
C000
E300
7F00
ENDCHAR
STARTCHAR 0116
ENCODING 278
SWIDTH 495 0
DWIDTH 11 0
BBX 11 18 2 0
BITMAP
0100
0380
0300
0000
1FE0
1FC0
3000
3000
3000
2000
7F00
7F00
6000
4000
C000
C000
FF00
FF00
ENDCHAR
STARTCHAR 0117
ENCODING 279
SWIDTH 495 0
DWIDTH 11 0
BBX 9 15 2 0
BITMAP
0200
0700
0200
0000
0600
3F80
7180
6180
C180
CF00
FC00
8000
C000
E300
7F00
ENDCHAR
STARTCHAR 0118
ENCODING 280
SWIDTH 495 0
DWIDTH 11 0
BBX 11 18 2 -4
BITMAP
1FE0
1FC0
3000
3000
3000
2000
7F00
7F00
6000
4000
C000
C000
FF00
FF00
0600
0C00
0E00
0600
ENDCHAR
STARTCHAR 0119
ENCODING 281
SWIDTH 495 0
DWIDTH 11 0
BBX 9 15 2 -4
BITMAP
0600
3F80
7180
6180
C180
CF00
FC00
8000
C000
E300
7F00
0400
0800
1E00
0C00
ENDCHAR
STARTCHAR 011A
ENCODING 282
SWIDTH 495 0
DWIDTH 11 0
BBX 11 18 2 0
BITMAP
0640
0380
0100
0000
1FE0
1FC0
3000
3000
3000
2000
7F00
7F00
6000
4000
C000
C000
FF00
FF00
ENDCHAR
STARTCHAR 011B
ENCODING 283
SWIDTH 495 0
DWIDTH 11 0
BBX 9 15 2 0
BITMAP
0C80
0700
0200
0000
0600
3F80
7180
6180
C180
CF00
FC00
8000
C000
E300
7F00
ENDCHAR
STARTCHAR 011C
ENCODING 284
SWIDTH 495 0
DWIDTH 11 0
BBX 10 18 2 0
BITMAP
0100
0380
04C0
0000
07C0
1FC0
3000
6000
6000
C000
C000
C180
C180
C180
C300
C300
6300
7F00
ENDCHAR
STARTCHAR 011D
ENCODING 285
SWIDTH 495 0
DWIDTH 11 0
BBX 11 19 1 -4
BITMAP
0180
03C0
0640
0000
0180
0FE0
1C40
30C0
20C0
60C0
6080
6180
6180
3F80
1900
0300
0700
FE00
7800
ENDCHAR
STARTCHAR 011E
ENCODING 286
SWIDTH 495 0
DWIDTH 11 0
BBX 10 18 2 0
BITMAP
0440
06C0
0380
0000
07C0
1FC0
3000
6000
6000
C000
C000
C180
C180
C180
C300
C300
6300
7F00
ENDCHAR
STARTCHAR 011F
ENCODING 287
SWIDTH 495 0
DWIDTH 11 0
BBX 11 19 1 -4
BITMAP
0220
0240
0380
0000
0180
0FE0
1C40
30C0
20C0
60C0
6080
6180
6180
3F80
1900
0300
0700
FE00
7800
ENDCHAR
STARTCHAR 0120
ENCODING 288
SWIDTH 495 0
DWIDTH 11 0
BBX 10 18 2 0
BITMAP
0100
0380
0300
0000
07C0
1FC0
3000
6000
6000
C000
C000
C180
C180
C180
C300
C300
6300
7F00
ENDCHAR
STARTCHAR 0121
ENCODING 289
SWIDTH 495 0
DWIDTH 11 0
BBX 11 18 1 -3
BITMAP
0180
0180
0000
0180
0FE0
1C40
30C0
20C0
60C0
6080
6180
6180
3F80
1900
0300
0700
FE00
7800
ENDCHAR
STARTCHAR 0122
ENCODING 290
SWIDTH 495 0
DWIDTH 11 0
BBX 10 18 2 -4
BITMAP
07C0
1FC0
3000
6000
6000
C000
C000
C180
C180
C180
C300
C300
6300
7F00
0000
1000
3000
6000
ENDCHAR
STARTCHAR 0123
ENCODING 291
SWIDTH 495 0
DWIDTH 11 0
BBX 11 19 1 -4
BITMAP
00C0
0180
0180
0000
0180
0FE0
1C40
30C0
20C0
60C0
6080
6180
6180
3F80
1900
0300
0700
FE00
7800
ENDCHAR
STARTCHAR 0124
ENCODING 292
SWIDTH 495 0
DWIDTH 11 0
BBX 12 18 1 0
BITMAP
0180
03C0
0640
0000
1830
1830
1060
3060
3060
3060
3FC0
7FC0
60C0
60C0
4080
C180
C180
C180
ENDCHAR
STARTCHAR 0125
ENCODING 293
SWIDTH 495 0
DWIDTH 11 0
BBX 10 18 1 0
BITMAP
0600
1B00
0000
1800
1800
1800
1800
1200
3F80
3180
30C0
20C0
6180
6180
6180
4180
C100
C300
ENDCHAR
STARTCHAR 0126
ENCODING 294
SWIDTH 495 0
DWIDTH 11 0
BBX 11 14 2 0
BITMAP
10C0
30C0
7FE0
FFE0
2180
6180
7F80
7F00
6300
C300
C300
C300
C600
8600
ENDCHAR
STARTCHAR 0127
ENCODING 295
SWIDTH 495 0
DWIDTH 11 0
BBX 9 15 2 0
BITMAP
1800
3F00
7F00
1000
3400
3F00
3180
2180
6180
6180
6100
4300
C300
C300
C300
ENDCHAR
STARTCHAR 0128
ENCODING 296
SWIDTH 495 0
DWIDTH 11 0
BBX 10 18 2 0
BITMAP
0440
0FC0
0980
0000
1FC0
1FC0
0600
0600
0400
0C00
0C00
0C00
0800
1800
1800
1800
FE00
FE00
ENDCHAR
STARTCHAR 0129
ENCODING 297
SWIDTH 495 0
DWIDTH 11 0
BBX 8 14 3 1
BITMAP
3F
06
00
00
F8
18
10
30
30
30
30
30
3C
1C
ENDCHAR
STARTCHAR 012A
ENCODING 298
SWIDTH 495 0
DWIDTH 11 0
BBX 10 17 2 0
BITMAP
0FC0
0000
0000
1FC0
1FC0
0600
0600
0400
0C00
0C00
0C00
0800
1800
1800
1800
FE00
FE00
ENDCHAR
STARTCHAR 012B
ENCODING 299
SWIDTH 495 0
DWIDTH 11 0
BBX 8 14 3 0
BITMAP
3F
00
00
00
F8
18
10
30
30
30
30
30
3C
1C
ENDCHAR
STARTCHAR 012C
ENCODING 300
SWIDTH 495 0
DWIDTH 11 0
BBX 10 18 2 0
BITMAP
0440
0780
0300
0000
1FC0
1FC0
0600
0600
0400
0C00
0C00
0C00
0800
1800
1800
1800
FE00
FE00
ENDCHAR
STARTCHAR 012D
ENCODING 301
SWIDTH 495 0
DWIDTH 11 0
BBX 8 15 3 0
BITMAP
33
12
1C
00
00
F8
18
10
30
30
30
30
30
3C
1C
ENDCHAR
STARTCHAR 012E
ENCODING 302
SWIDTH 495 0
DWIDTH 11 0
BBX 10 18 2 -4
BITMAP
1FC0
1FC0
0600
0600
0400
0C00
0C00
0C00
0800
1800
1800
1800
FE00
FE00
2000
4000
F000
6000
ENDCHAR
STARTCHAR 012F
ENCODING 303
SWIDTH 495 0
DWIDTH 11 0
BBX 6 19 3 -4
BITMAP
0C
1C
1C
00
00
F8
18
10
30
30
30
30
30
3C
1C
08
10
3C
1C
ENDCHAR
STARTCHAR 0130
ENCODING 304
SWIDTH 495 0
DWIDTH 11 0
BBX 10 18 2 0
BITMAP
0300
0300
0300
0000
1FC0
1FC0
0600
0600
0400
0C00
0C00
0C00
0800
1800
1800
1800
FE00
FE00
ENDCHAR
STARTCHAR 0131
ENCODING 305
SWIDTH 495 0
DWIDTH 11 0
BBX 6 10 3 0
BITMAP
F8
18
10
30
30
30
30
30
3C
1C
ENDCHAR
STARTCHAR 0132
ENCODING 306
SWIDTH 495 0
DWIDTH 11 0
BBX 12 14 1 0
BITMAP
1030
3030
3030
3020
3060
6060
6060
6060
60C0
40C0
C0C0
C080
D980
9F00
ENDCHAR
STARTCHAR 0133
ENCODING 307
SWIDTH 495 0
DWIDTH 11 0
BBX 10 19 2 -4
BITMAP
08C0
1DC0
18C0
0000
0000
3180
3180
3300
3300
6300
6300
6200
6600
4600
C600
0C00
0C00
7800
7000
ENDCHAR
STARTCHAR 0134
ENCODING 308
SWIDTH 495 0
DWIDTH 11 0
BBX 10 18 2 0
BITMAP
0180
03C0
0640
0000
0FC0
0FC0
00C0
00C0
0180
0180
0180
0180
0300
0300
0300
0600
CE00
FC00
ENDCHAR
STARTCHAR 0135
ENCODING 309
SWIDTH 495 0
DWIDTH 11 0
BBX 10 19 1 -4
BITMAP
0180
0380
06C0
0000
0000
1F80
0180
0180
0180
0100
0300
0300
0300
0200
0600
0600
0600
FC00
7000
ENDCHAR
STARTCHAR 0136
ENCODING 310
SWIDTH 495 0
DWIDTH 11 0
BBX 12 18 1 -4
BITMAP
1830
1860
18C0
1180
3300
3600
3C00
2C00
6E00
6600
6300
4300
C180
C180
0000
1800
3800
6000
ENDCHAR
STARTCHAR 0137
ENCODING 311
SWIDTH 495 0
DWIDTH 11 0
BBX 10 19 2 -4
BITMAP
1800
1000
3000
3000
3000
31C0
6300
6E00
7C00
7800
D800
CC00
C600
C600
8300
0000
1000
3000
6000
ENDCHAR
STARTCHAR 0138
ENCODING 312
SWIDTH 495 0
DWIDTH 11 0
BBX 10 10 2 0
BITMAP
21C0
6300
6600
7C00
7000
D800
CC00
C600
C700
8300
ENDCHAR
STARTCHAR 0139
ENCODING 313
SWIDTH 495 0
DWIDTH 11 0
BBX 8 18 1 0
BITMAP
03
07
0C
00
18
18
18
18
30
30
30
30
20
60
60
60
7F
FF
ENDCHAR
STARTCHAR 013A
ENCODING 314
SWIDTH 495 0
DWIDTH 11 0
BBX 6 18 4 0
BITMAP
0C
18
00
F8
18
10
30
30
30
30
60
60
60
60
40
C0
E4
7C
ENDCHAR
STARTCHAR 013B
ENCODING 315
SWIDTH 495 0
DWIDTH 11 0
BBX 8 18 1 -4
BITMAP
18
18
18
18
30
30
30
30
20
60
60
60
7F
FF
00
08
18
30
ENDCHAR
STARTCHAR 013C
ENCODING 316
SWIDTH 495 0
DWIDTH 11 0
BBX 6 19 4 -4
BITMAP
F8
18
10
30
30
30
30
60
60
60
60
40
C0
E4
7C
00
30
60
C0
ENDCHAR
STARTCHAR 013D
ENCODING 317
SWIDTH 495 0
DWIDTH 11 0
BBX 9 14 1 0
BITMAP
1980
1900
1900
1B00
3200
3000
3000
3000
2000
6000
6000
6000
7F00
FF00
ENDCHAR
STARTCHAR 013E
ENCODING 318
SWIDTH 495 0
DWIDTH 11 0
BBX 8 15 4 0
BITMAP
F9
1B
12
32
30
30
30
60
60
60
60
40
C0
E4
7C
ENDCHAR
STARTCHAR 013F
ENCODING 319
SWIDTH 495 0
DWIDTH 11 0
BBX 9 14 1 0
BITMAP
1800
1800
1800
1800
3000
3000
3180
3180
2000
6000
6000
6000
7F00
FF00
ENDCHAR
STARTCHAR 0140
ENCODING 320
SWIDTH 495 0
DWIDTH 11 0
BBX 9 15 4 0
BITMAP
F800
1800
1000
3000
3000
3000
3000
6180
6180
6000
6000
4000
C000
E400
7C00
ENDCHAR
STARTCHAR 0141
ENCODING 321
SWIDTH 495 0
DWIDTH 11 0
BBX 8 14 1 0
BITMAP
0C
18
18
18
18
36
3C
70
F0
20
60
60
7F
7F
ENDCHAR
STARTCHAR 0142
ENCODING 322
SWIDTH 495 0
DWIDTH 11 0
BBX 6 15 4 0
BITMAP
F8
18
10
30
30
38
38
E0
E0
60
60
40
C0
E4
7C
ENDCHAR
STARTCHAR 0143
ENCODING 323
SWIDTH 495 0
DWIDTH 11 0
BBX 12 18 1 0
BITMAP
0040
00C0
0180
0000
1830
1830
1C20
3C60
3460
3660
2640
66C0
62C0
62C0
4380
C380
C380
C180
ENDCHAR
STARTCHAR 0144
ENCODING 324
SWIDTH 495 0
DWIDTH 11 0
BBX 9 15 2 0
BITMAP
0100
0300
0600
0400
0400
3F00
6180
6180
6180
6180
C100
C300
C300
C300
8300
ENDCHAR
STARTCHAR 0145
ENCODING 325
SWIDTH 495 0
DWIDTH 11 0
BBX 12 18 1 -4
BITMAP
1830
1830
1C20
3C60
3460
3660
2640
66C0
62C0
62C0
4380
C380
C380
C180
0000
1800
3800
6000
ENDCHAR
STARTCHAR 0146
ENCODING 326
SWIDTH 495 0
DWIDTH 11 0
BBX 9 15 2 -4
BITMAP
0400
3F00
6180
6180
6180
6180
C100
C300
C300
C300
8300
0000
3000
7000
C000
ENDCHAR
STARTCHAR 0147
ENCODING 327
SWIDTH 495 0
DWIDTH 11 0
BBX 12 18 1 0
BITMAP
0260
03C0
0180
0000
1830
1830
1C20
3C60
3460
3660
2640
66C0
62C0
62C0
4380
C380
C380
C180
ENDCHAR
STARTCHAR 0148
ENCODING 328
SWIDTH 495 0
DWIDTH 11 0
BBX 9 15 2 0
BITMAP
0D80
0700
0600
0000
0400
3F00
6180
6180
6180
6180
C100
C300
C300
C300
8300
ENDCHAR
STARTCHAR 0149
ENCODING 329
SWIDTH 495 0
DWIDTH 11 0
BBX 9 15 2 0
BITMAP
3000
2000
6000
4000
0400
3F00
6180
6180
6180
6180
C100
C300
C300
C300
8300
ENDCHAR
STARTCHAR 014A
ENCODING 330
SWIDTH 495 0
DWIDTH 11 0
BBX 12 18 1 -4
BITMAP
1830
1830
1C20
3C60
3460
3660
2640
62C0
62C0
63C0
4380
C180
C180
C180
0100
0300
0F00
0C00
ENDCHAR
STARTCHAR 014B
ENCODING 331
SWIDTH 495 0
DWIDTH 11 0
BBX 9 15 2 -4
BITMAP
0400
3F00
6180
6180
6180
6180
C100
C300
C300
C300
8300
0600
0600
1C00
3800
ENDCHAR
STARTCHAR 014C
ENCODING 332
SWIDTH 495 0
DWIDTH 11 0
BBX 10 17 2 0
BITMAP
0FC0
0000
0000
0F00
1F80
30C0
60C0
60C0
40C0
C0C0
C0C0
C080
C180
C180
C300
E600
7C00
ENDCHAR
STARTCHAR 014D
ENCODING 333
SWIDTH 495 0
DWIDTH 11 0
BBX 9 14 2 0
BITMAP
0F80
0000
0000
0400
3F00
7180
6180
C180
C180
C180
C180
C300
EE00
7C00
ENDCHAR
STARTCHAR 014E
ENCODING 334
SWIDTH 495 0
DWIDTH 11 0
BBX 10 18 2 0
BITMAP
0440
07C0
0380
0000
0F00
1F80
30C0
60C0
60C0
40C0
C0C0
C0C0
C080
C180
C180
C300
E600
7C00
ENDCHAR
STARTCHAR 014F
ENCODING 335
SWIDTH 495 0
DWIDTH 11 0
BBX 10 15 2 0
BITMAP
08C0
0D80
0700
0000
0400
3F00
7180
6180
C180
C180
C180
C180
C300
EE00
7C00
ENDCHAR
STARTCHAR 0150
ENCODING 336
SWIDTH 495 0
DWIDTH 11 0
BBX 11 18 2 0
BITMAP
0360
06E0
0C80
0000
0F00
1F80
30C0
60C0
60C0
40C0
C0C0
C0C0
C080
C180
C180
C300
E600
7C00
ENDCHAR
STARTCHAR 0151
ENCODING 337
SWIDTH 495 0
DWIDTH 11 0
BBX 10 15 2 0
BITMAP
0640
0CC0
1900
0000
0400
3F00
7180
6180
C180
C180
C180
C180
C300
EE00
7C00
ENDCHAR
STARTCHAR 0152
ENCODING 338
SWIDTH 495 0
DWIDTH 11 0
BBX 12 14 1 0
BITMAP
07F0
1FF0
1980
3180
6100
6300
63C0
43C0
C300
C200
C600
4600
67C0
3F80
ENDCHAR
STARTCHAR 0153
ENCODING 339
SWIDTH 495 0
DWIDTH 11 0
BBX 11 11 1 0
BITMAP
0840
3DE0
3760
6620
6660
C7C0
C780
C600
CE00
DE80
7BC0
ENDCHAR
STARTCHAR 0154
ENCODING 340
SWIDTH 495 0
DWIDTH 11 0
BBX 11 18 1 0
BITMAP
00C0
01C0
0300
0000
1F80
1FC0
1860
3060
3060
30C0
31C0
3F80
7E00
6300
6300
4100
C180
C180
ENDCHAR
STARTCHAR 0155
ENCODING 341
SWIDTH 495 0
DWIDTH 11 0
BBX 9 15 2 0
BITMAP
0180
0380
0600
0000
0300
3F80
3000
3000
2000
6000
6000
6000
4000
C000
C000
ENDCHAR
STARTCHAR 0156
ENCODING 342
SWIDTH 495 0
DWIDTH 11 0
BBX 11 18 1 -4
BITMAP
1F80
1FC0
1860
3060
3060
30C0
31C0
3F80
7E00
6300
6300
4100
C180
C180
0000
1800
3800
6000
ENDCHAR
STARTCHAR 0157
ENCODING 343
SWIDTH 495 0
DWIDTH 11 0
BBX 11 15 0 -4
BITMAP
00C0
0FE0
0C00
0C00
0800
1800
1800
1800
1000
3000
3000
0000
2000
6000
C000
ENDCHAR
STARTCHAR 0158
ENCODING 344
SWIDTH 495 0
DWIDTH 11 0
BBX 11 18 1 0
BITMAP
06C0
0380
0300
0000
1F80
1FC0
1860
3060
3060
30C0
31C0
3F80
7E00
6300
6300
4100
C180
C180
ENDCHAR
STARTCHAR 0159
ENCODING 345
SWIDTH 495 0
DWIDTH 11 0
BBX 10 15 2 0
BITMAP
04C0
0780
0300
0000
0300
3F80
3000
3000
2000
6000
6000
6000
4000
C000
C000
ENDCHAR
STARTCHAR 015A
ENCODING 346
SWIDTH 495 0
DWIDTH 11 0
BBX 10 18 2 0
BITMAP
0180
0380
0600
0000
0FC0
1FC0
3000
3000
3000
3000
1C00
0F00
0300
0300
0100
0300
C700
FC00
ENDCHAR
STARTCHAR 015B
ENCODING 347
SWIDTH 495 0
DWIDTH 11 0
BBX 9 15 2 0
BITMAP
0100
0300
0600
0400
0600
1F80
3000
3000
3000
1C00
0E00
0300
0300
C600
FC00
ENDCHAR
STARTCHAR 015C
ENCODING 348
SWIDTH 495 0
DWIDTH 11 0
BBX 10 18 2 0
BITMAP
0300
0780
0C80
0000
0FC0
1FC0
3000
3000
3000
3000
1C00
0F00
0300
0300
0100
0300
C700
FC00
ENDCHAR
STARTCHAR 015D
ENCODING 349
SWIDTH 495 0
DWIDTH 11 0
BBX 9 15 2 0
BITMAP
0300
0700
0D80
0000
0600
1F80
3000
3000
3000
1C00
0E00
0300
0300
C600
FC00
ENDCHAR
STARTCHAR 015E
ENCODING 350
SWIDTH 495 0
DWIDTH 11 0
BBX 11 18 1 -4
BITMAP
07E0
0FE0
1800
1800
1800
1800
0E00
0780
0180
0180
0080
0180
6380
FE00
1800
1800
1800
7000
ENDCHAR
STARTCHAR 015F
ENCODING 351
SWIDTH 495 0
DWIDTH 11 0
BBX 9 15 2 -4
BITMAP
0600
1F80
3000
3000
3000
1C00
0E00
0300
0300
C600
FC00
3000
3000
3000
6000
ENDCHAR
STARTCHAR 0160
ENCODING 352
SWIDTH 495 0
DWIDTH 11 0
BBX 10 18 2 0
BITMAP
06C0
0380
0300
0000
0FC0
1FC0
3000
3000
3000
3000
1C00
0F00
0300
0300
0100
0300
C700
FC00
ENDCHAR
STARTCHAR 0161
ENCODING 353
SWIDTH 495 0
DWIDTH 11 0
BBX 10 15 2 0
BITMAP
0CC0
0780
0300
0000
0600
1F80
3000
3000
3000
1C00
0E00
0300
0300
C600
FC00
ENDCHAR
STARTCHAR 0162
ENCODING 354
SWIDTH 495 0
DWIDTH 11 0
BBX 11 18 2 -4
BITMAP
3FE0
7FE0
0600
0600
0C00
0C00
0C00
0C00
0800
1800
1800
1800
1000
3000
2000
3000
B000
E000
ENDCHAR
STARTCHAR 0163
ENCODING 355
SWIDTH 495 0
DWIDTH 11 0
BBX 8 17 3 -3
BITMAP
18
10
30
FF
30
20
60
60
60
60
40
66
7C
30
30
30
E0
ENDCHAR
STARTCHAR 0164
ENCODING 356
SWIDTH 495 0
DWIDTH 11 0
BBX 10 18 3 0
BITMAP
0980
0F00
0600
0000
7FC0
FFC0
0C00
0C00
1800
1800
1800
1800
1000
3000
3000
3000
2000
6000
ENDCHAR
STARTCHAR 0165
ENCODING 357
SWIDTH 495 0
DWIDTH 11 0
BBX 9 15 3 0
BITMAP
0180
0100
1B00
1800
1000
FF00
3000
3000
3000
6000
6000
6000
6000
6200
3E00
ENDCHAR
STARTCHAR 0166
ENCODING 358
SWIDTH 495 0
DWIDTH 11 0
BBX 10 14 3 0
BITMAP
7FC0
FFC0
0C00
0C00
1800
1800
7E00
7E00
3000
3000
3000
3000
2000
6000
ENDCHAR
STARTCHAR 0167
ENCODING 359
SWIDTH 495 0
DWIDTH 11 0
BBX 9 13 2 1
BITMAP
0C00
0C00
0800
7F80
1800
1800
1800
FF00
3000
3000
3000
3100
1F00
ENDCHAR
STARTCHAR 0168
ENCODING 360
SWIDTH 495 0
DWIDTH 11 0
BBX 11 18 2 0
BITMAP
0440
0FC0
0980
0000
3060
3040
20C0
60C0
60C0
60C0
4180
C180
C180
C180
C300
C300
E600
7C00
ENDCHAR
STARTCHAR 0169
ENCODING 361
SWIDTH 495 0
DWIDTH 11 0
BBX 9 15 2 0
BITMAP
0080
1F80
1300
0000
0000
6180
6180
6180
4180
C300
C300
C300
C300
CF00
7B00
ENDCHAR
STARTCHAR 016A
ENCODING 362
SWIDTH 495 0
DWIDTH 11 0
BBX 11 17 2 0
BITMAP
0FC0
0000
0000
3060
3040
20C0
60C0
60C0
60C0
4180
C180
C180
C180
C300
C300
E600
7C00
ENDCHAR
STARTCHAR 016B
ENCODING 363
SWIDTH 495 0
DWIDTH 11 0
BBX 9 14 2 0
BITMAP
1F80
0000
0000
0000
6180
6180
6180
4180
C300
C300
C300
C300
CF00
7B00
ENDCHAR
STARTCHAR 016C
ENCODING 364
SWIDTH 495 0
DWIDTH 11 0
BBX 11 18 2 0
BITMAP
0440
0780
0300
0000
3060
3040
20C0
60C0
60C0
60C0
4180
C180
C180
C180
C300
C300
E600
7C00
ENDCHAR
STARTCHAR 016D
ENCODING 365
SWIDTH 495 0
DWIDTH 11 0
BBX 9 15 2 0
BITMAP
0880
0D80
0700
0000
0000
6180
6180
6180
4180
C300
C300
C300
C300
CF00
7B00
ENDCHAR
STARTCHAR 016E
ENCODING 366
SWIDTH 495 0
DWIDTH 11 0
BBX 11 19 2 0
BITMAP
0200
0580
0480
0780
0000
3060
3040
20C0
60C0
60C0
60C0
4180
C180
C180
C180
C300
C300
E600
7C00
ENDCHAR
STARTCHAR 016F
ENCODING 367
SWIDTH 495 0
DWIDTH 11 0
BBX 9 15 2 0
BITMAP
0F00
0900
0D00
0600
0000
6180
6180
6180
4180
C300
C300
C300
C300
CF00
7B00
ENDCHAR
STARTCHAR 0170
ENCODING 368
SWIDTH 495 0
DWIDTH 11 0
BBX 11 18 2 0
BITMAP
0260
06C0
0D80
0000
3060
3040
20C0
60C0
60C0
60C0
4180
C180
C180
C180
C300
C300
E600
7C00
ENDCHAR
STARTCHAR 0171
ENCODING 369
SWIDTH 495 0
DWIDTH 11 0
BBX 10 15 2 0
BITMAP
04C0
0D80
1B00
0000
0000
6180
6180
6180
4180
C300
C300
C300
C300
CF00
7B00
ENDCHAR
STARTCHAR 0172
ENCODING 370
SWIDTH 495 0
DWIDTH 11 0
BBX 11 18 2 -4
BITMAP
3060
3040
20C0
60C0
60C0
60C0
4180
C180
C180
C180
C300
C300
E600
7C00
1800
3000
3800
1800
ENDCHAR
STARTCHAR 0173
ENCODING 371
SWIDTH 495 0
DWIDTH 11 0
BBX 9 14 2 -4
BITMAP
6180
6180
6180
4180
C300
C300
C300
C300
CF00
7B00
0600
0C00
0E00
0600
ENDCHAR
STARTCHAR 0174
ENCODING 372
SWIDTH 495 0
DWIDTH 11 0
BBX 12 18 1 0
BITMAP
0180
03C0
0640
0000
1010
3030
3030
3020
2060
2660
6660
6E40
6AC0
52C0
5280
6280
E380
C300
ENDCHAR
STARTCHAR 0175
ENCODING 373
SWIDTH 495 0
DWIDTH 11 0
BBX 11 15 2 0
BITMAP
0300
0700
0D80
0000
0000
C060
C040
CCC0
CC80
DC80
D580
B500
A700
C600
C600
ENDCHAR
STARTCHAR 0176
ENCODING 374
SWIDTH 495 0
DWIDTH 11 0
BBX 11 18 3 0
BITMAP
0200
0F00
1980
0000
C060
C0C0
4180
6180
6300
6600
2400
3C00
3800
3000
3000
3000
3000
6000
ENDCHAR
STARTCHAR 0177
ENCODING 375
SWIDTH 495 0
DWIDTH 11 0
BBX 12 19 0 -4
BITMAP
0080
03C0
0640
0000
0000
1830
1860
1860
1860
08C0
0CC0
0D80
0D80
0700
0600
0600
0C00
F800
E000
ENDCHAR
STARTCHAR 0178
ENCODING 376
SWIDTH 495 0
DWIDTH 11 0
BBX 11 18 3 0
BITMAP
0980
1980
1900
0000
C060
C0C0
4180
6180
6300
6600
2400
3C00
3800
3000
3000
3000
3000
6000
ENDCHAR
STARTCHAR 0179
ENCODING 377
SWIDTH 495 0
DWIDTH 11 0
BBX 12 18 1 0
BITMAP
0040
00C0
0180
0000
1FF0
1FE0
0060
00C0
0180
0300
0600
0C00
1800
1800
3000
6000
FF80
FF80
ENDCHAR
STARTCHAR 017A
ENCODING 378
SWIDTH 495 0
DWIDTH 11 0
BBX 10 15 1 0
BITMAP
0080
0180
0300
0200
0000
1FC0
0180
0300
0600
0C00
1800
3000
3000
7F00
FF00
ENDCHAR
STARTCHAR 017B
ENCODING 379
SWIDTH 495 0
DWIDTH 11 0
BBX 12 18 1 0
BITMAP
0180
0180
0180
0000
1FF0
1FE0
0060
00C0
0180
0300
0600
0C00
1800
1800
3000
6000
FF80
FF80
ENDCHAR
STARTCHAR 017C
ENCODING 380
SWIDTH 495 0
DWIDTH 11 0
BBX 10 15 1 0
BITMAP
0100
0380
0100
0000
0000
1FC0
0180
0300
0600
0C00
1800
3000
3000
7F00
FF00
ENDCHAR
STARTCHAR 017D
ENCODING 381
SWIDTH 495 0
DWIDTH 11 0
BBX 12 18 1 0
BITMAP
0260
03C0
0180
0000
1FF0
1FE0
0060
00C0
0180
0300
0600
0C00
1800
1800
3000
6000
FF80
FF80
ENDCHAR
STARTCHAR 017E
ENCODING 382
SWIDTH 495 0
DWIDTH 11 0
BBX 10 15 1 0
BITMAP
06C0
0380
0300
0000
0000
1FC0
0180
0300
0600
0C00
1800
3000
3000
7F00
FF00
ENDCHAR
STARTCHAR 017F
ENCODING 383
SWIDTH 495 0
DWIDTH 11 0
BBX 13 19 0 -4
BITMAP
00F8
01C0
0180
0300
0300
0300
0300
0200
0600
0600
0600
0600
0C00
0C00
0C00
0C00
1800
F800
E000
ENDCHAR
STARTCHAR 0180
ENCODING 384
SWIDTH 495 0
DWIDTH 11 0
BBX 9 15 2 0
BITMAP
1800
7F00
7F00
3000
3600
3F80
3180
6080
6080
6180
4180
C180
C300
CE00
FC00
ENDCHAR
STARTCHAR 0181
ENCODING 385
SWIDTH 495 0
DWIDTH 11 0
BBX 10 14 2 0
BITMAP
1F00
7F80
C8C0
D8C0
18C0
1980
1F00
3F00
3180
3180
3180
6180
6700
7E00
ENDCHAR
STARTCHAR 0182
ENCODING 386
SWIDTH 495 0
DWIDTH 11 0
BBX 11 14 1 0
BITMAP
1FE0
1FC0
1800
1000
3000
3C00
3F80
31C0
60C0
60C0
60C0
6180
4780
FE00
ENDCHAR
STARTCHAR 0183
ENCODING 387
SWIDTH 495 0
DWIDTH 11 0
BBX 11 15 1 0
BITMAP
0FE0
0800
1800
1800
1B00
1F80
38C0
30C0
30C0
20C0
60C0
6180
6180
4700
FC00
ENDCHAR
STARTCHAR 0184
ENCODING 388
SWIDTH 495 0
DWIDTH 11 0
BBX 9 15 2 0
BITMAP
3800
3800
1000
3000
3600
3F80
3180
6080
6080
6180
4180
C180
C300
CE00
FC00
ENDCHAR
STARTCHAR 0185
ENCODING 389
SWIDTH 495 0
DWIDTH 11 0
BBX 9 14 2 0
BITMAP
1800
7000
3000
3000
3000
3E00
7F00
6180
6180
4180
C180
C380
CF00
FC00
ENDCHAR
STARTCHAR 0186
ENCODING 390
SWIDTH 495 0
DWIDTH 11 0
BBX 11 14 1 0
BITMAP
0F80
1FC0
00C0
0060
0060
0060
0060
0060
00C0
00C0
0180
0380
4700
FE00
ENDCHAR
STARTCHAR 0187
ENCODING 391
SWIDTH 495 0
DWIDTH 11 0
BBX 12 16 2 0
BITMAP
0030
0070
07C0
1FC0
3800
3000
6000
4000
C000
C000
C000
C000
C000
C000
7200
3E00
ENDCHAR
STARTCHAR 0188
ENCODING 392
SWIDTH 495 0
DWIDTH 11 0
BBX 11 12 2 0
BITMAP
00E0
0780
1F00
7000
6000
C000
C000
C000
C000
C000
E600
7E00
ENDCHAR
STARTCHAR 0189
ENCODING 393
SWIDTH 495 0
DWIDTH 11 0
BBX 11 14 1 0
BITMAP
0F00
1FC0
18C0
1840
1860
1060
7C60
FC40
30C0
20C0
6180
6380
6F00
7C00
ENDCHAR
STARTCHAR 018A
ENCODING 394
SWIDTH 495 0
DWIDTH 11 0
BBX 10 14 2 0
BITMAP
1F00
7F80
C8C0
D8C0
18C0
18C0
18C0
30C0
30C0
3180
3180
6300
6E00
7C00
ENDCHAR
STARTCHAR 018B
ENCODING 395
SWIDTH 495 0
DWIDTH 11 0
BBX 11 14 2 0
BITMAP
1FE0
1FC0
00C0
00C0
00C0
0780
3F80
6180
C180
C100
C300
C300
E300
7E00
ENDCHAR
STARTCHAR 018C
ENCODING 396
SWIDTH 495 0
DWIDTH 11 0
BBX 11 15 2 0
BITMAP
0FE0
0040
00C0
00C0
03C0
1F80
3180
6180
C180
C180
C300
C300
C300
E700
7F00
ENDCHAR
STARTCHAR 018D
ENCODING 397
SWIDTH 495 0
DWIDTH 11 0
BBX 10 15 1 -4
BITMAP
0200
1F80
38C0
30C0
60C0
60C0
60C0
6180
3300
1E00
0E00
0600
0600
FE00
7800
ENDCHAR
STARTCHAR 018E
ENCODING 398
SWIDTH 495 0
DWIDTH 11 0
BBX 11 14 1 0
BITMAP
1FE0
1FE0
0060
0040
00C0
00C0
1FC0
3F80
0180
0180
0180
0180
FF00
FF00
ENDCHAR
STARTCHAR 018F
ENCODING 399
SWIDTH 495 0
DWIDTH 11 0
BBX 10 14 2 0
BITMAP
1F00
3B80
0180
00C0
00C0
00C0
00C0
FFC0
C080
8180
8180
C300
E600
7C00
ENDCHAR
STARTCHAR 0190
ENCODING 400
SWIDTH 495 0
DWIDTH 11 0
BBX 10 14 2 0
BITMAP
07C0
1FC0
3000
3000
3000
3000
1F00
3F00
6000
C000
C000
C000
E300
7F00
ENDCHAR
STARTCHAR 0191
ENCODING 401
SWIDTH 495 0
DWIDTH 11 0
BBX 14 18 -1 -4
BITMAP
03FC
03F8
0600
0600
0600
0400
0FE0
0FE0
0C00
0800
1800
1800
1800
1800
3000
3000
F000
C000
ENDCHAR
STARTCHAR 0192
ENCODING 402
SWIDTH 495 0
DWIDTH 11 0
BBX 13 19 0 -4
BITMAP
00F8
01C0
0180
0300
0300
0FF0
0300
0200
0600
0600
0600
0600
0C00
0C00
0C00
0C00
1800
F800
E000
ENDCHAR
STARTCHAR 0193
ENCODING 403
SWIDTH 495 0
DWIDTH 11 0
BBX 12 16 2 0
BITMAP
0030
0070
0FC0
1F80
3000
6000
6000
C000
C000
C180
C180
C180
C300
C300
6300
7F00
ENDCHAR
STARTCHAR 0194
ENCODING 404
SWIDTH 495 0
DWIDTH 11 0
BBX 12 18 2 -4
BITMAP
6030
6060
60C0
20C0
3180
3100
3300
1600
1400
1C00
1800
3800
3C00
6C00
4C00
CC00
7800
3000
ENDCHAR
STARTCHAR 0195
ENCODING 405
SWIDTH 495 0
DWIDTH 11 0
BBX 11 15 1 0
BITMAP
1800
1800
1000
3000
3400
3E60
2660
6660
6640
64C0
4CC0
CCC0
CC80
CD80
8F00
ENDCHAR
STARTCHAR 0196
ENCODING 406
SWIDTH 495 0
DWIDTH 11 0
BBX 8 14 4 0
BITMAP
7F
FE
10
30
30
30
20
60
60
60
40
C0
64
7C
ENDCHAR
STARTCHAR 0197
ENCODING 407
SWIDTH 495 0
DWIDTH 11 0
BBX 10 14 2 0
BITMAP
1FC0
1FC0
0600
0600
0400
0C00
3F00
3F00
0800
1800
1800
1800
FE00
FE00
ENDCHAR
STARTCHAR 0198
ENCODING 408
SWIDTH 495 0
DWIDTH 11 0
BBX 12 14 1 0
BITMAP
1870
18F0
1980
1300
3700
3E00
3C00
2C00
6E00
6600
6300
4300
C180
C180
ENDCHAR
STARTCHAR 0199
ENCODING 409
SWIDTH 495 0
DWIDTH 11 0
BBX 10 15 2 0
BITMAP
1E00
1800
3000
3000
3000
21C0
6300
6E00
7C00
7800
D800
CC00
C600
C600
8300
ENDCHAR
STARTCHAR 019A
ENCODING 410
SWIDTH 495 0
DWIDTH 11 0
BBX 8 15 2 0
BITMAP
3E
06
04
0C
0C
0C
7F
FF
18
18
18
10
30
39
1F
ENDCHAR
STARTCHAR 019B
ENCODING 411
SWIDTH 495 0
DWIDTH 11 0
BBX 10 15 1 0
BITMAP
1E00
06C0
0780
0F00
0300
0700
0700
0D00
1900
1180
3180
6180
6180
C180
C180
ENDCHAR
STARTCHAR 019C
ENCODING 412
SWIDTH 495 0
DWIDTH 11 0
BBX 12 14 1 0
BITMAP
1030
1030
3020
3060
3060
2660
6640
64C0
64C0
4CC0
CC80
CC80
CD80
7F80
ENDCHAR
STARTCHAR 019D
ENCODING 413
SWIDTH 495 0
DWIDTH 11 0
BBX 15 18 -2 -4
BITMAP
0306
0306
0384
078C
068C
06CC
04C8
0C58
0C58
0C78
0870
0870
1830
1830
1000
3000
F000
C000
ENDCHAR
STARTCHAR 019E
ENCODING 414
SWIDTH 495 0
DWIDTH 11 0
BBX 9 15 2 -4
BITMAP
0400
3F00
6180
6180
6180
6180
C100
C300
C300
C300
8300
0600
0600
0600
0600
ENDCHAR
STARTCHAR 019F
ENCODING 415
SWIDTH 495 0
DWIDTH 11 0
BBX 10 14 2 0
BITMAP
0F00
1F80
30C0
60C0
60C0
C0C0
FFC0
FFC0
C180
C180
C100
C300
E600
7C00
ENDCHAR
STARTCHAR 01A0
ENCODING 416
SWIDTH 495 0
DWIDTH 11 0
BBX 12 16 2 0
BITMAP
0030
0020
0F60
1FC0
3180
60C0
60C0
C0C0
C080
C180
C180
C180
C300
C300
EE00
7C00
ENDCHAR
STARTCHAR 01A1
ENCODING 417
SWIDTH 495 0
DWIDTH 11 0
BBX 11 12 2 0
BITMAP
0060
0460
3FC0
7380
6180
C180
C180
C100
C300
C300
EE00
7C00
ENDCHAR
STARTCHAR 01A2
ENCODING 418
SWIDTH 495 0
DWIDTH 11 0
BBX 11 14 1 0
BITMAP
0EE0
1FE0
3320
2320
6360
6360
6360
4240
C6C0
C6C0
C6C0
CC80
D980
7180
ENDCHAR
STARTCHAR 01A3
ENCODING 419
SWIDTH 495 0
DWIDTH 11 0
BBX 10 15 1 -4
BITMAP
0880
3FC0
6640
6640
46C0
C6C0
C4C0
CCC0
CC80
D980
7180
0180
0100
0300
0300
ENDCHAR
STARTCHAR 01A4
ENCODING 420
SWIDTH 495 0
DWIDTH 11 0
BBX 10 14 2 0
BITMAP
1F00
7FC0
C8C0
D8C0
18C0
18C0
1180
3F80
3E00
3000
3000
6000
6000
6000
ENDCHAR
STARTCHAR 01A5
ENCODING 421
SWIDTH 495 0
DWIDTH 11 0
BBX 11 19 0 -4
BITMAP
0780
0600
0C00
0C00
0D00
0FC0
1860
1860
1860
1060
3060
30E0
30C0
3380
7F00
6000
6000
4000
C000
ENDCHAR
STARTCHAR 01A6
ENCODING 422
SWIDTH 495 0
DWIDTH 11 0
BBX 11 17 1 -2
BITMAP
1800
1F80
1FC0
1860
1060
3060
30C0
31C0
3F80
7E00
6300
6300
4100
C180
C180
0180
00C0
ENDCHAR
STARTCHAR 01A7
ENCODING 423
SWIDTH 495 0
DWIDTH 11 0
BBX 10 14 2 0
BITMAP
1F80
1FC0
00C0
00C0
00C0
0380
0F00
3C00
6000
C000
C000
C000
E300
7F00
ENDCHAR
STARTCHAR 01A8
ENCODING 424
SWIDTH 495 0
DWIDTH 11 0
BBX 9 11 2 0
BITMAP
0C00
3F00
0180
0180
0300
1E00
7800
C000
C000
C200
7E00
ENDCHAR
STARTCHAR 01A9
ENCODING 425
SWIDTH 495 0
DWIDTH 11 0
BBX 12 14 1 0
BITMAP
1FF0
1FF0
1800
0C00
0C00
0600
0600
0600
0C00
1800
3000
6000
FF80
FF80
ENDCHAR
STARTCHAR 01AA
ENCODING 426
SWIDTH 495 0
DWIDTH 11 0
BBX 6 19 4 -4
BITMAP
78
CC
8C
9C
F8
18
18
18
10
30
30
30
20
60
60
60
60
78
18
ENDCHAR
STARTCHAR 01AB
ENCODING 427
SWIDTH 495 0
DWIDTH 11 0
BBX 9 17 3 -3
BITMAP
1800
1000
3000
FF80
3000
2000
6000
6000
6000
6000
4000
6200
7E00
0600
0400
3C00
3800
ENDCHAR
STARTCHAR 01AC
ENCODING 428
SWIDTH 495 0
DWIDTH 11 0
BBX 10 14 3 0
BITMAP
3FC0
7FC0
CC00
8C00
0C00
0800
1800
1800
1800
1000
3000
3000
3000
3000
ENDCHAR
STARTCHAR 01AD
ENCODING 429
SWIDTH 495 0
DWIDTH 11 0
BBX 10 15 3 0
BITMAP
0FC0
1C00
1800
1000
3000
FF00
3000
2000
6000
6000
6000
6000
4000
6600
7C00
ENDCHAR
STARTCHAR 01AE
ENCODING 430
SWIDTH 495 0
DWIDTH 11 0
BBX 10 18 3 -4
BITMAP
7FC0
FFC0
0C00
0C00
1800
1800
1800
1800
1000
3000
3000
3000
2000
6000
6000
6000
7800
3800
ENDCHAR
STARTCHAR 01AF
ENCODING 431
SWIDTH 495 0
DWIDTH 11 0
BBX 14 16 1 0
BITMAP
000C
0008
1078
3060
3040
30C0
20C0
60C0
6080
6180
6180
C180
C100
C300
6700
7E00
ENDCHAR
STARTCHAR 01B0
ENCODING 432
SWIDTH 495 0
DWIDTH 11 0
BBX 11 12 2 0
BITMAP
0060
0060
61C0
6100
4300
C300
C300
C200
8600
C600
CE00
FA00
ENDCHAR
STARTCHAR 01B1
ENCODING 433
SWIDTH 495 0
DWIDTH 11 0
BBX 13 14 1 0
BITMAP
3EF8
3CF0
18C0
1860
3060
2060
6060
6060
6040
C0C0
C0C0
6180
7300
3E00
ENDCHAR
STARTCHAR 01B2
ENCODING 434
SWIDTH 495 0
DWIDTH 11 0
BBX 10 14 2 0
BITMAP
3300
2780
60C0
60C0
60C0
40C0
C0C0
C080
C180
C180
8300
8300
CE00
FC00
ENDCHAR
STARTCHAR 01B3
ENCODING 435
SWIDTH 495 0
DWIDTH 11 0
BBX 11 14 3 0
BITMAP
C0E0
C1E0
C300
C200
4600
6C00
6800
3800
3000
3000
2000
6000
6000
6000
ENDCHAR
STARTCHAR 01B4
ENCODING 436
SWIDTH 495 0
DWIDTH 11 0
BBX 13 15 0 -4
BITMAP
0010
1878
1840
18C0
18C0
1980
1980
1B00
0B00
0E00
0E00
0C00
1800
F000
E000
ENDCHAR
STARTCHAR 01B5
ENCODING 437
SWIDTH 495 0
DWIDTH 11 0
BBX 12 14 1 0
BITMAP
1FF0
1FE0
0060
00C0
0180
0300
3FC0
3FC0
1800
1800
3000
6000
FF80
FF80
ENDCHAR
STARTCHAR 01B6
ENCODING 438
SWIDTH 495 0
DWIDTH 11 0
BBX 10 10 1 0
BITMAP
1FC0
0180
0300
0600
3F80
1800
3000
3000
7F00
FF00
ENDCHAR
STARTCHAR 01B7
ENCODING 439
SWIDTH 495 0
DWIDTH 11 0
BBX 12 14 1 0
BITMAP
1FF0
1FE0
00C0
0180
0300
0600
0F00
0380
00C0
00C0
00C0
0180
C380
FE00
ENDCHAR
STARTCHAR 01B8
ENCODING 440
SWIDTH 495 0
DWIDTH 11 0
BBX 11 14 2 0
BITMAP
1FE0
1FE0
1800
0800
0C00
0600
1E00
7800
6000
C000
C000
C000
E100
7F00
ENDCHAR
STARTCHAR 01B9
ENCODING 441
SWIDTH 495 0
DWIDTH 11 0
BBX 10 14 2 -4
BITMAP
3FC0
1000
1800
0800
0C00
0E00
3E00
E000
C000
8000
8000
C000
FE00
3C00
ENDCHAR
STARTCHAR 01BA
ENCODING 442
SWIDTH 495 0
DWIDTH 11 0
BBX 10 14 1 -4
BITMAP
1FC0
0080
0300
0600
0C00
0F00
0180
0180
0380
0F00
7C00
C000
8000
8000
ENDCHAR
STARTCHAR 01BB
ENCODING 443
SWIDTH 495 0
DWIDTH 11 0
BBX 10 14 1 0
BITMAP
0F80
1DC0
1040
0040
00C0
00C0
0180
3FC0
0E00
1800
3000
6000
7F80
FF80
ENDCHAR
STARTCHAR 01BC
ENCODING 444
SWIDTH 495 0
DWIDTH 11 0
BBX 11 14 1 0
BITMAP
1FE0
1FE0
0C00
0C00
0800
1800
1F00
0180
00C0
00C0
00C0
0180
4780
FE00
ENDCHAR
STARTCHAR 01BD
ENCODING 445
SWIDTH 495 0
DWIDTH 11 0
BBX 9 10 2 0
BITMAP
3F80
1000
3000
3000
3E00
0300
0300
0300
8700
FC00
ENDCHAR
STARTCHAR 01BE
ENCODING 446
SWIDTH 495 0
DWIDTH 11 0
BBX 9 13 2 1
BITMAP
0C00
0800
1800
7F80
1800
1800
1800
1E00
0700
0100
0100
C700
FE00
ENDCHAR
STARTCHAR 01BF
ENCODING 447
SWIDTH 495 0
DWIDTH 11 0
BBX 11 15 0 -4
BITMAP
0100
0FC0
1860
1860
1860
1060
3060
30C0
31C0
2380
7E00
7800
6000
4000
C000
ENDCHAR
STARTCHAR 01C0
ENCODING 448
SWIDTH 495 0
DWIDTH 11 0
BBX 7 20 3 -4
BITMAP
06
06
04
0C
0C
0C
08
18
18
18
10
30
30
30
20
60
60
60
40
C0
ENDCHAR
STARTCHAR 01C1
ENCODING 449
SWIDTH 495 0
DWIDTH 11 0
BBX 11 20 1 -4
BITMAP
0660
0440
04C0
0CC0
0CC0
0C80
0880
1980
1980
1980
1100
3300
3300
3300
2200
6600
6600
6600
4400
CC00
ENDCHAR
STARTCHAR 01C2
ENCODING 450
SWIDTH 495 0
DWIDTH 11 0
BBX 11 20 1 -4
BITMAP
0180
0100
0100
0300
0300
0200
0200
7FE0
7FE0
0600
0400
FFC0
FFC0
0C00
0800
1800
1800
1800
1000
3000
ENDCHAR
STARTCHAR 01C3
ENCODING 451
SWIDTH 495 0
DWIDTH 11 0
BBX 5 14 4 0
BITMAP
18
18
18
30
30
30
30
20
20
00
00
40
E0
E0
ENDCHAR
STARTCHAR 01C4
ENCODING 452
SWIDTH 495 0
DWIDTH 11 0
BBX 14 18 1 0
BITMAP
0044
0028
0030
0000
1C78
3E70
3630
3620
2660
6640
66C0
6480
4580
4D80
C900
DB00
B3C0
E7C0
ENDCHAR
STARTCHAR 01C5
ENCODING 453
SWIDTH 495 0
DWIDTH 11 0
BBX 13 14 1 0
BITMAP
1C58
3E20
3600
2600
26F0
6630
6660
6440
4CC0
CC80
C980
D900
B3C0
E3C0
ENDCHAR
STARTCHAR 01C6
ENCODING 454
SWIDTH 495 0
DWIDTH 11 0
BBX 14 15 0 0
BITMAP
0180
01B4
0118
0100
0700
1F78
3218
6230
6620
6660
4440
C4C0
CC80
4DE0
7DE0
ENDCHAR
STARTCHAR 01C7
ENCODING 455
SWIDTH 495 0
DWIDTH 11 0
BBX 13 14 0 0
BITMAP
0818
1818
1818
1810
1030
3030
3030
3030
2060
6060
6060
6060
7BC0
FB80
ENDCHAR
STARTCHAR 01C8
ENCODING 456
SWIDTH 495 0
DWIDTH 11 0
BBX 12 19 1 -4
BITMAP
0030
1870
3030
3000
3000
3060
6040
60C0
60C0
60C0
4080
C180
C180
F980
F980
0300
0300
1E00
1C00
ENDCHAR
STARTCHAR 01C9
ENCODING 457
SWIDTH 495 0
DWIDTH 11 0
BBX 9 19 2 -4
BITMAP
1180
3180
3180
3000
2000
6300
6300
6300
4200
C600
C600
C600
C400
EC00
4C00
0C00
1800
7800
E000
ENDCHAR
STARTCHAR 01CA
ENCODING 458
SWIDTH 495 0
DWIDTH 11 0
BBX 13 14 0 0
BITMAP
0988
1998
1918
1910
1B10
3B30
2A30
2A30
2A20
6E60
4C60
4C60
4DC0
CD80
ENDCHAR
STARTCHAR 01CB
ENCODING 459
SWIDTH 495 0
DWIDTH 11 0
BBX 12 19 1 -4
BITMAP
0030
1130
3330
3300
3200
3260
3660
7660
5440
5C40
5CC0
DCC0
9880
9880
9980
0180
0300
0F00
0C00
ENDCHAR
STARTCHAR 01CC
ENCODING 460
SWIDTH 495 0
DWIDTH 11 0
BBX 12 19 1 -4
BITMAP
0030
0030
0030
0000
0800
3E60
2660
6660
6640
6640
44C0
CCC0
CC80
CC80
8980
0180
0300
0F00
0C00
ENDCHAR
STARTCHAR 01CD
ENCODING 461
SWIDTH 495 0
DWIDTH 11 0
BBX 12 18 0 0
BITMAP
0330
01E0
0080
0000
0180
03C0
03C0
06C0
04C0
0CC0
08C0
18C0
10C0
3FC0
6040
6040
C040
C040
ENDCHAR
STARTCHAR 01CE
ENCODING 462
SWIDTH 495 0
DWIDTH 11 0
BBX 10 15 2 0
BITMAP
0CC0
0780
0200
0000
0200
1F80
3180
6180
C180
C100
8300
8300
C300
C700
7B00
ENDCHAR
STARTCHAR 01CF
ENCODING 463
SWIDTH 495 0
DWIDTH 11 0
BBX 10 18 2 0
BITMAP
04C0
0780
0200
0000
1FC0
1FC0
0600
0600
0400
0C00
0C00
0C00
0800
1800
1800
1800
FE00
FE00
ENDCHAR
STARTCHAR 01D0
ENCODING 464
SWIDTH 495 0
DWIDTH 11 0
BBX 7 15 3 0
BITMAP
32
1C
08
00
00
F8
18
10
30
30
30
30
30
3C
1C
ENDCHAR
STARTCHAR 01D1
ENCODING 465
SWIDTH 495 0
DWIDTH 11 0
BBX 10 18 2 0
BITMAP
04C0
0780
0300
0000
0F00
1F80
30C0
60C0
60C0
40C0
C0C0
C0C0
C080
C180
C180
C300
E600
7C00
ENDCHAR
STARTCHAR 01D2
ENCODING 466
SWIDTH 495 0
DWIDTH 11 0
BBX 9 15 2 0
BITMAP
0D80
0700
0600
0000
0400
3F00
7180
6180
C180
C180
C180
C180
C300
EE00
7C00
ENDCHAR
STARTCHAR 01D3
ENCODING 467
SWIDTH 495 0
DWIDTH 11 0
BBX 11 18 2 0
BITMAP
04C0
0780
0300
0000
3060
3040
20C0
60C0
60C0
60C0
4180
C180
C180
C180
C300
C300
E600
7C00
ENDCHAR
STARTCHAR 01D4
ENCODING 468
SWIDTH 495 0
DWIDTH 11 0
BBX 9 15 2 0
BITMAP
0980
0F00
0600
0000
0000
6180
6180
6180
4180
C300
C300
C300
C300
CF00
7B00
ENDCHAR
STARTCHAR 01D5
ENCODING 469
SWIDTH 495 0
DWIDTH 11 0
BBX 10 18 2 0
BITMAP
07C0
0880
0CC0
0880
0000
3040
20C0
60C0
60C0
60C0
4180
C180
C180
C180
C300
C300
E600
7C00
ENDCHAR
STARTCHAR 01D6
ENCODING 470
SWIDTH 495 0
DWIDTH 11 0
BBX 9 16 2 0
BITMAP
0F80
0000
1980
1980
0000
0000
6180
6180
6180
4180
C300
C300
C300
C300
CF00
7B00
ENDCHAR
STARTCHAR 01D7
ENCODING 471
SWIDTH 495 0
DWIDTH 11 0
BBX 11 18 2 0
BITMAP
0100
1B40
1AC0
0000
3060
3040
20C0
60C0
60C0
60C0
4180
C180
C180
C180
C300
C300
E600
7C00
ENDCHAR
STARTCHAR 01D8
ENCODING 472
SWIDTH 495 0
DWIDTH 11 0
BBX 9 17 2 0
BITMAP
0100
0300
0200
1980
1980
0000
0000
6180
6180
6180
4180
C300
C300
C300
C300
CF00
7B00
ENDCHAR
STARTCHAR 01D9
ENCODING 473
SWIDTH 495 0
DWIDTH 11 0
BBX 11 18 2 0
BITMAP
0780
1A40
18C0
0000
3060
3040
20C0
60C0
60C0
60C0
4180
C180
C180
C180
C300
C300
E600
7C00
ENDCHAR
STARTCHAR 01DA
ENCODING 474
SWIDTH 495 0
DWIDTH 11 0
BBX 9 16 2 1
BITMAP
0D80
0600
1980
1980
0000
0000
6180
6180
6180
4180
C300
C300
C300
C300
CF00
7B00
ENDCHAR
STARTCHAR 01DB
ENCODING 475
SWIDTH 495 0
DWIDTH 11 0
BBX 11 18 2 0
BITMAP
0600
1A40
18C0
0000
3060
3040
20C0
60C0
60C0
60C0
4180
C180
C180
C180
C300
C300
E600
7C00
ENDCHAR
STARTCHAR 01DC
ENCODING 476
SWIDTH 495 0
DWIDTH 11 0
BBX 9 17 2 0
BITMAP
0400
0C00
0600
1980
1980
0000
0000
6180
6180
6180
4180
C300
C300
C300
C300
CF00
7B00
ENDCHAR
STARTCHAR 01DD
ENCODING 477
SWIDTH 495 0
DWIDTH 11 0
BBX 9 11 2 0
BITMAP
0C00
7F00
4180
0180
0080
3F80
7180
C180
C300
C600
7C00
ENDCHAR
STARTCHAR 01DE
ENCODING 478
SWIDTH 495 0
DWIDTH 11 0
BBX 12 18 0 0
BITMAP
01F0
0220
0730
0220
0000
0180
03C0
06C0
06C0
0CC0
08C0
18C0
10C0
3FC0
2040
6040
C040
C040
ENDCHAR
STARTCHAR 01DF
ENCODING 479
SWIDTH 495 0
DWIDTH 11 0
BBX 10 16 2 0
BITMAP
07C0
0000
0880
1980
0000
0200
1F80
3180
6180
C180
C100
8300
8300
C300
C700
7B00
ENDCHAR
STARTCHAR 01E0
ENCODING 480
SWIDTH 495 0
DWIDTH 11 0
BBX 12 18 0 0
BITMAP
01F0
0080
00C0
0080
0000
0180
03C0
06C0
06C0
0CC0
08C0
18C0
10C0
3FC0
2040
6040
C040
C040
ENDCHAR
STARTCHAR 01E1
ENCODING 481
SWIDTH 495 0
DWIDTH 11 0
BBX 10 16 2 0
BITMAP
07C0
0000
0200
0700
0000
0200
1F80
3180
6180
C180
C100
8300
8300
C300
C700
7B00
ENDCHAR
STARTCHAR 01E2
ENCODING 482
SWIDTH 495 0
DWIDTH 11 0
BBX 14 17 0 0
BITMAP
00FC
0000
0000
00F8
01F8
03C0
02C0
0680
0480
0DE0
09E0
1980
3F00
3300
6300
63E0
C3C0
ENDCHAR
STARTCHAR 01E3
ENCODING 483
SWIDTH 495 0
DWIDTH 11 0
BBX 11 14 1 0
BITMAP
07C0
0000
0000
1040
3DE0
0F60
0660
0660
3FC0
6700
CC00
CC00
DE80
F780
ENDCHAR
STARTCHAR 01E4
ENCODING 484
SWIDTH 495 0
DWIDTH 11 0
BBX 10 14 2 0
BITMAP
0F80
1FC0
3000
6000
6000
C000
C000
C180
C100
C780
C300
C300
E600
7E00
ENDCHAR
STARTCHAR 01E5
ENCODING 485
SWIDTH 495 0
DWIDTH 11 0
BBX 11 15 1 -4
BITMAP
0100
0FC0
18C0
30C0
60C0
67E0
6180
6180
6380
7F00
1B00
0300
0600
FC00
7800
ENDCHAR
STARTCHAR 01E6
ENCODING 486
SWIDTH 495 0
DWIDTH 11 0
BBX 11 18 2 0
BITMAP
0660
0380
0100
0000
07C0
1FC0
3000
6000
6000
C000
C000
C180
C180
C180
C300
C300
6300
7F00
ENDCHAR
STARTCHAR 01E7
ENCODING 487
SWIDTH 495 0
DWIDTH 11 0
BBX 11 19 1 -4
BITMAP
0360
01C0
0180
0000
0180
0FE0
1C40
30C0
20C0
60C0
6080
6180
6180
3F80
1900
0300
0700
FE00
7800
ENDCHAR
STARTCHAR 01E8
ENCODING 488
SWIDTH 495 0
DWIDTH 11 0
BBX 12 18 1 0
BITMAP
0660
0380
0100
0000
1830
1860
18C0
1180
3300
3600
3C00
2C00
6E00
6600
6300
4300
C180
C180
ENDCHAR
STARTCHAR 01E9
ENCODING 489
SWIDTH 495 0
DWIDTH 11 0
BBX 10 18 2 0
BITMAP
1B00
0C00
0000
1800
1000
3000
3000
3000
31C0
6300
6E00
7C00
7800
D800
CC00
C600
C600
8300
ENDCHAR
STARTCHAR 01EA
ENCODING 490
SWIDTH 495 0
DWIDTH 11 0
BBX 10 18 2 -4
BITMAP
0F00
1F80
30C0
60C0
60C0
C0C0
C0C0
C0C0
C180
C180
C100
C300
E600
7C00
3000
2000
7000
3000
ENDCHAR
STARTCHAR 01EB
ENCODING 491
SWIDTH 495 0
DWIDTH 11 0
BBX 9 15 2 -4
BITMAP
0600
3F00
7180
6180
C180
C180
C180
C180
C300
EE00
7C00
1000
2000
7800
3800
ENDCHAR
STARTCHAR 01EC
ENCODING 492
SWIDTH 495 0
DWIDTH 11 0
BBX 10 21 2 -4
BITMAP
0FC0
0000
0000
0F00
1F80
30C0
60C0
60C0
C0C0
C0C0
C0C0
C180
C180
C100
C300
E600
7C00
3000
2000
7000
3000
ENDCHAR
STARTCHAR 01ED
ENCODING 493
SWIDTH 495 0
DWIDTH 11 0
BBX 9 18 2 -4
BITMAP
0F80
0000
0000
0600
3F00
7180
6180
C180
C180
C180
C180
C300
EE00
7C00
1000
2000
7800
3800
ENDCHAR
STARTCHAR 01EE
ENCODING 494
SWIDTH 495 0
DWIDTH 11 0
BBX 12 18 1 0
BITMAP
0260
03C0
0180
0000
1FF0
1FE0
00C0
0180
0300
0600
0F00
0380
00C0
00C0
00C0
0180
C380
FE00
ENDCHAR
STARTCHAR 01EF
ENCODING 495
SWIDTH 495 0
DWIDTH 11 0
BBX 10 19 1 -4
BITMAP
06C0
0380
0300
0000
0000
1FC0
0080
0100
0200
0400
1800
1F00
0300
0100
0100
0300
0700
FE00
7800
ENDCHAR
STARTCHAR 01F0
ENCODING 496
SWIDTH 495 0
DWIDTH 11 0
BBX 11 19 1 -4
BITMAP
0260
03C0
0180
0000
0000
1F80
0180
0180
0180
0100
0300
0300
0300
0200
0600
0600
0600
FC00
7000
ENDCHAR
STARTCHAR 01F1
ENCODING 497
SWIDTH 495 0
DWIDTH 11 0
BBX 13 14 1 0
BITMAP
1C78
3E70
3630
3620
2660
6640
66C0
6480
4580
4D80
C900
DB00
B3C0
E7C0
ENDCHAR
STARTCHAR 01F2
ENCODING 498
SWIDTH 495 0
DWIDTH 11 0
BBX 12 14 1 0
BITMAP
1C00
3E00
3600
2600
26F0
6630
6660
6440
4CC0
CC80
C980
D900
B3C0
E3C0
ENDCHAR
STARTCHAR 01F3
ENCODING 499
SWIDTH 495 0
DWIDTH 11 0
BBX 13 15 0 0
BITMAP
0180
0180
0100
0100
0700
1F78
3218
6230
6620
6660
4440
C4C0
CC80
4DE0
7DE0
ENDCHAR
STARTCHAR 01F4
ENCODING 500
SWIDTH 495 0
DWIDTH 11 0
BBX 10 18 2 0
BITMAP
0180
0380
0600
0000
07C0
1FC0
3000
6000
6000
C000
C000
C180
C180
C180
C300
C300
6300
7F00
ENDCHAR
STARTCHAR 01F5
ENCODING 501
SWIDTH 495 0
DWIDTH 11 0
BBX 11 19 1 -4
BITMAP
00C0
01C0
0300
0000
0180
0FE0
1C40
30C0
20C0
60C0
6080
6180
6180
3F80
1900
0300
0700
FE00
7800
ENDCHAR
STARTCHAR 01F6
ENCODING 502
SWIDTH 495 0
DWIDTH 11 0
BBX 11 14 1 0
BITMAP
1100
3300
3300
3300
2260
6660
7E60
7E60
4440
CCC0
CCC0
CC80
8D80
8F00
ENDCHAR
STARTCHAR 01F7
ENCODING 503
SWIDTH 495 0
DWIDTH 11 0
BBX 12 18 0 -4
BITMAP
03C0
0FF0
0C30
0C30
0830
1830
1830
1860
1060
30C0
3180
3700
3E00
7800
6000
6000
4000
C000
ENDCHAR
STARTCHAR 01F8
ENCODING 504
SWIDTH 495 0
DWIDTH 11 0
BBX 12 18 1 0
BITMAP
0600
0300
0180
0000
1830
1830
1C20
3C60
3460
3660
2640
66C0
62C0
62C0
4380
C380
C380
C180
ENDCHAR
STARTCHAR 01F9
ENCODING 505
SWIDTH 495 0
DWIDTH 11 0
BBX 9 15 2 0
BITMAP
0C00
0600
0200
0000
0400
3F00
6180
6180
6180
6180
C100
C300
C300
C300
8300
ENDCHAR
STARTCHAR 01FA
ENCODING 506
SWIDTH 495 0
DWIDTH 11 0
BBX 11 18 0 0
BITMAP
00E0
0180
0080
0140
0140
01C0
03C0
02C0
06C0
0CC0
08C0
18C0
1040
3FC0
2040
6040
4040
C040
ENDCHAR
STARTCHAR 01FB
ENCODING 507
SWIDTH 495 0
DWIDTH 11 0
BBX 9 18 2 0
BITMAP
0080
0380
0000
0700
0480
0580
0200
0200
1F80
3180
6180
C180
C100
8300
8300
C300
C700
7B00
ENDCHAR
STARTCHAR 01FC
ENCODING 508
SWIDTH 495 0
DWIDTH 11 0
BBX 13 18 0 0
BITMAP
0018
0030
0060
0000
00F8
01F8
03C0
02C0
0680
0480
0DE0
09E0
1980
3F00
3300
6300
63E0
C3C0
ENDCHAR
STARTCHAR 01FD
ENCODING 509
SWIDTH 495 0
DWIDTH 11 0
BBX 11 15 1 0
BITMAP
0080
0180
0300
0200
1040
3DE0
0F60
0660
0660
3FC0
6700
CC00
CC00
DE80
F780
ENDCHAR
STARTCHAR 01FE
ENCODING 510
SWIDTH 495 0
DWIDTH 11 0
BBX 11 18 1 -1
BITMAP
0180
0380
0600
0000
07A0
0FE0
18E0
31E0
3160
6360
6660
6440
4CC0
58C0
7080
6180
6300
FE00
ENDCHAR
STARTCHAR 01FF
ENCODING 511
SWIDTH 495 0
DWIDTH 11 0
BBX 11 16 1 -1
BITMAP
0180
0380
0600
0000
0220
1FE0
38C0
31C0
63C0
66C0
6CC0
78C0
7180
7700
FE00
8000
ENDCHAR
STARTCHAR 0200
ENCODING 512
SWIDTH 495 0
DWIDTH 11 0
BBX 11 18 0 0
BITMAP
06C0
0260
0320
0000
0180
03C0
03C0
06C0
04C0
0CC0
08C0
18C0
10C0
3FC0
6040
6040
C040
C040
ENDCHAR
STARTCHAR 0201
ENCODING 513
SWIDTH 495 0
DWIDTH 11 0
BBX 9 15 2 0
BITMAP
1300
1B00
0980
0000
0200
1F80
3180
6180
C180
C100
8300
8300
C300
C700
7B00
ENDCHAR
STARTCHAR 0202
ENCODING 514
SWIDTH 495 0
DWIDTH 11 0
BBX 11 18 0 0
BITMAP
01E0
0320
0220
0000
0180
03C0
03C0
06C0
04C0
0CC0
08C0
18C0
10C0
3FC0
6040
6040
C040
C040
ENDCHAR
STARTCHAR 0203
ENCODING 515
SWIDTH 495 0
DWIDTH 11 0
BBX 9 15 2 0
BITMAP
0700
0D80
0880
0000
0200
1F80
3180
6180
C180
C100
8300
8300
C300
C700
7B00
ENDCHAR
STARTCHAR 0204
ENCODING 516
SWIDTH 495 0
DWIDTH 11 0
BBX 11 18 2 0
BITMAP
1900
0D80
04C0
0000
1FE0
1FC0
3000
3000
3000
2000
7F00
7F00
6000
4000
C000
C000
FF00
FF00
ENDCHAR
STARTCHAR 0205
ENCODING 517
SWIDTH 495 0
DWIDTH 11 0
BBX 9 15 2 0
BITMAP
1300
1B00
0980
0000
0600
3F80
7180
6180
C180
CF00
FC00
8000
C000
E300
7F00
ENDCHAR
STARTCHAR 0206
ENCODING 518
SWIDTH 495 0
DWIDTH 11 0
BBX 11 18 2 0
BITMAP
0380
04C0
0440
0000
1FE0
1FC0
3000
3000
3000
2000
7F00
7F00
6000
4000
C000
C000
FF00
FF00
ENDCHAR
STARTCHAR 0207
ENCODING 519
SWIDTH 495 0
DWIDTH 11 0
BBX 9 15 2 0
BITMAP
0700
0D80
0880
0000
0600
3F80
7180
6180
C180
CF00
FC00
8000
C000
E300
7F00
ENDCHAR
STARTCHAR 0208
ENCODING 520
SWIDTH 495 0
DWIDTH 11 0
BBX 10 18 2 0
BITMAP
1B00
0980
0C80
0000
1FC0
1FC0
0600
0600
0400
0C00
0C00
0C00
0800
1800
1800
1800
FE00
FE00
ENDCHAR
STARTCHAR 0209
ENCODING 521
SWIDTH 495 0
DWIDTH 11 0
BBX 7 15 3 0
BITMAP
6C
64
36
02
00
F8
18
10
30
30
30
30
30
3C
1C
ENDCHAR
STARTCHAR 020A
ENCODING 522
SWIDTH 495 0
DWIDTH 11 0
BBX 10 18 2 0
BITMAP
0780
0C80
0880
0000
1FC0
1FC0
0600
0600
0400
0C00
0C00
0C00
0800
1800
1800
1800
FE00
FE00
ENDCHAR
STARTCHAR 020B
ENCODING 523
SWIDTH 495 0
DWIDTH 11 0
BBX 7 15 3 0
BITMAP
1C
36
22
00
00
F8
18
10
30
30
30
30
30
3C
1C
ENDCHAR
STARTCHAR 020C
ENCODING 524
SWIDTH 495 0
DWIDTH 11 0
BBX 10 18 2 0
BITMAP
1900
0D80
0480
0400
0F00
1F80
30C0
60C0
60C0
40C0
C0C0
C0C0
C080
C180
C180
C300
E600
7C00
ENDCHAR
STARTCHAR 020D
ENCODING 525
SWIDTH 495 0
DWIDTH 11 0
BBX 9 15 2 0
BITMAP
1200
1B00
0980
0800
0400
3F00
7180
6180
C180
C180
C180
C180
C300
EE00
7C00
ENDCHAR
STARTCHAR 020E
ENCODING 526
SWIDTH 495 0
DWIDTH 11 0
BBX 10 18 2 0
BITMAP
0780
04C0
0CC0
0000
0F00
1F80
30C0
60C0
60C0
40C0
C0C0
C0C0
C080
C180
C180
C300
E600
7C00
ENDCHAR
STARTCHAR 020F
ENCODING 527
SWIDTH 495 0
DWIDTH 11 0
BBX 9 15 2 0
BITMAP
0700
0D80
0880
0000
0400
3F00
7180
6180
C180
C180
C180
C180
C300
EE00
7C00
ENDCHAR
STARTCHAR 0210
ENCODING 528
SWIDTH 495 0
DWIDTH 11 0
BBX 11 18 1 0
BITMAP
0980
0C80
06C0
0000
1F80
1FC0
1860
3060
3060
30C0
31C0
3F80
7E00
6300
6300
4100
C180
C180
ENDCHAR
STARTCHAR 0211
ENCODING 529
SWIDTH 495 0
DWIDTH 11 0
BBX 9 15 2 0
BITMAP
1300
1B00
0980
0000
0300
3F80
3000
3000
2000
6000
6000
6000
4000
C000
C000
ENDCHAR
STARTCHAR 0212
ENCODING 530
SWIDTH 495 0
DWIDTH 11 0
BBX 11 18 1 0
BITMAP
03C0
0640
0440
0000
1F80
1FC0
1860
3060
3060
30C0
31C0
3F80
7E00
6300
6300
4100
C180
C180
ENDCHAR
STARTCHAR 0213
ENCODING 531
SWIDTH 495 0
DWIDTH 11 0
BBX 9 15 2 0
BITMAP
0700
0D80
0880
0000
0300
3F80
3000
3000
2000
6000
6000
6000
4000
C000
C000
ENDCHAR
STARTCHAR 0214
ENCODING 532
SWIDTH 495 0
DWIDTH 11 0
BBX 11 18 2 0
BITMAP
1B00
0980
0C80
0000
3060
3040
20C0
60C0
60C0
60C0
4180
C180
C180
C180
C300
C300
E600
7C00
ENDCHAR
STARTCHAR 0215
ENCODING 533
SWIDTH 495 0
DWIDTH 11 0
BBX 9 15 2 0
BITMAP
1200
1B00
0980
0800
0000
6180
6180
6180
4180
C300
C300
C300
C300
CF00
7B00
ENDCHAR
STARTCHAR 0216
ENCODING 534
SWIDTH 495 0
DWIDTH 11 0
BBX 11 18 2 0
BITMAP
0780
0C80
0880
0000
3060
3040
20C0
60C0
60C0
60C0
4180
C180
C180
C180
C300
C300
E600
7C00
ENDCHAR
STARTCHAR 0217
ENCODING 535
SWIDTH 495 0
DWIDTH 11 0
BBX 9 15 2 0
BITMAP
0700
0D80
0880
0000
0000
6180
6180
6180
4180
C300
C300
C300
C300
CF00
7B00
ENDCHAR
STARTCHAR 0218
ENCODING 536
SWIDTH 495 0
DWIDTH 11 0
BBX 10 18 2 -4
BITMAP
0FC0
1FC0
3000
3000
3000
3000
1C00
0F00
0300
0300
0100
0300
C700
FC00
0000
3000
6000
C000
ENDCHAR
STARTCHAR 0219
ENCODING 537
SWIDTH 495 0
DWIDTH 11 0
BBX 9 15 2 -4
BITMAP
0600
1F80
3000
3000
3000
1C00
0E00
0300
0300
C600
FC00
0000
3000
7000
C000
ENDCHAR
STARTCHAR 021A
ENCODING 538
SWIDTH 495 0
DWIDTH 11 0
BBX 11 18 2 -4
BITMAP
3FE0
7FE0
0600
0600
0C00
0C00
0C00
0C00
0800
1800
1800
1800
1000
3000
0000
3000
6000
C000
ENDCHAR
STARTCHAR 021B
ENCODING 539
SWIDTH 495 0
DWIDTH 11 0
BBX 8 17 3 -3
BITMAP
18
18
10
FF
30
30
30
60
60
60
60
62
3E
00
30
30
E0
ENDCHAR
STARTCHAR 021C
ENCODING 540
SWIDTH 495 0
DWIDTH 11 0
BBX 13 18 -1 -4
BITMAP
07E0
0EF0
0018
0018
0018
0030
0060
07C0
07C0
00E0
0060
0020
0060
0060
00C0
03C0
7F00
F800
ENDCHAR
STARTCHAR 021D
ENCODING 541
SWIDTH 495 0
DWIDTH 11 0
BBX 11 15 0 -4
BITMAP
0300
1FC0
10E0
0060
0060
00C0
0F80
0F80
01C0
00C0
00C0
0180
0700
7E00
E000
ENDCHAR
STARTCHAR 021E
ENCODING 542
SWIDTH 495 0
DWIDTH 11 0
BBX 12 18 1 0
BITMAP
0260
03C0
0100
0000
1830
1830
1060
3060
3060
3060
3FC0
7FC0
60C0
60C0
4080
C180
C180
C180
ENDCHAR
STARTCHAR 021F
ENCODING 543
SWIDTH 495 0
DWIDTH 11 0
BBX 10 18 1 0
BITMAP
0F00
0600
0000
0800
1800
1800
1800
1200
3F80
3180
30C0
20C0
6180
6180
6180
4180
C100
C300
ENDCHAR
STARTCHAR 0220
ENCODING 544
SWIDTH 495 0
DWIDTH 11 0
BBX 11 18 1 -4
BITMAP
1FC0
1FE0
1060
3060
3060
3060
2040
60C0
60C0
60C0
4080
C180
C180
C180
0100
0300
0300
0300
ENDCHAR
STARTCHAR 0221
ENCODING 545
SWIDTH 495 0
DWIDTH 11 0
BBX 10 19 1 -4
BITMAP
0180
0180
0180
0100
0700
1F00
3300
6300
4600
C600
C600
C600
C400
EF80
7EC0
0CC0
1CC0
2F80
0700
ENDCHAR
STARTCHAR 0222
ENCODING 546
SWIDTH 495 0
DWIDTH 11 0
BBX 11 14 1 0
BITMAP
0C60
0860
1860
1860
18C0
19C0
1F00
39C0
60C0
40C0
C0C0
C180
7780
3E00
ENDCHAR
STARTCHAR 0223
ENCODING 547
SWIDTH 495 0
DWIDTH 11 0
BBX 10 15 2 0
BITMAP
1840
3040
30C0
30C0
3180
1F80
3F00
6380
C180
C180
C180
C180
C300
E700
7C00
ENDCHAR
STARTCHAR 0224
ENCODING 548
SWIDTH 495 0
DWIDTH 11 0
BBX 12 18 1 -4
BITMAP
1FF0
1FE0
0060
00C0
0180
0300
0600
0C00
1800
1800
3000
6000
FF80
FF80
0180
0300
0F00
0C00
ENDCHAR
STARTCHAR 0225
ENCODING 549
SWIDTH 495 0
DWIDTH 11 0
BBX 10 14 1 -4
BITMAP
1FC0
0180
0300
0600
0C00
1800
3000
3000
7F00
FF00
0300
0300
1E00
1C00
ENDCHAR
STARTCHAR 0226
ENCODING 550
SWIDTH 495 0
DWIDTH 11 0
BBX 10 18 0 0
BITMAP
00C0
00C0
0080
0000
0180
03C0
03C0
06C0
04C0
0CC0
08C0
18C0
10C0
3FC0
6040
6040
C040
C040
ENDCHAR
STARTCHAR 0227
ENCODING 551
SWIDTH 495 0
DWIDTH 11 0
BBX 9 15 2 0
BITMAP
0200
0300
0200
0000
0200
1F80
3180
6180
C180
C100
8300
8300
C300
C700
7B00
ENDCHAR
STARTCHAR 0228
ENCODING 552
SWIDTH 495 0
DWIDTH 11 0
BBX 11 18 1 -4
BITMAP
1FE0
1FE0
1800
1800
3000
3000
3F80
3F80
2000
6000
6000
6000
7F80
FF00
0800
0C00
2C00
3800
ENDCHAR
STARTCHAR 0229
ENCODING 553
SWIDTH 495 0
DWIDTH 11 0
BBX 9 15 2 -4
BITMAP
0600
3F80
7180
6180
C180
CF00
FC00
8000
C000
E300
7F00
1000
1800
5800
7000
ENDCHAR
STARTCHAR 022A
ENCODING 554
SWIDTH 495 0
DWIDTH 11 0
BBX 10 18 2 0
BITMAP
07C0
0880
0CC0
0880
0600
1F80
38C0
30C0
60C0
40C0
C0C0
C0C0
C080
C180
C180
C300
E600
7C00
ENDCHAR
STARTCHAR 022B
ENCODING 555
SWIDTH 495 0
DWIDTH 11 0
BBX 10 16 2 0
BITMAP
07C0
0000
0880
19C0
0000
0400
3F00
7180
6180
C180
C180
C180
C180
C300
EE00
7C00
ENDCHAR
STARTCHAR 022C
ENCODING 556
SWIDTH 495 0
DWIDTH 11 0
BBX 10 18 2 0
BITMAP
07C0
0000
0FC0
0900
0600
1F80
38C0
30C0
60C0
40C0
C0C0
C0C0
C080
C180
C180
C300
E600
7C00
ENDCHAR
STARTCHAR 022D
ENCODING 557
SWIDTH 495 0
DWIDTH 11 0
BBX 10 16 2 0
BITMAP
07C0
0000
0400
0F80
0000
0400
3F00
7180
6180
C180
C180
C180
C180
C300
EE00
7C00
ENDCHAR
STARTCHAR 022E
ENCODING 558
SWIDTH 495 0
DWIDTH 11 0
BBX 10 18 2 0
BITMAP
0100
0380
0300
0000
0F00
1F80
30C0
60C0
60C0
40C0
C0C0
C0C0
C080
C180
C180
C300
E600
7C00
ENDCHAR
STARTCHAR 022F
ENCODING 559
SWIDTH 495 0
DWIDTH 11 0
BBX 9 15 2 0
BITMAP
0200
0700
0200
0000
0400
3F00
7180
6180
C180
C180
C180
C180
C300
EE00
7C00
ENDCHAR
STARTCHAR 0230
ENCODING 560
SWIDTH 495 0
DWIDTH 11 0
BBX 10 18 2 0
BITMAP
07C0
0100
0300
0200
0600
1F80
38C0
30C0
60C0
40C0
C0C0
C0C0
C080
C180
C180
C300
E600
7C00
ENDCHAR
STARTCHAR 0231
ENCODING 561
SWIDTH 495 0
DWIDTH 11 0
BBX 10 16 2 0
BITMAP
0FC0
0000
0200
0600
0000
0400
3F00
7180
6180
C180
C180
C180
C180
C300
EE00
7C00
ENDCHAR
STARTCHAR 0232
ENCODING 562
SWIDTH 495 0
DWIDTH 11 0
BBX 11 17 3 0
BITMAP
1F80
0000
0000
C060
C0C0
4180
6180
6300
6600
2400
3C00
3800
3000
3000
3000
3000
6000
ENDCHAR
STARTCHAR 0233
ENCODING 563
SWIDTH 495 0
DWIDTH 11 0
BBX 12 18 0 -4
BITMAP
07E0
0000
0000
0000
1830
1860
1860
1860
08C0
0CC0
0D80
0D80
0700
0600
0600
0C00
F800
E000
ENDCHAR
STARTCHAR 0234
ENCODING 564
SWIDTH 495 0
DWIDTH 11 0
BBX 9 19 1 -4
BITMAP
1F00
0300
0300
0600
0600
0600
0600
0C00
0C00
0C00
0C00
0800
1800
1F00
1980
3180
7100
DF00
0C00
ENDCHAR
STARTCHAR 0235
ENCODING 565
SWIDTH 495 0
DWIDTH 11 0
BBX 10 15 1 -4
BITMAP
0800
3E00
6600
6200
6600
6600
C600
C600
C400
CF80
8EC0
0C40
1CC0
2F80
0700
ENDCHAR
STARTCHAR 0236
ENCODING 566
SWIDTH 495 0
DWIDTH 11 0
BBX 11 17 1 -3
BITMAP
0600
0600
0600
3FE0
0C00
0C00
0C00
0800
1800
1800
1800
1700
3B00
3100
7100
DF00
8C00
ENDCHAR
STARTCHAR 0237
ENCODING 567
SWIDTH 495 0
DWIDTH 11 0
BBX 9 14 1 -4
BITMAP
1F80
0180
0180
0180
0100
0300
0300
0300
0200
0600
0600
0600
FC00
7000
ENDCHAR
STARTCHAR 0238
ENCODING 568
SWIDTH 495 0
DWIDTH 11 0
BBX 11 15 1 0
BITMAP
0100
0100
0300
0300
0B80
3FC0
3660
6660
4660
C460
CC40
CCC0
CCC0
C980
7F00
ENDCHAR
STARTCHAR 0239
ENCODING 569
SWIDTH 495 0
DWIDTH 11 0
BBX 11 15 1 -4
BITMAP
0080
3FC0
3660
6660
4660
C460
CC40
CCC0
CCC0
C980
7F00
1800
1800
1000
1000
ENDCHAR
STARTCHAR 023A
ENCODING 570
SWIDTH 495 0
DWIDTH 11 0
BBX 12 17 0 -2
BITMAP
0010
01F0
01E0
03E0
06C0
06C0
0CC0
09C0
1940
1340
3FC0
2640
6440
4C40
C860
1800
1000
ENDCHAR
STARTCHAR 023B
ENCODING 571
SWIDTH 495 0
DWIDTH 11 0
BBX 11 17 2 -2
BITMAP
0040
07C0
1FE0
3980
3100
6300
6200
C600
C400
CC00
C800
D800
F000
7300
7F00
6000
4000
ENDCHAR
STARTCHAR 023C
ENCODING 572
SWIDTH 495 0
DWIDTH 11 0
BBX 9 13 2 -2
BITMAP
0080
0780
1F80
3200
6200
C400
C400
C800
C800
D000
F300
7F00
2000
ENDCHAR
STARTCHAR 023D
ENCODING 573
SWIDTH 495 0
DWIDTH 11 0
BBX 8 14 2 0
BITMAP
18
18
18
10
30
30
FE
FE
60
60
60
40
FF
FF
ENDCHAR
STARTCHAR 023E
ENCODING 574
SWIDTH 495 0
DWIDTH 11 0
BBX 13 16 1 -1
BITMAP
0008
1FF8
3FF0
0360
0340
0680
0700
0700
0600
0C00
1C00
3C00
2C00
4800
9800
8000
ENDCHAR
STARTCHAR 023F
ENCODING 575
SWIDTH 495 0
DWIDTH 11 0
BBX 9 15 2 -4
BITMAP
0600
1F80
3000
2000
3000
3C00
0E00
0300
0300
C600
FC00
6000
6000
3C00
0C00
ENDCHAR
STARTCHAR 0240
ENCODING 576
SWIDTH 495 0
DWIDTH 11 0
BBX 10 14 1 -4
BITMAP
1FC0
0180
0300
0600
0C00
1800
3000
3000
6000
F000
1800
0C00
0F00
0300
ENDCHAR
STARTCHAR 0241
ENCODING 577
SWIDTH 495 0
DWIDTH 11 0
BBX 9 14 3 0
BITMAP
3E00
7700
0180
0180
0300
0700
1C00
3800
6000
6000
6000
4000
C000
C000
ENDCHAR
STARTCHAR 0242
ENCODING 578
SWIDTH 495 0
DWIDTH 11 0
BBX 7 11 4 0
BITMAP
38
FC
86
06
0E
3C
70
C0
C0
C0
80
ENDCHAR
STARTCHAR 0243
ENCODING 579
SWIDTH 495 0
DWIDTH 11 0
BBX 11 14 1 0
BITMAP
0F80
0FE0
1860
1860
1860
10C0
3F80
3F80
30C0
7CC0
FCC0
61C0
6780
7E00
ENDCHAR
STARTCHAR 0244
ENCODING 580
SWIDTH 495 0
DWIDTH 11 0
BBX 10 14 2 0
BITMAP
3040
30C0
30C0
30C0
2080
6180
FFC0
6180
4100
C300
C300
C300
E600
7C00
ENDCHAR
STARTCHAR 0245
ENCODING 581
SWIDTH 495 0
DWIDTH 11 0
BBX 10 14 0 0
BITMAP
0180
03C0
03C0
06C0
04C0
0CC0
08C0
18C0
10C0
30C0
6040
6040
C040
C040
ENDCHAR
STARTCHAR 0246
ENCODING 582
SWIDTH 495 0
DWIDTH 11 0
BBX 13 17 1 -2
BITMAP
0018
1FF0
1FE0
1860
18C0
3080
3180
3FC0
3F80
2600
6400
6C00
7800
7F80
FF80
2000
6000
ENDCHAR
STARTCHAR 0247
ENCODING 583
SWIDTH 495 0
DWIDTH 11 0
BBX 9 14 2 -2
BITMAP
0300
0600
1F80
3780
6480
CD80
CF00
FC00
D000
D000
F300
7F00
6000
4000
ENDCHAR
STARTCHAR 0248
ENCODING 584
SWIDTH 495 0
DWIDTH 11 0
BBX 11 14 1 0
BITMAP
0FE0
0FE0
0040
00C0
00C0
00C0
07E0
07E0
0180
0180
0100
0300
C700
7E00
ENDCHAR
STARTCHAR 0249
ENCODING 585
SWIDTH 495 0
DWIDTH 11 0
BBX 11 19 0 -4
BITMAP
00C0
00E0
00C0
0000
0000
0FC0
00C0
00C0
0180
1FE0
0180
0180
0100
0300
0300
0300
0600
FC00
7800
ENDCHAR
STARTCHAR 024A
ENCODING 586
SWIDTH 495 0
DWIDTH 11 0
BBX 10 18 2 -4
BITMAP
0F00
1F80
3180
6080
60C0
C080
C080
C180
C180
C180
C300
C300
CF00
7B00
0200
0600
0300
0300
ENDCHAR
STARTCHAR 024B
ENCODING 587
SWIDTH 495 0
DWIDTH 11 0
BBX 10 15 2 -4
BITMAP
0300
1FC0
3180
6180
C180
C180
C300
C300
C300
E700
7E00
0600
0600
0700
0300
ENDCHAR
STARTCHAR 024C
ENCODING 588
SWIDTH 495 0
DWIDTH 11 0
BBX 11 14 1 0
BITMAP
0F80
1FC0
1860
1860
1060
3040
30C0
7F80
FE00
6300
6300
6100
6180
4180
ENDCHAR
STARTCHAR 024D
ENCODING 589
SWIDTH 495 0
DWIDTH 11 0
BBX 10 11 1 0
BITMAP
0180
1FC0
1800
1800
1000
3000
FE00
3000
2000
6000
6000
ENDCHAR
STARTCHAR 024E
ENCODING 590
SWIDTH 495 0
DWIDTH 11 0
BBX 12 14 2 0
BITMAP
6030
6060
20C0
FFF0
FFE0
3300
1200
1E00
1C00
1800
1800
1800
1800
3000
ENDCHAR
STARTCHAR 024F
ENCODING 591
SWIDTH 495 0
DWIDTH 11 0
BBX 12 14 0 -4
BITMAP
1830
1860
1860
1860
3FF0
0CC0
0D80
0D80
0700
0600
0600
0C00
F800
E000
ENDCHAR
STARTCHAR 0292
ENCODING 658
SWIDTH 495 0
DWIDTH 11 0
BBX 10 14 1 -4
BITMAP
1FC0
0080
0100
0200
0400
1800
1F00
0300
0100
0100
0300
0700
FE00
7800
ENDCHAR
STARTCHAR 02BC
ENCODING 700
SWIDTH 495 0
DWIDTH 11 0
BBX 3 4 6 11
BITMAP
60
60
C0
80
ENDCHAR
STARTCHAR 02C6
ENCODING 710
SWIDTH 495 0
DWIDTH 11 0
BBX 6 3 5 12
BITMAP
10
38
CC
ENDCHAR
STARTCHAR 02C7
ENCODING 711
SWIDTH 495 0
DWIDTH 11 0
BBX 5 3 6 12
BITMAP
D8
70
60
ENDCHAR
STARTCHAR 02C9
ENCODING 713
SWIDTH 495 0
DWIDTH 11 0
BBX 6 1 5 13
BITMAP
FC
ENDCHAR
STARTCHAR 02D8
ENCODING 728
SWIDTH 495 0
DWIDTH 11 0
BBX 5 3 6 12
BITMAP
88
D8
70
ENDCHAR
STARTCHAR 02D9
ENCODING 729
SWIDTH 495 0
DWIDTH 11 0
BBX 2 3 7 12
BITMAP
40
C0
C0
ENDCHAR
STARTCHAR 02DA
ENCODING 730
SWIDTH 495 0
DWIDTH 11 0
BBX 4 4 6 11
BITMAP
F0
90
D0
60
ENDCHAR
STARTCHAR 02DB
ENCODING 731
SWIDTH 495 0
DWIDTH 11 0
BBX 3 4 3 -4
BITMAP
60
C0
E0
E0
ENDCHAR
STARTCHAR 02DC
ENCODING 732
SWIDTH 495 0
DWIDTH 11 0
BBX 6 3 5 12
BITMAP
04
FC
98
ENDCHAR
STARTCHAR 02DD
ENCODING 733
SWIDTH 495 0
DWIDTH 11 0
BBX 6 3 5 12
BITMAP
24
6C
98
ENDCHAR
STARTCHAR 0311
ENCODING 785
SWIDTH 495 0
DWIDTH 11 0
BBX 6 3 5 12
BITMAP
38
68
CC
ENDCHAR
STARTCHAR 0384
ENCODING 900
SWIDTH 495 0
DWIDTH 11 0
BBX 3 4 7 12
BITMAP
60
C0
80
80
ENDCHAR
STARTCHAR 0385
ENCODING 901
SWIDTH 495 0
DWIDTH 11 0
BBX 8 3 4 11
BITMAP
4C
DB
52
ENDCHAR
STARTCHAR 0386
ENCODING 902
SWIDTH 495 0
DWIDTH 11 0
BBX 11 14 0 0
BITMAP
0DC0
19C0
1BC0
16C0
06C0
0CC0
0840
1840
1040
3FC0
2040
6040
4060
C060
ENDCHAR
STARTCHAR 0388
ENCODING 904
SWIDTH 495 0
DWIDTH 11 0
BBX 12 14 0 0
BITMAP
2FF0
6FF0
4C00
C800
1800
1800
1FC0
1FC0
3000
3000
3000
2000
7FC0
7F80
ENDCHAR
STARTCHAR 0389
ENCODING 905
SWIDTH 495 0
DWIDTH 11 0
BBX 13 14 0 0
BITMAP
6C18
6C18
C830
9830
1830
1830
1FE0
3FE0
3060
3060
2040
60C0
60C0
60C0
ENDCHAR
STARTCHAR 038A
ENCODING 906
SWIDTH 495 0
DWIDTH 11 0
BBX 11 14 1 0
BITMAP
6FE0
4FE0
C300
8300
0200
0600
0600
0600
0400
0C00
0C00
0C00
7F00
7F00
ENDCHAR
STARTCHAR 038C
ENCODING 908
SWIDTH 495 0
DWIDTH 11 0
BBX 11 14 1 0
BITMAP
6780
4FC0
D860
B060
3060
6060
6060
6040
60C0
40C0
4180
6180
7300
3E00
ENDCHAR
STARTCHAR 038E
ENCODING 910
SWIDTH 495 0
DWIDTH 11 0
BBX 14 14 -1 0
BITMAP
2C0C
6C0C
4C18
C430
0630
0660
02C0
0380
0300
0300
0300
0300
0600
0600
ENDCHAR
STARTCHAR 038F
ENCODING 911
SWIDTH 495 0
DWIDTH 11 0
BBX 12 14 0 0
BITMAP
33C0
67E0
6C30
D830
3030
3030
3030
3020
3060
3060
30C0
3180
F1E0
F3C0
ENDCHAR
STARTCHAR 0390
ENCODING 912
SWIDTH 495 0
DWIDTH 11 0
BBX 8 15 3 0
BITMAP
0D
6B
59
00
00
F8
18
10
30
30
30
30
30
3C
1C
ENDCHAR
STARTCHAR 0391
ENCODING 913
SWIDTH 495 0
DWIDTH 11 0
BBX 10 14 0 0
BITMAP
0180
03C0
03C0
06C0
04C0
0CC0
08C0
18C0
10C0
3FC0
6040
6040
C040
C040
ENDCHAR
STARTCHAR 0392
ENCODING 914
SWIDTH 495 0
DWIDTH 11 0
BBX 11 14 1 0
BITMAP
1F80
1FC0
1860
3060
3040
30C0
3F00
7F80
60C0
60C0
60C0
4180
C780
FE00
ENDCHAR
STARTCHAR 0393
ENCODING 915
SWIDTH 495 0
DWIDTH 11 0
BBX 12 14 1 0
BITMAP
07F0
07F0
0C00
0C00
0C00
0800
1800
1800
1800
1000
3000
3000
FE00
FC00
ENDCHAR
STARTCHAR 0394
ENCODING 916
SWIDTH 495 0
DWIDTH 11 0
BBX 10 14 0 0
BITMAP
0180
03C0
03C0
06C0
04C0
0CC0
08C0
18C0
10C0
30C0
6040
6040
FFC0
FFC0
ENDCHAR
STARTCHAR 0395
ENCODING 917
SWIDTH 495 0
DWIDTH 11 0
BBX 11 14 2 0
BITMAP
1FE0
1FC0
3000
3000
3000
2000
7F00
7F00
6000
4000
C000
C000
FF00
FF00
ENDCHAR
STARTCHAR 0396
ENCODING 918
SWIDTH 495 0
DWIDTH 11 0
BBX 12 14 1 0
BITMAP
1FF0
1FE0
0060
00C0
0180
0300
0600
0C00
1800
1800
3000
6000
FF80
FF80
ENDCHAR
STARTCHAR 0397
ENCODING 919
SWIDTH 495 0
DWIDTH 11 0
BBX 12 14 1 0
BITMAP
1830
1830
1060
3060
3060
3060
3FC0
7FC0
60C0
60C0
4080
C180
C180
C180
ENDCHAR
STARTCHAR 0398
ENCODING 920
SWIDTH 495 0
DWIDTH 11 0
BBX 10 14 2 0
BITMAP
0F00
1F80
30C0
60C0
60C0
40C0
DEC0
DCC0
C080
C180
C180
C300
E600
7C00
ENDCHAR
STARTCHAR 0399
ENCODING 921
SWIDTH 495 0
DWIDTH 11 0
BBX 10 14 2 0
BITMAP
1FC0
1FC0
0600
0600
0400
0C00
0C00
0C00
0800
1800
1800
1800
FE00
FE00
ENDCHAR
STARTCHAR 039A
ENCODING 922
SWIDTH 495 0
DWIDTH 11 0
BBX 12 14 1 0
BITMAP
1830
1860
18C0
1180
3300
3600
3C00
2C00
6E00
6600
6300
4300
C180
C180
ENDCHAR
STARTCHAR 039B
ENCODING 923
SWIDTH 495 0
DWIDTH 11 0
BBX 10 14 0 0
BITMAP
0180
03C0
03C0
06C0
04C0
0CC0
08C0
18C0
10C0
30C0
6040
6040
C040
C040
ENDCHAR
STARTCHAR 039C
ENCODING 924
SWIDTH 495 0
DWIDTH 11 0
BBX 11 14 1 0
BITMAP
0820
1C60
1CE0
1CA0
3DE0
2D60
2760
6640
6440
40C0
C0C0
C0C0
C080
8180
ENDCHAR
STARTCHAR 039D
ENCODING 925
SWIDTH 495 0
DWIDTH 11 0
BBX 12 14 1 0
BITMAP
1830
1830
1C20
3C60
3460
3660
2640
66C0
62C0
62C0
4380
C380
C380
C180
ENDCHAR
STARTCHAR 039E
ENCODING 926
SWIDTH 495 0
DWIDTH 11 0
BBX 12 14 1 0
BITMAP
1FF0
1FF0
0000
0000
0000
0000
3F80
3F80
0000
0000
0000
0000
FF80
FF80
ENDCHAR
STARTCHAR 039F
ENCODING 927
SWIDTH 495 0
DWIDTH 11 0
BBX 10 14 2 0
BITMAP
0F00
1F80
30C0
60C0
60C0
40C0
C0C0
C0C0
C080
C180
C180
C300
E600
7C00
ENDCHAR
STARTCHAR 03A0
ENCODING 928
SWIDTH 495 0
DWIDTH 11 0
BBX 12 14 1 0
BITMAP
1FF0
1FF0
1060
3060
3060
3060
20C0
60C0
60C0
60C0
4080
C180
C180
C180
ENDCHAR
STARTCHAR 03A1
ENCODING 929
SWIDTH 495 0
DWIDTH 11 0
BBX 11 14 1 0
BITMAP
1F80
1FC0
1860
1860
3060
3060
30C0
3F80
3E00
6000
6000
6000
4000
C000
ENDCHAR
STARTCHAR 03A3
ENCODING 931
SWIDTH 495 0
DWIDTH 11 0
BBX 12 14 1 0
BITMAP
1FF0
1FF0
1800
0C00
0C00
0600
0600
0600
0C00
1800
3000
6000
FF80
FF80
ENDCHAR
STARTCHAR 03A4
ENCODING 932
SWIDTH 495 0
DWIDTH 11 0
BBX 10 14 3 0
BITMAP
7FC0
FFC0
0C00
0C00
1800
1800
1800
1800
1000
3000
3000
3000
2000
6000
ENDCHAR
STARTCHAR 03A5
ENCODING 933
SWIDTH 495 0
DWIDTH 11 0
BBX 11 14 3 0
BITMAP
C060
C0C0
4180
6180
6300
6600
2400
3C00
3800
3000
3000
3000
3000
6000
ENDCHAR
STARTCHAR 03A6
ENCODING 934
SWIDTH 495 0
DWIDTH 11 0
BBX 10 15 2 0
BITMAP
0200
0200
0F00
3F80
66C0
64C0
CCC0
CCC0
CCC0
C980
D980
FF00
7E00
1000
3000
ENDCHAR
STARTCHAR 03A7
ENCODING 935
SWIDTH 495 0
DWIDTH 11 0
BBX 12 14 1 0
BITMAP
1830
1830
0C60
0CC0
0D80
0700
0700
0700
0F00
1B00
3180
6180
E180
C080
ENDCHAR
STARTCHAR 03A8
ENCODING 936
SWIDTH 495 0
DWIDTH 11 0
BBX 11 14 2 0
BITMAP
2060
6060
6040
64C0
4CC0
4CC0
CC80
C980
CB00
7F00
1800
1800
1000
3000
ENDCHAR
STARTCHAR 03A9
ENCODING 937
SWIDTH 495 0
DWIDTH 11 0
BBX 12 14 0 0
BITMAP
03C0
07E0
0C30
1830
3030
3030
3030
3020
3060
3060
30C0
3180
F1E0
F3C0
ENDCHAR
STARTCHAR 03AA
ENCODING 938
SWIDTH 495 0
DWIDTH 11 0
BBX 10 18 2 0
BITMAP
04C0
0CC0
0C80
0000
1FC0
1FC0
0600
0600
0400
0C00
0C00
0C00
0800
1800
1800
1800
FE00
FE00
ENDCHAR
STARTCHAR 03AB
ENCODING 939
SWIDTH 495 0
DWIDTH 11 0
BBX 11 18 3 0
BITMAP
0980
1980
1900
0000
C060
C0C0
4180
6180
6300
6600
2400
3C00
3800
3000
3000
3000
3000
6000
ENDCHAR
STARTCHAR 03AC
ENCODING 940
SWIDTH 495 0
DWIDTH 11 0
BBX 9 15 2 1
BITMAP
0180
0300
0200
0000
0300
1F80
3180
6180
C180
C300
C300
C300
C300
E700
7D80
ENDCHAR
STARTCHAR 03AD
ENCODING 941
SWIDTH 495 0
DWIDTH 11 0
BBX 9 15 2 1
BITMAP
0180
0180
0300
0200
0600
3F80
3000
6000
6000
3E00
6000
C000
C000
E300
7F00
ENDCHAR
STARTCHAR 03AE
ENCODING 942
SWIDTH 495 0
DWIDTH 11 0
BBX 9 19 2 -3
BITMAP
0180
0180
0300
0200
0400
3F00
6180
6180
6180
6180
C100
C300
C300
C300
8300
0600
0600
0600
0600
ENDCHAR
STARTCHAR 03AF
ENCODING 943
SWIDTH 495 0
DWIDTH 11 0
BBX 7 15 3 1
BITMAP
06
0C
18
00
00
F8
18
10
30
30
30
30
30
3C
1C
ENDCHAR
STARTCHAR 03B0
ENCODING 944
SWIDTH 495 0
DWIDTH 11 0
BBX 10 15 2 0
BITMAP
1300
36C0
1480
0000
0000
6180
6180
6180
4180
C100
C300
C300
C300
EE00
7C00
ENDCHAR
STARTCHAR 03B1
ENCODING 945
SWIDTH 495 0
DWIDTH 11 0
BBX 9 11 2 0
BITMAP
0300
1F80
3180
6180
C180
C300
C300
C300
C300
E700
7D80
ENDCHAR
STARTCHAR 03B2
ENCODING 946
SWIDTH 495 0
DWIDTH 11 0
BBX 12 19 0 -4
BITMAP
03E0
0660
0C30
0C20
0C60
08C0
1B80
18C0
1860
1060
3060
3060
30C0
3BC0
7F00
6000
6000
6000
C000
ENDCHAR
STARTCHAR 03B3
ENCODING 947
SWIDTH 495 0
DWIDTH 11 0
BBX 9 14 3 -4
BITMAP
C180
C300
C300
C200
C600
4C00
4C00
5800
7000
6000
4000
4000
C000
C000
ENDCHAR
STARTCHAR 03B4
ENCODING 948
SWIDTH 495 0
DWIDTH 11 0
BBX 10 15 2 0
BITMAP
0FC0
1840
1800
1800
0C00
0E00
3B00
6180
6180
C180
C180
C180
C300
E700
7C00
ENDCHAR
STARTCHAR 03B5
ENCODING 949
SWIDTH 495 0
DWIDTH 11 0
BBX 9 11 2 0
BITMAP
0600
3F80
3000
6000
6000
3E00
6000
C000
C000
E300
7F00
ENDCHAR
STARTCHAR 03B6
ENCODING 950
SWIDTH 495 0
DWIDTH 11 0
BBX 11 19 2 -4
BITMAP
1FE0
00C0
0380
0600
0C00
1800
3000
6000
6000
C000
C000
C000
E000
7800
1E00
0600
0600
0600
0400
ENDCHAR
STARTCHAR 03B7
ENCODING 951
SWIDTH 495 0
DWIDTH 11 0
BBX 9 15 2 -4
BITMAP
0400
3F00
6180
6180
6180
6180
C100
C300
C300
C300
8300
0600
0600
0600
0600
ENDCHAR
STARTCHAR 03B8
ENCODING 952
SWIDTH 495 0
DWIDTH 11 0
BBX 10 15 2 0
BITMAP
0F80
1980
30C0
30C0
60C0
60C0
60C0
FF80
C180
C180
C180
C300
C300
6E00
7C00
ENDCHAR
STARTCHAR 03B9
ENCODING 953
SWIDTH 495 0
DWIDTH 11 0
BBX 6 10 3 0
BITMAP
F8
18
10
30
30
30
30
30
3C
1C
ENDCHAR
STARTCHAR 03BA
ENCODING 954
SWIDTH 495 0
DWIDTH 11 0
BBX 10 10 2 0
BITMAP
21C0
6300
6600
7C00
7000
D800
CC00
C600
C700
8300
ENDCHAR
STARTCHAR 03BB
ENCODING 955
SWIDTH 495 0
DWIDTH 11 0
BBX 9 15 1 0
BITMAP
1E00
0600
0300
0300
0300
0700
0700
0D00
1900
1180
3180
6180
6180
C180
C180
ENDCHAR
STARTCHAR 03BC
ENCODING 956
SWIDTH 495 0
DWIDTH 11 0
BBX 11 14 0 -4
BITMAP
1860
1860
1860
1040
30C0
30C0
30C0
30C0
7BC0
7F60
6000
4000
C000
C000
ENDCHAR
STARTCHAR 03BD
ENCODING 957
SWIDTH 495 0
DWIDTH 11 0
BBX 9 10 3 0
BITMAP
C180
C300
C300
C600
C600
CC00
4800
7800
7000
6000
ENDCHAR
STARTCHAR 03BE
ENCODING 958
SWIDTH 495 0
DWIDTH 11 0
BBX 10 19 2 -4
BITMAP
07C0
1C00
1800
1000
3000
1800
0F00
3F00
7000
4000
C000
C000
C000
7800
1E00
0600
0600
0600
0400
ENDCHAR
STARTCHAR 03BF
ENCODING 959
SWIDTH 495 0
DWIDTH 11 0
BBX 9 11 2 0
BITMAP
0400
3F00
7180
6180
C180
C180
C180
C180
C300
EE00
7C00
ENDCHAR
STARTCHAR 03C0
ENCODING 960
SWIDTH 495 0
DWIDTH 11 0
BBX 10 10 1 0
BITMAP
3FC0
30C0
30C0
30C0
2080
6180
6180
6180
4100
C300
ENDCHAR
STARTCHAR 03C1
ENCODING 961
SWIDTH 495 0
DWIDTH 11 0
BBX 11 15 0 -4
BITMAP
0100
07C0
0C60
1860
1860
1060
3060
3060
30C0
3980
7F00
6000
6000
6000
C000
ENDCHAR
STARTCHAR 03C2
ENCODING 962
SWIDTH 495 0
DWIDTH 11 0
BBX 9 15 2 -4
BITMAP
0300
1F80
3800
6000
4000
C000
C000
C000
C000
7800
1E00
0600
0600
0600
0400
ENDCHAR
STARTCHAR 03C3
ENCODING 963
SWIDTH 495 0
DWIDTH 11 0
BBX 10 10 2 0
BITMAP
1FC0
7180
6180
C180
C180
8180
8300
C300
CE00
7C00
ENDCHAR
STARTCHAR 03C4
ENCODING 964
SWIDTH 495 0
DWIDTH 11 0
BBX 9 10 3 0
BITMAP
FF80
3000
2000
6000
6000
6000
6000
4000
6200
7E00
ENDCHAR
STARTCHAR 03C5
ENCODING 965
SWIDTH 495 0
DWIDTH 11 0
BBX 9 10 2 0
BITMAP
6180
6180
6180
4180
C100
C300
C300
C300
EE00
7C00
ENDCHAR
STARTCHAR 03C6
ENCODING 966
SWIDTH 495 0
DWIDTH 11 0
BBX 11 14 1 -4
BITMAP
1FC0
32C0
6660
6660
4460
C460
CCC0
6CC0
7F80
3F00
1800
1800
1800
1000
ENDCHAR
STARTCHAR 03C7
ENCODING 967
SWIDTH 495 0
DWIDTH 11 0
BBX 11 10 1 0
BITMAP
30E0
18C0
1980
0F00
0E00
0E00
1B00
3300
6300
C180
ENDCHAR
STARTCHAR 03C8
ENCODING 968
SWIDTH 495 0
DWIDTH 11 0
BBX 11 14 1 -4
BITMAP
2060
6060
6660
6440
64C0
4CC0
CCC0
CD80
6B80
7F00
1800
1800
1000
3000
ENDCHAR
STARTCHAR 03C9
ENCODING 969
SWIDTH 495 0
DWIDTH 11 0
BBX 10 11 1 0
BITMAP
1000
10C0
30C0
60C0
40C0
C4C0
CCC0
CCC0
CCC0
DD80
7700
ENDCHAR
STARTCHAR 03CA
ENCODING 970
SWIDTH 495 0
DWIDTH 11 0
BBX 8 15 3 0
BITMAP
02
37
22
00
00
F8
18
10
30
30
30
30
30
3C
1C
ENDCHAR
STARTCHAR 03CB
ENCODING 971
SWIDTH 495 0
DWIDTH 11 0
BBX 9 15 2 0
BITMAP
0800
1980
1980
0000
0000
6180
6180
6180
4180
C100
C300
C300
C300
EE00
7C00
ENDCHAR
STARTCHAR 03CC
ENCODING 972
SWIDTH 495 0
DWIDTH 11 0
BBX 9 15 2 1
BITMAP
0180
0180
0300
0200
0400
3F00
7180
6180
C180
C180
C180
C180
C300
EE00
7C00
ENDCHAR
STARTCHAR 03CD
ENCODING 973
SWIDTH 495 0
DWIDTH 11 0
BBX 9 16 2 0
BITMAP
0100
0180
0300
0600
0000
0000
6180
6180
6180
4180
C100
C300
C300
C300
EE00
7C00
ENDCHAR
STARTCHAR 03CE
ENCODING 974
SWIDTH 495 0
DWIDTH 11 0
BBX 10 15 1 1
BITMAP
0180
0180
0300
0200
1000
10C0
30C0
60C0
40C0
C4C0
CCC0
CCC0
CCC0
DD80
7700
ENDCHAR
STARTCHAR 0400
ENCODING 1024
SWIDTH 495 0
DWIDTH 11 0
BBX 11 18 2 0
BITMAP
0600
0600
0300
0100
1FE0
1FC0
3000
3000
3000
2000
7F00
7F00
6000
4000
C000
C000
FF00
FF00
ENDCHAR
STARTCHAR 0401
ENCODING 1025
SWIDTH 495 0
DWIDTH 11 0
BBX 11 18 2 0
BITMAP
0440
0CC0
04C0
0000
1FE0
1FC0
3000
3000
3000
2000
7F00
7F00
6000
4000
C000
C000
FF00
FF00
ENDCHAR
STARTCHAR 0402
ENCODING 1026
SWIDTH 495 0
DWIDTH 11 0
BBX 9 14 2 0
BITMAP
7F80
7F80
1800
3000
3000
3E00
3F00
2180
6180
6180
6180
4100
C700
DE00
ENDCHAR
STARTCHAR 0403
ENCODING 1027
SWIDTH 495 0
DWIDTH 11 0
BBX 12 18 1 0
BITMAP
0060
00E0
0180
0000
07F0
07F0
0C00
0C00
0C00
0800
1800
1800
1800
1000
3000
3000
FE00
FC00
ENDCHAR
STARTCHAR 0404
ENCODING 1028
SWIDTH 495 0
DWIDTH 11 0
BBX 10 14 2 0
BITMAP
07C0
1FC0
3800
3000
6000
4000
FE00
FE00
C000
C000
C000
C000
6300
3F00
ENDCHAR
STARTCHAR 0405
ENCODING 1029
SWIDTH 495 0
DWIDTH 11 0
BBX 10 14 2 0
BITMAP
0FC0
1FC0
3000
3000
3000
3000
1C00
0F00
0300
0300
0100
0300
C700
FC00
ENDCHAR
STARTCHAR 0406
ENCODING 1030
SWIDTH 495 0
DWIDTH 11 0
BBX 10 14 2 0
BITMAP
1FC0
1FC0
0600
0600
0400
0C00
0C00
0C00
0800
1800
1800
1800
FE00
FE00
ENDCHAR
STARTCHAR 0407
ENCODING 1031
SWIDTH 495 0
DWIDTH 11 0
BBX 10 18 2 0
BITMAP
0440
0CC0
04C0
0000
1FC0
1FC0
0600
0600
0400
0C00
0C00
0C00
0800
1800
1800
1800
FE00
FE00
ENDCHAR
STARTCHAR 0408
ENCODING 1032
SWIDTH 495 0
DWIDTH 11 0
BBX 10 14 2 0
BITMAP
0FC0
0FC0
00C0
00C0
0180
0180
0180
0180
0300
0300
0300
0600
CE00
FC00
ENDCHAR
STARTCHAR 0409
ENCODING 1033
SWIDTH 495 0
DWIDTH 11 0
BBX 12 14 0 0
BITMAP
07C0
07C0
0480
0580
0D80
0DC0
09E0
1B20
1B30
1320
3220
3660
66C0
C780
ENDCHAR
STARTCHAR 040A
ENCODING 1034
SWIDTH 495 0
DWIDTH 11 0
BBX 11 14 1 0
BITMAP
1180
1180
3100
3300
2300
2380
7FC0
6640
4660
4640
C440
CCC0
CD80
8F00
ENDCHAR
STARTCHAR 040B
ENCODING 1035
SWIDTH 495 0
DWIDTH 11 0
BBX 9 14 2 0
BITMAP
7F80
7F80
1800
3000
3000
3600
3F00
2180
6180
6180
6100
4300
C300
C300
ENDCHAR
STARTCHAR 040C
ENCODING 1036
SWIDTH 495 0
DWIDTH 11 0
BBX 12 18 1 0
BITMAP
0040
00C0
0180
0000
1830
1860
18C0
1180
3300
3600
3C00
2C00
6E00
6600
6300
4300
C180
C180
ENDCHAR
STARTCHAR 040D
ENCODING 1037
SWIDTH 495 0
DWIDTH 11 0
BBX 12 18 1 0
BITMAP
0300
0300
0180
0000
1830
1870
10E0
31E0
3160
3360
2640
64C0
68C0
78C0
5080
E180
E180
C180
ENDCHAR
STARTCHAR 040E
ENCODING 1038
SWIDTH 495 0
DWIDTH 11 0
BBX 13 18 1 0
BITMAP
0620
0660
03C0
0000
1018
1830
1830
1860
1860
08C0
0C80
0D80
0F00
0700
0600
0C00
9800
F000
ENDCHAR
STARTCHAR 040F
ENCODING 1039
SWIDTH 495 0
DWIDTH 11 0
BBX 12 18 1 -4
BITMAP
1830
1830
1060
3060
3060
3060
20C0
60C0
60C0
60C0
4080
C180
FF80
FF80
1800
1800
1000
3000
ENDCHAR
STARTCHAR 0410
ENCODING 1040
SWIDTH 495 0
DWIDTH 11 0
BBX 10 14 0 0
BITMAP
0180
03C0
03C0
06C0
04C0
0CC0
08C0
18C0
10C0
3FC0
6040
6040
C040
C040
ENDCHAR
STARTCHAR 0411
ENCODING 1041
SWIDTH 495 0
DWIDTH 11 0
BBX 11 14 1 0
BITMAP
1FE0
1FE0
1800
3000
3000
3E00
3F80
61C0
60C0
60C0
60C0
4180
C700
FE00
ENDCHAR
STARTCHAR 0412
ENCODING 1042
SWIDTH 495 0
DWIDTH 11 0
BBX 11 14 1 0
BITMAP
1F80
1FC0
1860
3060
3040
30C0
3F00
7F80
60C0
60C0
60C0
4180
C780
FE00
ENDCHAR
STARTCHAR 0413
ENCODING 1043
SWIDTH 495 0
DWIDTH 11 0
BBX 12 14 1 0
BITMAP
07F0
07F0
0C00
0C00
0C00
0800
1800
1800
1800
1000
3000
3000
FE00
FC00
ENDCHAR
STARTCHAR 0414
ENCODING 1044
SWIDTH 495 0
DWIDTH 11 0
BBX 12 18 0 -4
BITMAP
03F0
03F0
0330
0630
0620
0660
0460
0C60
0C60
18C0
18C0
30C0
7FC0
FFC0
C0C0
C0C0
C080
8080
ENDCHAR
STARTCHAR 0415
ENCODING 1045
SWIDTH 495 0
DWIDTH 11 0
BBX 11 14 2 0
BITMAP
1FE0
1FC0
3000
3000
3000
2000
7F00
7F00
6000
4000
C000
C000
FF00
FF00
ENDCHAR
STARTCHAR 0416
ENCODING 1046
SWIDTH 495 0
DWIDTH 11 0
BBX 14 14 0 0
BITMAP
188C
0998
0990
0DB0
0D60
07C0
0780
0F80
1AC0
12C0
3640
6640
4460
C460
ENDCHAR
STARTCHAR 0417
ENCODING 1047
SWIDTH 495 0
DWIDTH 11 0
BBX 11 14 1 0
BITMAP
0F80
1FC0
0060
0060
00C0
01C0
1F00
1F80
01C0
00C0
00C0
0180
C780
FE00
ENDCHAR
STARTCHAR 0418
ENCODING 1048
SWIDTH 495 0
DWIDTH 11 0
BBX 12 14 1 0
BITMAP
1830
1870
10E0
31E0
3160
3360
2640
64C0
68C0
78C0
5080
E180
E180
C180
ENDCHAR
STARTCHAR 0419
ENCODING 1049
SWIDTH 495 0
DWIDTH 11 0
BBX 12 18 1 0
BITMAP
0620
0260
03C0
0000
1830
1870
10E0
31E0
3160
3360
2640
64C0
68C0
78C0
5080
E180
E180
C180
ENDCHAR
STARTCHAR 041A
ENCODING 1050
SWIDTH 495 0
DWIDTH 11 0
BBX 12 14 1 0
BITMAP
1830
1860
18C0
1180
3300
3600
3C00
2C00
6E00
6600
6300
4300
C180
C180
ENDCHAR
STARTCHAR 041B
ENCODING 1051
SWIDTH 495 0
DWIDTH 11 0
BBX 13 14 0 0
BITMAP
03F8
03F8
0330
0630
0630
0630
0460
0C60
0C60
1860
1840
30C0
70C0
C0C0
ENDCHAR
STARTCHAR 041C
ENCODING 1052
SWIDTH 495 0
DWIDTH 11 0
BBX 11 14 1 0
BITMAP
0820
1C60
1CE0
1CA0
3DE0
2D60
2760
6640
6440
40C0
C0C0
C0C0
C080
8180
ENDCHAR
STARTCHAR 041D
ENCODING 1053
SWIDTH 495 0
DWIDTH 11 0
BBX 12 14 1 0
BITMAP
1830
1830
1060
3060
3060
3060
3FC0
7FC0
60C0
60C0
4080
C180
C180
C180
ENDCHAR
STARTCHAR 041E
ENCODING 1054
SWIDTH 495 0
DWIDTH 11 0
BBX 10 14 2 0
BITMAP
0F00
1F80
30C0
60C0
60C0
40C0
C0C0
C0C0
C080
C180
C180
C300
E600
7C00
ENDCHAR
STARTCHAR 041F
ENCODING 1055
SWIDTH 495 0
DWIDTH 11 0
BBX 12 14 1 0
BITMAP
1FF0
1FF0
1060
3060
3060
3060
20C0
60C0
60C0
60C0
4080
C180
C180
C180
ENDCHAR
STARTCHAR 0420
ENCODING 1056
SWIDTH 495 0
DWIDTH 11 0
BBX 11 14 1 0
BITMAP
1F80
1FC0
1860
1860
3060
3060
30C0
3F80
3E00
6000
6000
6000
4000
C000
ENDCHAR
STARTCHAR 0421
ENCODING 1057
SWIDTH 495 0
DWIDTH 11 0
BBX 10 14 2 0
BITMAP
07C0
1FC0
3800
3000
6000
6000
C000
C000
C000
C000
C000
C000
7300
3F00
ENDCHAR
STARTCHAR 0422
ENCODING 1058
SWIDTH 495 0
DWIDTH 11 0
BBX 10 14 3 0
BITMAP
7FC0
FFC0
0C00
0C00
1800
1800
1800
1800
1000
3000
3000
3000
2000
6000
ENDCHAR
STARTCHAR 0423
ENCODING 1059
SWIDTH 495 0
DWIDTH 11 0
BBX 13 14 1 0
BITMAP
1018
1830
1830
1860
1860
08C0
0C80
0D80
0F00
0700
0600
0C00
9800
F000
ENDCHAR
STARTCHAR 0424
ENCODING 1060
SWIDTH 495 0
DWIDTH 11 0
BBX 10 15 2 0
BITMAP
0200
0200
0F00
3F80
66C0
64C0
CCC0
CCC0
CCC0
C980
D980
FF00
7E00
1000
3000
ENDCHAR
STARTCHAR 0425
ENCODING 1061
SWIDTH 495 0
DWIDTH 11 0
BBX 12 14 1 0
BITMAP
1830
1830
0C60
0CC0
0D80
0700
0700
0700
0F00
1B00
3180
6180
E180
C080
ENDCHAR
STARTCHAR 0426
ENCODING 1062
SWIDTH 495 0
DWIDTH 11 0
BBX 11 18 1 -4
BITMAP
1820
1860
1060
3060
3040
30C0
20C0
60C0
60C0
6180
4180
C180
FF80
FF80
0180
0180
0100
0100
ENDCHAR
STARTCHAR 0427
ENCODING 1063
SWIDTH 495 0
DWIDTH 11 0
BBX 10 14 3 0
BITMAP
60C0
60C0
4180
C180
C180
C180
C300
E700
7F00
0300
0200
0600
0600
0600
ENDCHAR
STARTCHAR 0428
ENCODING 1064
SWIDTH 495 0
DWIDTH 11 0
BBX 12 14 1 0
BITMAP
1830
1020
1020
3060
3060
2660
2640
66C0
64C0
6CC0
4C80
CD80
FF80
FF80
ENDCHAR
STARTCHAR 0429
ENCODING 1065
SWIDTH 495 0
DWIDTH 11 0
BBX 11 18 1 -4
BITMAP
1820
1020
1060
3060
3040
2640
26C0
64C0
6CC0
6C80
4D80
C980
FF80
FF80
0180
0180
0100
0100
ENDCHAR
STARTCHAR 042A
ENCODING 1066
SWIDTH 495 0
DWIDTH 11 0
BBX 9 14 2 0
BITMAP
7800
7800
1800
1000
3000
3E00
3F00
3180
6180
6180
6180
6300
CF00
FC00
ENDCHAR
STARTCHAR 042B
ENCODING 1067
SWIDTH 495 0
DWIDTH 11 0
BBX 13 14 0 0
BITMAP
0818
1818
1818
1810
1030
3C30
3F30
3320
2360
6360
6360
6640
6EC0
F8C0
ENDCHAR
STARTCHAR 042C
ENCODING 1068
SWIDTH 495 0
DWIDTH 11 0
BBX 10 14 1 0
BITMAP
1800
1800
1800
3000
3000
3E00
3F80
20C0
60C0
60C0
60C0
41C0
C780
FE00
ENDCHAR
STARTCHAR 042D
ENCODING 1069
SWIDTH 495 0
DWIDTH 11 0
BBX 11 14 1 0
BITMAP
0F80
1FC0
00C0
0060
0060
0060
0FE0
0FE0
0040
00C0
00C0
0180
4700
FE00
ENDCHAR
STARTCHAR 042E
ENCODING 1070
SWIDTH 495 0
DWIDTH 11 0
BBX 11 14 1 0
BITMAP
19E0
13E0
3320
3620
3620
2420
7C60
7C60
6C60
4C40
CCC0
CCC0
CD80
8F00
ENDCHAR
STARTCHAR 042F
ENCODING 1071
SWIDTH 495 0
DWIDTH 11 0
BBX 12 14 1 0
BITMAP
03F0
0FF0
1820
1860
3060
3060
1840
1FC0
0FC0
18C0
3080
6180
6180
C180
ENDCHAR
STARTCHAR 0430
ENCODING 1072
SWIDTH 495 0
DWIDTH 11 0
BBX 9 11 2 0
BITMAP
0200
1F80
3180
6180
C180
C100
8300
8300
C300
C700
7B00
ENDCHAR
STARTCHAR 0431
ENCODING 1073
SWIDTH 495 0
DWIDTH 11 0
BBX 11 15 2 0
BITMAP
03E0
0F80
1800
3000
3000
7F00
7B80
6180
C180
C180
C180
C180
C300
E600
7C00
ENDCHAR
STARTCHAR 0432
ENCODING 1074
SWIDTH 495 0
DWIDTH 11 0
BBX 10 11 1 0
BITMAP
0300
1F80
38C0
30C0
2180
7F00
6180
6180
6180
C380
FF00
ENDCHAR
STARTCHAR 0433
ENCODING 1075
SWIDTH 495 0
DWIDTH 11 0
BBX 9 11 2 0
BITMAP
0C00
3F00
0180
0180
0300
1E00
7800
C000
C000
C200
7E00
ENDCHAR
STARTCHAR 0434
ENCODING 1076
SWIDTH 495 0
DWIDTH 11 0
BBX 9 15 2 0
BITMAP
3E00
0300
0180
0180
0180
1F80
3180
6180
C180
C180
C180
C300
C300
E600
7C00
ENDCHAR
STARTCHAR 0435
ENCODING 1077
SWIDTH 495 0
DWIDTH 11 0
BBX 9 11 2 0
BITMAP
0600
3F80
7180
6180
C180
CF00
FC00
8000
C000
E300
7F00
ENDCHAR
STARTCHAR 0436
ENCODING 1078
SWIDTH 495 0
DWIDTH 11 0
BBX 12 10 0 0
BITMAP
3130
1B60
1B40
1AC0
1FC0
1680
1680
3480
24C0
E460
ENDCHAR
STARTCHAR 0437
ENCODING 1079
SWIDTH 495 0
DWIDTH 11 0
BBX 10 11 1 0
BITMAP
0700
1FC0
00C0
00C0
01C0
1F00
0380
0180
0180
6380
FF00
ENDCHAR
STARTCHAR 0438
ENCODING 1080
SWIDTH 495 0
DWIDTH 11 0
BBX 9 10 2 0
BITMAP
6180
6180
6180
4180
C300
C300
C300
C300
CF00
7B00
ENDCHAR
STARTCHAR 0439
ENCODING 1081
SWIDTH 495 0
DWIDTH 11 0
BBX 9 15 2 0
BITMAP
0880
1980
0F00
0000
0000
6180
6180
6180
4180
C300
C300
C300
C300
CF00
7B00
ENDCHAR
STARTCHAR 043A
ENCODING 1082
SWIDTH 495 0
DWIDTH 11 0
BBX 10 10 2 0
BITMAP
31C0
6300
6600
7C00
7000
D800
CC00
C600
C700
8300
ENDCHAR
STARTCHAR 043B
ENCODING 1083
SWIDTH 495 0
DWIDTH 11 0
BBX 11 10 0 0
BITMAP
07E0
0660
0660
0460
0C40
0CC0
18C0
30C0
7080
C180
ENDCHAR
STARTCHAR 043C
ENCODING 1084
SWIDTH 495 0
DWIDTH 11 0
BBX 11 10 1 0
BITMAP
3060
38E0
39E0
7940
6B40
4AC0
CEC0
CCC0
C0C0
8080
ENDCHAR
STARTCHAR 043D
ENCODING 1085
SWIDTH 495 0
DWIDTH 11 0
BBX 10 10 1 0
BITMAP
3040
30C0
30C0
30C0
3F80
6180
6180
6180
4100
C300
ENDCHAR
STARTCHAR 043E
ENCODING 1086
SWIDTH 495 0
DWIDTH 11 0
BBX 9 11 2 0
BITMAP
0400
3F00
7180
6180
C180
C180
C180
C180
C300
EE00
7C00
ENDCHAR
STARTCHAR 043F
ENCODING 1087
SWIDTH 495 0
DWIDTH 11 0
BBX 9 11 2 0
BITMAP
0400
3F00
6180
6180
6180
6180
C100
C300
C300
C300
8300
ENDCHAR
STARTCHAR 0440
ENCODING 1088
SWIDTH 495 0
DWIDTH 11 0
BBX 11 15 0 -4
BITMAP
0300
0FC0
1860
1860
1860
1060
3060
30E0
30C0
3380
7F00
6000
6000
4000
C000
ENDCHAR
STARTCHAR 0441
ENCODING 1089
SWIDTH 495 0
DWIDTH 11 0
BBX 9 11 2 0
BITMAP
0700
1F80
7000
6000
C000
C000
8000
8000
C000
E300
7F00
ENDCHAR
STARTCHAR 0442
ENCODING 1090
SWIDTH 495 0
DWIDTH 11 0
BBX 11 11 1 0
BITMAP
0880
3FC0
2660
6640
6640
64C0
4CC0
40C0
C080
C180
8180
ENDCHAR
STARTCHAR 0443
ENCODING 1091
SWIDTH 495 0
DWIDTH 11 0
BBX 12 14 0 -4
BITMAP
1830
1860
1860
1860
08C0
0CC0
0D80
0D80
0700
0600
0600
0C00
F800
E000
ENDCHAR
STARTCHAR 0444
ENCODING 1092
SWIDTH 495 0
DWIDTH 11 0
BBX 11 19 1 -4
BITMAP
0180
0100
0100
0300
0300
1FC0
32C0
6660
6660
4460
C460
CCC0
6CC0
7F80
3F00
1800
1800
1800
1000
ENDCHAR
STARTCHAR 0445
ENCODING 1093
SWIDTH 495 0
DWIDTH 11 0
BBX 11 10 1 0
BITMAP
30E0
18C0
1980
0F00
0E00
0E00
1B00
3300
6300
C180
ENDCHAR
STARTCHAR 0446
ENCODING 1094
SWIDTH 495 0
DWIDTH 11 0
BBX 9 13 2 -3
BITMAP
6180
6100
4300
C300
C300
C200
C600
C600
CF00
7B00
0300
0300
0200
ENDCHAR
STARTCHAR 0447
ENCODING 1095
SWIDTH 495 0
DWIDTH 11 0
BBX 9 10 2 0
BITMAP
6080
6180
4180
C180
E100
7F00
0300
0300
0200
0600
ENDCHAR
STARTCHAR 0448
ENCODING 1096
SWIDTH 495 0
DWIDTH 11 0
BBX 11 10 1 0
BITMAP
2060
6040
64C0
64C0
4CC0
CC80
C880
C980
DD80
FE80
ENDCHAR
STARTCHAR 0449
ENCODING 1097
SWIDTH 495 0
DWIDTH 11 0
BBX 11 13 1 -3
BITMAP
2060
6040
64C0
64C0
4CC0
CC80
C880
C980
DDC0
FEC0
00C0
00C0
0080
ENDCHAR
STARTCHAR 044A
ENCODING 1098
SWIDTH 495 0
DWIDTH 11 0
BBX 9 10 2 0
BITMAP
7000
3000
3000
3E00
3F00
6180
6180
6180
4300
FE00
ENDCHAR
STARTCHAR 044B
ENCODING 1099
SWIDTH 495 0
DWIDTH 11 0
BBX 11 10 1 0
BITMAP
3060
2060
6060
7840
7CC0
46C0
C6C0
C680
CD80
F980
ENDCHAR
STARTCHAR 044C
ENCODING 1100
SWIDTH 495 0
DWIDTH 11 0
BBX 9 10 2 0
BITMAP
3000
2000
6000
6C00
7F00
4180
C180
C100
C700
FE00
ENDCHAR
STARTCHAR 044D
ENCODING 1101
SWIDTH 495 0
DWIDTH 11 0
BBX 9 11 2 0
BITMAP
1C00
3F00
0380
0180
0180
3F80
0180
0100
0300
8E00
FC00
ENDCHAR
STARTCHAR 044E
ENCODING 1102
SWIDTH 495 0
DWIDTH 11 0
BBX 11 11 1 0
BITMAP
0080
33C0
3660
2660
6460
7C60
7C40
4CC0
CCC0
CD80
C700
ENDCHAR
STARTCHAR 044F
ENCODING 1103
SWIDTH 495 0
DWIDTH 11 0
BBX 10 11 1 0
BITMAP
0100
1FC0
38C0
30C0
30C0
3880
1F80
1980
3180
6180
C300
ENDCHAR
STARTCHAR 0450
ENCODING 1104
SWIDTH 495 0
DWIDTH 11 0
BBX 9 15 2 0
BITMAP
0400
0600
0300
0000
0600
3F80
7180
6180
C180
CF00
FC00
8000
C000
E300
7F00
ENDCHAR
STARTCHAR 0451
ENCODING 1105
SWIDTH 495 0
DWIDTH 11 0
BBX 10 14 2 1
BITMAP
0CC0
0C80
0000
0600
3F80
7180
6180
C180
CF00
FC00
8000
C000
E300
7F00
ENDCHAR
STARTCHAR 0452
ENCODING 1106
SWIDTH 495 0
DWIDTH 11 0
BBX 9 19 2 -4
BITMAP
1800
3F00
7F00
1000
3400
3F00
3180
2180
6180
6180
6100
4300
C300
C300
C300
0600
0600
1C00
3800
ENDCHAR
STARTCHAR 0453
ENCODING 1107
SWIDTH 495 0
DWIDTH 11 0
BBX 9 15 2 0
BITMAP
0100
0300
0600
0000
0C00
3F00
0180
0180
0300
1E00
7800
C000
C000
C200
7E00
ENDCHAR
STARTCHAR 0454
ENCODING 1108
SWIDTH 495 0
DWIDTH 11 0
BBX 9 11 2 0
BITMAP
0300
1F80
3000
6000
C000
FE00
C000
C000
C000
E300
7F00
ENDCHAR
STARTCHAR 0455
ENCODING 1109
SWIDTH 495 0
DWIDTH 11 0
BBX 9 11 2 0
BITMAP
0600
1F80
3000
3000
3000
1C00
0E00
0300
0300
C600
FC00
ENDCHAR
STARTCHAR 0456
ENCODING 1110
SWIDTH 495 0
DWIDTH 11 0
BBX 6 15 3 0
BITMAP
0C
1C
1C
00
00
F8
18
10
30
30
30
30
30
3C
1C
ENDCHAR
STARTCHAR 0457
ENCODING 1111
SWIDTH 495 0
DWIDTH 11 0
BBX 8 15 3 0
BITMAP
02
37
22
00
00
F8
18
10
30
30
30
30
30
3C
1C
ENDCHAR
STARTCHAR 0458
ENCODING 1112
SWIDTH 495 0
DWIDTH 11 0
BBX 10 19 1 -4
BITMAP
00C0
01C0
01C0
0000
0000
1F80
0180
0180
0180
0100
0300
0300
0300
0200
0600
0600
0600
FC00
7000
ENDCHAR
STARTCHAR 0459
ENCODING 1113
SWIDTH 495 0
DWIDTH 11 0
BBX 11 10 0 0
BITMAP
0F80
0D80
0900
1940
1BE0
1360
3260
3260
6640
C7C0
ENDCHAR
STARTCHAR 045A
ENCODING 1114
SWIDTH 495 0
DWIDTH 11 0
BBX 10 10 1 0
BITMAP
3300
3300
2200
6280
7FC0
66C0
44C0
C4C0
CC80
CF80
ENDCHAR
STARTCHAR 045B
ENCODING 1115
SWIDTH 495 0
DWIDTH 11 0
BBX 9 15 2 0
BITMAP
1800
3F00
7F00
1000
3400
3F00
3180
2180
6180
6180
6100
4300
C300
C300
C300
ENDCHAR
STARTCHAR 045C
ENCODING 1116
SWIDTH 495 0
DWIDTH 11 0
BBX 10 15 2 0
BITMAP
0100
0300
0600
0400
0000
31C0
6300
6600
7C00
7000
D800
CC00
C600
C700
8300
ENDCHAR
STARTCHAR 045D
ENCODING 1117
SWIDTH 495 0
DWIDTH 11 0
BBX 9 15 2 0
BITMAP
0800
0C00
0600
0200
0000
6180
6180
6180
4180
C300
C300
C300
C300
CF00
7B00
ENDCHAR
STARTCHAR 045E
ENCODING 1118
SWIDTH 495 0
DWIDTH 11 0
BBX 12 19 0 -4
BITMAP
0220
0660
03C0
0000
0000
1830
1860
1860
1860
08C0
0CC0
0D80
0D80
0700
0600
0600
0C00
F800
E000
ENDCHAR
STARTCHAR 045F
ENCODING 1119
SWIDTH 495 0
DWIDTH 11 0
BBX 9 14 2 -4
BITMAP
6180
6180
6180
4180
C300
C300
C300
C300
CF00
7B00
0000
3000
3000
2000
ENDCHAR
STARTCHAR 0462
ENCODING 1122
SWIDTH 495 0
DWIDTH 11 0
BBX 9 15 2 0
BITMAP
0800
1800
7F00
7F00
1000
3000
3800
3F00
3180
6180
6180
6180
6300
CF00
FC00
ENDCHAR
STARTCHAR 0463
ENCODING 1123
SWIDTH 495 0
DWIDTH 11 0
BBX 11 11 0 0
BITMAP
0400
3F00
3300
3300
23C0
23E0
6620
6620
6620
4460
C7C0
ENDCHAR
STARTCHAR 0472
ENCODING 1138
SWIDTH 495 0
DWIDTH 11 0
BBX 10 14 2 0
BITMAP
0F00
1F80
30C0
60C0
60C0
C0C0
F8C0
CFC0
C380
C180
C100
C300
E600
7C00
ENDCHAR
STARTCHAR 0473
ENCODING 1139
SWIDTH 495 0
DWIDTH 11 0
BBX 9 11 2 0
BITMAP
0600
3F00
7180
6180
C180
F980
C780
C180
C300
E600
7C00
ENDCHAR
STARTCHAR 0474
ENCODING 1140
SWIDTH 495 0
DWIDTH 11 0
BBX 11 14 3 0
BITMAP
C0E0
C1C0
C300
C300
C600
C600
CC00
CC00
D800
D800
F000
F000
E000
E000
ENDCHAR
STARTCHAR 0475
ENCODING 1141
SWIDTH 495 0
DWIDTH 11 0
BBX 9 11 3 0
BITMAP
0180
8380
C600
C600
CC00
C800
D800
D000
F000
E000
6000
ENDCHAR
STARTCHAR 048A
ENCODING 1162
SWIDTH 495 0
DWIDTH 11 0
BBX 11 21 1 -4
BITMAP
0440
06C0
0380
0000
1860
18E0
10E0
31C0
3340
32C0
24C0
6CC0
6880
7980
5180
E180
E180
C380
0180
0300
0600
ENDCHAR
STARTCHAR 048B
ENCODING 1163
SWIDTH 495 0
DWIDTH 11 0
BBX 9 18 2 -3
BITMAP
0880
1980
0F00
0000
0000
6180
6180
6100
4300
C300
C300
C200
C600
CF00
7B00
0300
0600
0C00
ENDCHAR
STARTCHAR 048C
ENCODING 1164
SWIDTH 495 0
DWIDTH 11 0
BBX 9 14 2 0
BITMAP
1800
1800
7E00
3000
3000
3E00
3F00
6300
6180
6180
4300
C300
CE00
FC00
ENDCHAR
STARTCHAR 048D
ENCODING 1165
SWIDTH 495 0
DWIDTH 11 0
BBX 8 11 2 0
BITMAP
30
FC
FC
60
7C
7F
43
C1
C3
C7
FE
ENDCHAR
STARTCHAR 048E
ENCODING 1166
SWIDTH 495 0
DWIDTH 11 0
BBX 11 14 1 0
BITMAP
1F80
1FC0
1860
1860
3060
3260
32C0
3F80
3F00
6100
6180
6000
4000
C000
ENDCHAR
STARTCHAR 048F
ENCODING 1167
SWIDTH 495 0
DWIDTH 11 0
BBX 11 15 0 -4
BITMAP
0300
0FC0
1860
1860
1860
1060
3060
32C0
33C0
2780
7F00
6100
6100
6000
C000
ENDCHAR
STARTCHAR 0490
ENCODING 1168
SWIDTH 495 0
DWIDTH 11 0
BBX 12 16 1 0
BITMAP
0030
0030
07F0
0FE0
0C00
0C00
0800
1800
1800
1800
1800
3000
3000
3000
FE00
FC00
ENDCHAR
STARTCHAR 0491
ENCODING 1169
SWIDTH 495 0
DWIDTH 11 0
BBX 9 13 2 0
BITMAP
0080
0180
0180
3F80
3000
3000
3000
2000
6000
6000
6000
4000
C000
ENDCHAR
STARTCHAR 0492
ENCODING 1170
SWIDTH 495 0
DWIDTH 11 0
BBX 12 14 1 0
BITMAP
07F0
07F0
0C00
0C00
0C00
0800
7F00
7F00
1800
1000
3000
3000
FE00
FC00
ENDCHAR
STARTCHAR 0493
ENCODING 1171
SWIDTH 495 0
DWIDTH 11 0
BBX 9 11 2 0
BITMAP
0C00
3F00
0180
0180
6300
1E00
7F00
C100
C000
C200
7E00
ENDCHAR
STARTCHAR 0494
ENCODING 1172
SWIDTH 495 0
DWIDTH 11 0
BBX 10 18 1 -4
BITMAP
1FC0
1FC0
1800
1000
3000
3600
3F80
2180
6180
60C0
60C0
4180
C180
C180
0300
0700
3E00
3000
ENDCHAR
STARTCHAR 0495
ENCODING 1173
SWIDTH 495 0
DWIDTH 11 0
BBX 8 14 2 -4
BITMAP
3F
60
60
60
7E
C7
C3
C3
C3
83
06
06
3C
30
ENDCHAR
STARTCHAR 0496
ENCODING 1174
SWIDTH 495 0
DWIDTH 11 0
BBX 14 18 0 -4
BITMAP
188C
0998
0990
0DB0
0D60
07C0
0780
0F80
1AC0
12C0
36C0
66C0
44E0
C460
0060
0040
00C0
00C0
ENDCHAR
STARTCHAR 0497
ENCODING 1175
SWIDTH 495 0
DWIDTH 11 0
BBX 12 13 0 -3
BITMAP
3130
1B60
1B40
1AC0
1FC0
1680
1680
3480
24D0
E460
0060
0060
0060
ENDCHAR
STARTCHAR 0498
ENCODING 1176
SWIDTH 495 0
DWIDTH 11 0
BBX 11 18 1 -4
BITMAP
0F80
1FC0
0060
0060
00C0
01C0
1F00
1F80
01C0
00C0
00C0
0180
C780
FE00
1800
1800
1800
7000
ENDCHAR
STARTCHAR 0499
ENCODING 1177
SWIDTH 495 0
DWIDTH 11 0
BBX 10 15 1 -4
BITMAP
0700
1FC0
00C0
00C0
01C0
1F00
0380
0180
0180
6380
FE00
0800
1800
0800
3800
ENDCHAR
STARTCHAR 049A
ENCODING 1178
SWIDTH 495 0
DWIDTH 11 0
BBX 12 18 1 -4
BITMAP
1830
1860
18C0
1180
3300
3600
3C00
2C00
6C00
6600
6300
4300
C380
C180
0180
0180
0100
0100
ENDCHAR
STARTCHAR 049B
ENCODING 1179
SWIDTH 495 0
DWIDTH 11 0
BBX 9 13 2 -3
BITMAP
3180
6300
6E00
7800
7000
D800
CC00
C400
C700
8300
0300
0300
0200
ENDCHAR
STARTCHAR 049C
ENCODING 1180
SWIDTH 495 0
DWIDTH 11 0
BBX 12 14 1 0
BITMAP
1030
3060
3060
34C0
3580
6F00
7E00
7E00
6B00
DB00
D300
C180
C180
8180
ENDCHAR
STARTCHAR 049D
ENCODING 1181
SWIDTH 495 0
DWIDTH 11 0
BBX 11 10 1 0
BITMAP
30E0
30C0
6D80
6B00
7E00
6E00
DB00
C300
C180
C180
ENDCHAR
STARTCHAR 049E
ENCODING 1182
SWIDTH 495 0
DWIDTH 11 0
BBX 12 14 1 0
BITMAP
0830
1860
7CC0
1980
1300
3600
3C00
3C00
2600
6300
6300
6180
4180
C0C0
ENDCHAR
STARTCHAR 049F
ENCODING 1183
SWIDTH 495 0
DWIDTH 11 0
BBX 10 11 2 0
BITMAP
3000
21C0
F300
6600
6C00
7800
D800
CC00
C600
C700
8300
ENDCHAR
STARTCHAR 04A0
ENCODING 1184
SWIDTH 495 0
DWIDTH 11 0
BBX 11 14 2 0
BITMAP
7860
78C0
1980
1380
3700
3600
3C00
3C00
6C00
6600
6600
6300
4300
C300
ENDCHAR
STARTCHAR 04A1
ENCODING 1185
SWIDTH 495 0
DWIDTH 11 0
BBX 10 10 2 0
BITMAP
71C0
3300
3600
3C00
3800
6C00
6600
6600
4300
C300
ENDCHAR
STARTCHAR 04A2
ENCODING 1186
SWIDTH 495 0
DWIDTH 11 0
BBX 12 18 1 -4
BITMAP
1830
1820
1060
3060
3060
3040
3FC0
7FC0
60C0
6080
4180
C180
C1C0
C180
0180
0180
0180
0100
ENDCHAR
STARTCHAR 04A3
ENCODING 1187
SWIDTH 495 0
DWIDTH 11 0
BBX 10 13 1 -3
BITMAP
3040
30C0
30C0
30C0
3F80
6180
6180
6180
4180
C380
0180
0180
0100
ENDCHAR
STARTCHAR 04A4
ENCODING 1188
SWIDTH 495 0
DWIDTH 11 0
BBX 13 14 1 0
BITMAP
1878
1878
1040
30C0
30C0
30C0
3FC0
7F80
6180
6180
4180
C300
C300
C300
ENDCHAR
STARTCHAR 04A5
ENCODING 1189
SWIDTH 495 0
DWIDTH 11 0
BBX 11 10 1 0
BITMAP
30E0
3080
3180
2180
7F80
6100
6300
4300
C300
C200
ENDCHAR
STARTCHAR 04A6
ENCODING 1190
SWIDTH 495 0
DWIDTH 11 0
BBX 10 18 1 -4
BITMAP
1F00
1F00
3200
3200
3600
2700
67C0
64C0
6CC0
4CC0
CCC0
C8C0
D8C0
9980
0180
0300
0600
0C00
ENDCHAR
STARTCHAR 04A7
ENCODING 1191
SWIDTH 495 0
DWIDTH 11 0
BBX 10 15 1 -4
BITMAP
0800
3E00
6600
6600
6600
47C0
C4C0
CCC0
CCC0
8CC0
88C0
0080
0180
0700
0E00
ENDCHAR
STARTCHAR 04A8
ENCODING 1192
SWIDTH 495 0
DWIDTH 11 0
BBX 10 18 2 -4
BITMAP
0FC0
1F80
3000
6000
C780
CD80
D880
D880
9980
9180
9180
D300
D600
7C00
1800
1C00
0F00
0300
ENDCHAR
STARTCHAR 04A9
ENCODING 1193
SWIDTH 495 0
DWIDTH 11 0
BBX 10 14 1 -3
BITMAP
0200
1F00
3800
7380
67C0
4CC0
4CC0
CCC0
4980
6B80
3E00
0C00
0700
0300
ENDCHAR
STARTCHAR 04AA
ENCODING 1194
SWIDTH 495 0
DWIDTH 11 0
BBX 10 18 2 -4
BITMAP
07C0
1FC0
3800
3000
6000
6000
C000
C000
C000
C000
C000
C000
7300
3F00
1000
1800
1800
7000
ENDCHAR
STARTCHAR 04AB
ENCODING 1195
SWIDTH 495 0
DWIDTH 11 0
BBX 9 15 2 -4
BITMAP
0700
1F80
7000
6000
C000
C000
8000
8000
C000
E300
7F00
1000
3800
5800
7000
ENDCHAR
STARTCHAR 04AC
ENCODING 1196
SWIDTH 495 0
DWIDTH 11 0
BBX 10 18 3 -4
BITMAP
7FC0
FFC0
0C00
0C00
1800
1800
1800
1800
1000
3000
3000
3000
3000
7000
3000
3000
2000
6000
ENDCHAR
STARTCHAR 04AD
ENCODING 1197
SWIDTH 495 0
DWIDTH 11 0
BBX 11 14 1 -3
BITMAP
0880
3FC0
2660
6640
6640
64C0
4CC0
40C0
C080
C1C0
81C0
0080
0180
0180
ENDCHAR
STARTCHAR 04AE
ENCODING 1198
SWIDTH 495 0
DWIDTH 11 0
BBX 11 14 3 0
BITMAP
C060
C0C0
4180
6180
6300
6600
2400
3C00
3800
3000
3000
3000
3000
6000
ENDCHAR
STARTCHAR 04AF
ENCODING 1199
SWIDTH 495 0
DWIDTH 11 0
BBX 9 14 3 -4
BITMAP
C180
C300
C300
C600
C600
CC00
4800
7800
7000
6000
6000
6000
4000
C000
ENDCHAR
STARTCHAR 04B0
ENCODING 1200
SWIDTH 495 0
DWIDTH 11 0
BBX 11 14 3 0
BITMAP
C060
C0C0
4180
6180
6300
2600
3C00
3800
FE00
FE00
3000
3000
3000
6000
ENDCHAR
STARTCHAR 04B1
ENCODING 1201
SWIDTH 495 0
DWIDTH 11 0
BBX 10 14 2 -4
BITMAP
60C0
6180
6180
6300
6300
2600
2400
3C00
3800
FE00
3000
3000
2000
6000
ENDCHAR
STARTCHAR 04B2
ENCODING 1202
SWIDTH 495 0
DWIDTH 11 0
BBX 12 18 1 -4
BITMAP
1830
1860
0CC0
0CC0
0D80
0700
0600
0E00
1F00
1B00
3300
6100
E180
C180
0180
0180
0100
0100
ENDCHAR
STARTCHAR 04B3
ENCODING 1203
SWIDTH 495 0
DWIDTH 11 0
BBX 10 13 1 -3
BITMAP
30C0
1980
1B00
0E00
0E00
0E00
1E00
3300
6380
C380
0180
0180
0100
ENDCHAR
STARTCHAR 04B4
ENCODING 1204
SWIDTH 495 0
DWIDTH 11 0
BBX 10 18 2 -4
BITMAP
7E40
7EC0
10C0
30C0
3080
3180
2180
6180
6180
6300
6300
C300
FF00
FF00
0300
0300
0200
0200
ENDCHAR
STARTCHAR 04B5
ENCODING 1205
SWIDTH 495 0
DWIDTH 11 0
BBX 9 13 2 -3
BITMAP
FD80
2180
6180
6180
6300
4300
C300
C300
E780
7B00
0300
0300
0300
ENDCHAR
STARTCHAR 04B6
ENCODING 1206
SWIDTH 495 0
DWIDTH 11 0
BBX 9 18 3 -4
BITMAP
6080
6180
4180
C180
C100
C300
C300
E700
7F00
0600
0600
0600
0600
0600
0600
0600
0400
0400
ENDCHAR
STARTCHAR 04B7
ENCODING 1207
SWIDTH 495 0
DWIDTH 11 0
BBX 9 13 2 -3
BITMAP
6080
6180
4180
C180
E100
7F00
0300
0300
0300
0700
0300
0300
0200
ENDCHAR
STARTCHAR 04B8
ENCODING 1208
SWIDTH 495 0
DWIDTH 11 0
BBX 10 14 3 0
BITMAP
60C0
60C0
4180
C180
C180
D980
DB00
F700
7F00
1300
3200
3600
0600
0600
ENDCHAR
STARTCHAR 04B9
ENCODING 1209
SWIDTH 495 0
DWIDTH 11 0
BBX 9 10 2 0
BITMAP
6080
6180
4180
C980
E900
7F00
1300
1300
0200
0600
ENDCHAR
STARTCHAR 04BA
ENCODING 1210
SWIDTH 495 0
DWIDTH 11 0
BBX 10 14 1 0
BITMAP
1800
1800
1800
1000
3000
3F80
3BC0
20C0
60C0
60C0
60C0
4180
C180
C180
ENDCHAR
STARTCHAR 04BB
ENCODING 1211
SWIDTH 495 0
DWIDTH 11 0
BBX 10 15 1 0
BITMAP
1800
1800
1800
1800
3200
3F80
3180
30C0
20C0
6180
6180
6180
4180
C100
C300
ENDCHAR
STARTCHAR 04BC
ENCODING 1212
SWIDTH 495 0
DWIDTH 11 0
BBX 11 14 2 0
BITMAP
0380
06C0
0C40
0860
D840
D840
FFC0
3FC0
3000
3000
3000
3000
3900
1F00
ENDCHAR
STARTCHAR 04BD
ENCODING 1213
SWIDTH 495 0
DWIDTH 11 0
BBX 11 11 1 0
BITMAP
0180
07C0
0C60
4C60
D860
7BC0
3F00
1000
1800
1C80
0F80
ENDCHAR
STARTCHAR 04BE
ENCODING 1214
SWIDTH 495 0
DWIDTH 11 0
BBX 11 18 2 -4
BITMAP
0380
06C0
0C40
0860
D840
D840
FFC0
3FC0
3000
3000
3000
3000
3900
1F00
0C00
0C00
0800
1800
ENDCHAR
STARTCHAR 04BF
ENCODING 1215
SWIDTH 495 0
DWIDTH 11 0
BBX 11 14 1 -3
BITMAP
0180
07C0
0C60
4C60
D860
7BC0
3F00
1000
1800
1C80
0F80
0600
0400
0C00
ENDCHAR
STARTCHAR 04C0
ENCODING 1216
SWIDTH 495 0
DWIDTH 11 0
BBX 10 14 2 0
BITMAP
1FC0
1FC0
0600
0600
0400
0C00
0C00
0C00
0800
1800
1800
1800
FE00
FE00
ENDCHAR
STARTCHAR 04C1
ENCODING 1217
SWIDTH 495 0
DWIDTH 11 0
BBX 14 18 0 0
BITMAP
0310
0330
01E0
0000
188C
0998
0990
0DB0
0D60
07C0
0780
0F80
1AC0
12C0
3640
6640
4460
C460
ENDCHAR
STARTCHAR 04C2
ENCODING 1218
SWIDTH 495 0
DWIDTH 11 0
BBX 12 15 0 0
BITMAP
0220
0360
03C0
0000
0000
3130
1B60
1B40
1AC0
1FC0
1680
1680
3480
24C0
E460
ENDCHAR
STARTCHAR 04C3
ENCODING 1219
SWIDTH 495 0
DWIDTH 11 0
BBX 12 18 1 -4
BITMAP
1830
1860
18C0
1180
3300
3600
3C00
3F00
6180
6080
60C0
4080
C180
C180
0380
0700
3E00
3800
ENDCHAR
STARTCHAR 04C4
ENCODING 1220
SWIDTH 495 0
DWIDTH 11 0
BBX 9 14 2 -4
BITMAP
3180
6300
6600
7C00
7C00
C600
C300
C300
C300
8300
0200
0600
3C00
3000
ENDCHAR
STARTCHAR 04C5
ENCODING 1221
SWIDTH 495 0
DWIDTH 11 0
BBX 12 17 0 -4
BITMAP
03F0
03F0
0330
0220
0660
0660
0460
0C40
0CC0
18C0
18C0
30C0
71C0
C1C0
00C0
0180
0300
ENDCHAR
STARTCHAR 04C6
ENCODING 1222
SWIDTH 495 0
DWIDTH 11 0
BBX 11 13 0 -3
BITMAP
07E0
0660
0640
04C0
0CC0
0CC0
18C0
3180
71C0
C1C0
0080
0180
0300
ENDCHAR
STARTCHAR 04C7
ENCODING 1223
SWIDTH 495 0
DWIDTH 11 0
BBX 12 18 1 -4
BITMAP
1830
1830
1060
3060
3060
3060
3FC0
7FC0
60C0
60C0
4080
C180
C180
C180
0100
0300
0F00
0C00
ENDCHAR
STARTCHAR 04C8
ENCODING 1224
SWIDTH 495 0
DWIDTH 11 0
BBX 10 14 1 -4
BITMAP
3040
30C0
30C0
30C0
3F80
6180
6180
6180
4100
C300
0300
0300
0E00
1C00
ENDCHAR
STARTCHAR 04C9
ENCODING 1225
SWIDTH 495 0
DWIDTH 11 0
BBX 11 17 1 -4
BITMAP
1820
1860
1060
3060
3040
30C0
3FC0
7FC0
6080
6180
4180
C180
C180
C380
0180
0300
0700
ENDCHAR
STARTCHAR 04CA
ENCODING 1226
SWIDTH 495 0
DWIDTH 11 0
BBX 10 13 1 -3
BITMAP
30C0
30C0
3080
3180
3F80
6180
6180
6300
4380
C380
0100
0300
0600
ENDCHAR
STARTCHAR 04CB
ENCODING 1227
SWIDTH 495 0
DWIDTH 11 0
BBX 10 18 3 -4
BITMAP
60C0
60C0
4180
C180
C180
C180
C300
E700
7F00
0300
0200
0600
0E00
0E00
0800
1800
1800
1800
ENDCHAR
STARTCHAR 04CC
ENCODING 1228
SWIDTH 495 0
DWIDTH 11 0
BBX 9 13 2 -3
BITMAP
6080
6180
4180
C180
E100
7F00
0300
0300
0600
0E00
0C00
0C00
0C00
ENDCHAR
STARTCHAR 04CD
ENCODING 1229
SWIDTH 495 0
DWIDTH 11 0
BBX 11 18 1 -4
BITMAP
1860
18E0
18C0
29C0
2940
2BC0
6EC0
6EC0
4C80
4080
C180
C180
81C0
81C0
0180
0180
0300
0200
ENDCHAR
STARTCHAR 04CE
ENCODING 1230
SWIDTH 495 0
DWIDTH 11 0
BBX 10 13 1 -3
BITMAP
30C0
31C0
71C0
73C0
5280
5E80
DD80
D980
81C0
8180
0180
0180
0300
ENDCHAR
STARTCHAR 04CF
ENCODING 1231
SWIDTH 495 0
DWIDTH 11 0
BBX 10 14 2 0
BITMAP
1FC0
1FC0
0600
0600
0400
0C00
0C00
0C00
0800
1800
1800
1800
FE00
FE00
ENDCHAR
STARTCHAR 04D0
ENCODING 1232
SWIDTH 495 0
DWIDTH 11 0
BBX 12 18 0 0
BITMAP
0310
0330
01E0
0000
0180
03C0
03C0
06C0
04C0
0CC0
08C0
18C0
10C0
3FC0
6040
6040
C040
C040
ENDCHAR
STARTCHAR 04D1
ENCODING 1233
SWIDTH 495 0
DWIDTH 11 0
BBX 10 15 2 0
BITMAP
0440
0CC0
0780
0000
0200
1F80
3180
6180
C180
C100
8300
8300
C300
C700
7B00
ENDCHAR
STARTCHAR 04D2
ENCODING 1234
SWIDTH 495 0
DWIDTH 11 0
BBX 12 18 0 0
BITMAP
0120
0330
0220
0000
0180
03C0
03C0
06C0
04C0
0CC0
08C0
18C0
10C0
3FC0
6040
6040
C040
C040
ENDCHAR
STARTCHAR 04D3
ENCODING 1235
SWIDTH 495 0
DWIDTH 11 0
BBX 10 14 2 1
BITMAP
0CC0
0C80
0000
0200
1F80
3180
6180
C180
C100
8300
8300
C300
C700
7B00
ENDCHAR
STARTCHAR 04D4
ENCODING 1236
SWIDTH 495 0
DWIDTH 11 0
BBX 13 14 0 0
BITMAP
00F8
01F8
03C0
02C0
0680
0480
0DE0
09E0
1980
3F00
3300
6300
63E0
C3C0
ENDCHAR
STARTCHAR 04D5
ENCODING 1237
SWIDTH 495 0
DWIDTH 11 0
BBX 11 11 1 0
BITMAP
1040
3DE0
0F60
0660
0660
3FC0
6700
CC00
CC00
DE80
F780
ENDCHAR
STARTCHAR 04D6
ENCODING 1238
SWIDTH 495 0
DWIDTH 11 0
BBX 11 18 2 0
BITMAP
0440
06C0
0780
0000
1FE0
1FC0
3000
3000
3000
2000
7F00
7F00
6000
4000
C000
C000
FF00
FF00
ENDCHAR
STARTCHAR 04D7
ENCODING 1239
SWIDTH 495 0
DWIDTH 11 0
BBX 9 15 2 0
BITMAP
0880
0D80
0700
0000
0600
3F80
7180
6180
C180
CF00
FC00
8000
C000
E300
7F00
ENDCHAR
STARTCHAR 04D8
ENCODING 1240
SWIDTH 495 0
DWIDTH 11 0
BBX 10 14 2 0
BITMAP
1F00
3B80
0180
00C0
00C0
00C0
00C0
FFC0
C080
8180
8180
C300
E600
7C00
ENDCHAR
STARTCHAR 04D9
ENCODING 1241
SWIDTH 495 0
DWIDTH 11 0
BBX 10 11 2 0
BITMAP
0C00
3F00
0180
00C0
00C0
3F80
7180
C180
C300
C700
7C00
ENDCHAR
STARTCHAR 04DA
ENCODING 1242
SWIDTH 495 0
DWIDTH 11 0
BBX 10 18 2 0
BITMAP
0C80
0CC0
0880
0000
1F00
3B80
0180
00C0
00C0
00C0
00C0
FFC0
C080
8180
8180
C300
E600
7C00
ENDCHAR
STARTCHAR 04DB
ENCODING 1243
SWIDTH 495 0
DWIDTH 11 0
BBX 10 15 2 0
BITMAP
0880
1D80
0980
0000
0C00
3F00
0180
00C0
00C0
3F80
7180
C180
C300
C700
7C00
ENDCHAR
STARTCHAR 04DC
ENCODING 1244
SWIDTH 495 0
DWIDTH 11 0
BBX 14 18 0 0
BITMAP
0110
0330
0130
0000
188C
0998
0990
0DB0
0D60
07C0
0780
0F80
1AC0
12C0
3640
6640
4460
C460
ENDCHAR
STARTCHAR 04DD
ENCODING 1245
SWIDTH 495 0
DWIDTH 11 0
BBX 12 15 0 0
BITMAP
0200
0660
0660
0000
0000
3130
1B60
1B40
1AC0
1FC0
1680
1680
3480
24C0
E460
ENDCHAR
STARTCHAR 04DE
ENCODING 1246
SWIDTH 495 0
DWIDTH 11 0
BBX 11 18 1 0
BITMAP
0440
06E0
0440
0000
0F80
1FC0
0060
0060
00C0
01C0
1F00
1F80
01C0
00C0
00C0
0180
C780
FE00
ENDCHAR
STARTCHAR 04DF
ENCODING 1247
SWIDTH 495 0
DWIDTH 11 0
BBX 10 15 1 0
BITMAP
0440
0EC0
04C0
0000
0700
1FC0
00C0
00C0
01C0
1F00
0380
0180
0180
6380
FF00
ENDCHAR
STARTCHAR 04E0
ENCODING 1248
SWIDTH 495 0
DWIDTH 11 0
BBX 12 14 1 0
BITMAP
1FF0
1FE0
00C0
0180
0300
0600
0F00
0380
00C0
00C0
00C0
0180
C380
FE00
ENDCHAR
STARTCHAR 04E1
ENCODING 1249
SWIDTH 495 0
DWIDTH 11 0
BBX 10 14 1 -4
BITMAP
1FC0
0080
0100
0200
0400
1800
1F00
0300
0100
0100
0300
0700
FE00
7800
ENDCHAR
STARTCHAR 04E2
ENCODING 1250
SWIDTH 495 0
DWIDTH 11 0
BBX 12 17 1 0
BITMAP
07E0
0000
0000
1830
1870
10E0
31E0
3160
3360
2640
64C0
68C0
78C0
5080
E180
E180
C180
ENDCHAR
STARTCHAR 04E3
ENCODING 1251
SWIDTH 495 0
DWIDTH 11 0
BBX 9 14 2 0
BITMAP
1F80
0000
0000
0000
6180
6180
6180
4180
C300
C300
C300
C300
CF00
7B00
ENDCHAR
STARTCHAR 04E4
ENCODING 1252
SWIDTH 495 0
DWIDTH 11 0
BBX 12 18 1 0
BITMAP
0240
0660
0640
0000
1830
1870
10E0
31E0
3160
3360
2640
64C0
68C0
78C0
5080
E180
E180
C180
ENDCHAR
STARTCHAR 04E5
ENCODING 1253
SWIDTH 495 0
DWIDTH 11 0
BBX 9 15 2 0
BITMAP
0800
1980
1980
0000
0000
6180
6180
6180
4180
C300
C300
C300
C300
CF00
7B00
ENDCHAR
STARTCHAR 04E6
ENCODING 1254
SWIDTH 495 0
DWIDTH 11 0
BBX 10 18 2 0
BITMAP
04C0
0CC0
0C80
0000
0F00
1F80
30C0
60C0
60C0
40C0
C0C0
C0C0
C080
C180
C180
C300
E600
7C00
ENDCHAR
STARTCHAR 04E7
ENCODING 1255
SWIDTH 495 0
DWIDTH 11 0
BBX 10 15 2 0
BITMAP
0880
0DC0
0880
0000
0400
3F00
7180
6180
C180
C180
C180
C180
C300
EE00
7C00
ENDCHAR
STARTCHAR 04E8
ENCODING 1256
SWIDTH 495 0
DWIDTH 11 0
BBX 10 14 2 0
BITMAP
0F00
1F80
30C0
60C0
60C0
C0C0
FFC0
FFC0
C180
C180
C100
C300
E600
7C00
ENDCHAR
STARTCHAR 04E9
ENCODING 1257
SWIDTH 495 0
DWIDTH 11 0
BBX 9 11 2 0
BITMAP
0400
3F00
7180
6180
C180
FF80
C180
C180
C300
EE00
7C00
ENDCHAR
STARTCHAR 04EA
ENCODING 1258
SWIDTH 495 0
DWIDTH 11 0
BBX 10 18 2 0
BITMAP
0440
0CC0
04C0
0000
0F00
1F80
30C0
60C0
60C0
C0C0
FFC0
FFC0
C180
C180
C100
C300
E600
7C00
ENDCHAR
STARTCHAR 04EB
ENCODING 1259
SWIDTH 495 0
DWIDTH 11 0
BBX 10 15 2 0
BITMAP
0880
0DC0
0880
0000
0400
3F00
7180
6180
C180
FF80
C180
C180
C300
EE00
7C00
ENDCHAR
STARTCHAR 04EC
ENCODING 1260
SWIDTH 495 0
DWIDTH 11 0
BBX 11 18 1 0
BITMAP
0640
0660
0440
0000
0F80
1FC0
00C0
0060
0060
0060
0FE0
0FE0
0040
00C0
00C0
0180
4700
FE00
ENDCHAR
STARTCHAR 04ED
ENCODING 1261
SWIDTH 495 0
DWIDTH 11 0
BBX 9 15 2 0
BITMAP
0880
1980
1980
0000
1C00
3F00
0380
0180
0180
3F80
0180
0100
0300
8E00
FC00
ENDCHAR
STARTCHAR 04EE
ENCODING 1262
SWIDTH 495 0
DWIDTH 11 0
BBX 13 17 1 0
BITMAP
07E0
0000
0000
1018
1830
1830
1860
1860
08C0
0C80
0D80
0F00
0700
0600
0C00
9800
F000
ENDCHAR
STARTCHAR 04EF
ENCODING 1263
SWIDTH 495 0
DWIDTH 11 0
BBX 12 18 0 -4
BITMAP
07E0
0000
0000
0000
1830
1860
1860
1860
08C0
0CC0
0D80
0D80
0700
0600
0600
0C00
F800
E000
ENDCHAR
STARTCHAR 04F0
ENCODING 1264
SWIDTH 495 0
DWIDTH 11 0
BBX 13 18 1 0
BITMAP
0220
0660
0260
0000
1018
1830
1830
1860
1860
08C0
0C80
0D80
0F00
0700
0600
0C00
9800
F000
ENDCHAR
STARTCHAR 04F1
ENCODING 1265
SWIDTH 495 0
DWIDTH 11 0
BBX 12 19 0 -4
BITMAP
0040
0660
0640
0000
0000
1830
1860
1860
1860
08C0
0CC0
0D80
0D80
0700
0600
0600
0C00
F800
E000
ENDCHAR
STARTCHAR 04F2
ENCODING 1266
SWIDTH 495 0
DWIDTH 11 0
BBX 13 18 1 0
BITMAP
0190
0330
0660
0000
1018
1830
1830
1860
1860
08C0
0C80
0D80
0F00
0700
0600
0C00
9800
F000
ENDCHAR
STARTCHAR 04F3
ENCODING 1267
SWIDTH 495 0
DWIDTH 11 0
BBX 12 19 0 -4
BITMAP
0190
0330
0660
0000
0000
1830
1860
1860
1860
08C0
0CC0
0D80
0D80
0700
0600
0600
0C00
F800
E000
ENDCHAR
STARTCHAR 04F4
ENCODING 1268
SWIDTH 495 0
DWIDTH 11 0
BBX 10 18 3 0
BITMAP
1100
1B80
1100
0000
60C0
60C0
4180
C180
C180
C180
C300
E700
7F00
0300
0200
0600
0600
0600
ENDCHAR
STARTCHAR 04F5
ENCODING 1269
SWIDTH 495 0
DWIDTH 11 0
BBX 9 15 2 0
BITMAP
0800
1980
1980
0000
0000
6080
6180
4180
C180
E100
7F00
0300
0300
0200
0600
ENDCHAR
STARTCHAR 04F6
ENCODING 1270
SWIDTH 495 0
DWIDTH 11 0
BBX 12 18 1 -4
BITMAP
07F0
07F0
0C00
0C00
0C00
0800
1800
1800
1800
1000
3000
3000
FE00
FC00
0C00
0C00
0C00
0800
ENDCHAR
STARTCHAR 04F7
ENCODING 1271
SWIDTH 495 0
DWIDTH 11 0
BBX 9 14 2 -3
BITMAP
0C00
3F00
0180
0180
0300
1E00
7800
C000
C000
C200
7E00
0600
0600
0400
ENDCHAR
STARTCHAR 04F8
ENCODING 1272
SWIDTH 495 0
DWIDTH 11 0
BBX 13 18 0 0
BITMAP
0220
0370
0220
0000
0818
1818
1818
1810
1030
3C30
3F30
3320
2360
6360
6360
6640
6EC0
F8C0
ENDCHAR
STARTCHAR 04F9
ENCODING 1273
SWIDTH 495 0
DWIDTH 11 0
BBX 11 15 1 0
BITMAP
0440
0CC0
0CC0
0000
0000
3060
2060
6060
7840
7CC0
46C0
C6C0
C680
CD80
F980
ENDCHAR
STARTCHAR 1E80
ENCODING 7808
SWIDTH 495 0
DWIDTH 11 0
BBX 12 18 1 0
BITMAP
0300
0300
0180
0080
1010
3030
3030
3020
2060
2660
6660
6E40
6AC0
52C0
5280
6280
E380
C300
ENDCHAR
STARTCHAR 1E81
ENCODING 7809
SWIDTH 495 0
DWIDTH 11 0
BBX 11 15 2 0
BITMAP
0C00
0600
0200
0000
0000
C060
C040
CCC0
CC80
DC80
D580
B500
A700
C600
C600
ENDCHAR
STARTCHAR 1E82
ENCODING 7810
SWIDTH 495 0
DWIDTH 11 0
BBX 12 18 1 0
BITMAP
0040
00C0
0180
0000
1010
3030
3030
3020
2060
2660
6660
6E40
6AC0
52C0
5280
6280
E380
C300
ENDCHAR
STARTCHAR 1E83
ENCODING 7811
SWIDTH 495 0
DWIDTH 11 0
BBX 11 15 2 0
BITMAP
0100
0300
0600
0400
0000
C060
C040
CCC0
CC80
DC80
D580
B500
A700
C600
C600
ENDCHAR
STARTCHAR 1E84
ENCODING 7812
SWIDTH 495 0
DWIDTH 11 0
BBX 12 18 1 0
BITMAP
0220
0660
0260
0000
1010
3030
3030
3020
2060
2660
6660
6E40
6AC0
52C0
5280
6280
E380
C300
ENDCHAR
STARTCHAR 1E85
ENCODING 7813
SWIDTH 495 0
DWIDTH 11 0
BBX 11 15 2 0
BITMAP
0880
1D80
0980
0000
0000
C060
C040
CCC0
CC80
DC80
D580
B500
A700
C600
C600
ENDCHAR
STARTCHAR 1EF2
ENCODING 7922
SWIDTH 495 0
DWIDTH 11 0
BBX 11 18 3 0
BITMAP
1800
0C00
0600
0000
C060
C0C0
4180
6180
6300
6600
2400
3C00
3800
3000
3000
3000
3000
6000
ENDCHAR
STARTCHAR 1EF3
ENCODING 7923
SWIDTH 495 0
DWIDTH 11 0
BBX 12 19 0 -4
BITMAP
0200
0300
0180
0000
0000
1830
1860
1860
1860
08C0
0CC0
0D80
0D80
0700
0600
0600
0C00
F800
E000
ENDCHAR
STARTCHAR 1F00
ENCODING 7936
SWIDTH 495 0
DWIDTH 11 0
BBX 9 15 2 0
BITMAP
0300
0300
0200
0400
0300
1F80
3180
6180
C180
C300
C300
C300
C300
E700
7D80
ENDCHAR
STARTCHAR 1F01
ENCODING 7937
SWIDTH 495 0
DWIDTH 11 0
BBX 9 15 2 0
BITMAP
0700
0600
0200
0000
0300
1F80
3180
6180
C180
C300
C300
C300
C300
E700
7D80
ENDCHAR
STARTCHAR 1F02
ENCODING 7938
SWIDTH 495 0
DWIDTH 11 0
BBX 10 15 2 1
BITMAP
0D80
0480
08C0
0000
0300
1F80
3180
6180
C180
C300
C300
C300
C300
E700
7D80
ENDCHAR
STARTCHAR 1F03
ENCODING 7939
SWIDTH 495 0
DWIDTH 11 0
BBX 9 16 2 0
BITMAP
0100
1B00
1900
0980
0000
0300
1F80
3180
6180
C180
C300
C300
C300
C300
E700
7D80
ENDCHAR
STARTCHAR 1F04
ENCODING 7940
SWIDTH 495 0
DWIDTH 11 0
BBX 10 15 2 1
BITMAP
0640
06C0
0D80
0800
0300
1F80
3180
6180
C180
C300
C300
C300
C300
E700
7D80
ENDCHAR
STARTCHAR 1F05
ENCODING 7941
SWIDTH 495 0
DWIDTH 11 0
BBX 10 15 2 1
BITMAP
0CC0
0980
0B00
0000
0300
1F80
3180
6180
C180
C300
C300
C300
C300
E700
7D80
ENDCHAR
STARTCHAR 1F06
ENCODING 7942
SWIDTH 495 0
DWIDTH 11 0
BBX 10 17 2 0
BITMAP
0780
04C0
0300
0300
0600
0000
0300
1F80
3180
6180
C180
C300
C300
C300
C300
E700
7D80
ENDCHAR
STARTCHAR 1F07
ENCODING 7943
SWIDTH 495 0
DWIDTH 11 0
BBX 10 17 2 0
BITMAP
0780
04C0
0300
0300
0200
0000
0300
1F80
3180
6180
C180
C300
C300
C300
C300
E700
7D80
ENDCHAR
STARTCHAR 1F08
ENCODING 7944
SWIDTH 495 0
DWIDTH 11 0
BBX 10 14 0 0
BITMAP
19C0
19C0
1BC0
36C0
04C0
0CC0
08C0
1840
1040
3FC0
2040
6040
4040
C040
ENDCHAR
STARTCHAR 1F09
ENCODING 7945
SWIDTH 495 0
DWIDTH 11 0
BBX 10 14 0 0
BITMAP
39C0
31C0
13C0
16C0
04C0
0CC0
08C0
1840
1040
3FC0
2040
6040
4040
C040
ENDCHAR
STARTCHAR 1F0A
ENCODING 7946
SWIDTH 495 0
DWIDTH 11 0
BBX 12 14 -2 0
BITMAP
6C70
6C70
64F0
C7B0
0130
0330
0230
0610
0410
0FF0
0810
1810
1010
3010
ENDCHAR
STARTCHAR 1F0B
ENCODING 7947
SWIDTH 495 0
DWIDTH 11 0
BBX 11 14 -1 0
BITMAP
D8E0
D8E0
C9E0
4F60
0260
0660
0460
0C20
0820
1FE0
1020
3020
2020
6020
ENDCHAR
STARTCHAR 1F0C
ENCODING 7948
SWIDTH 495 0
DWIDTH 11 0
BBX 11 14 -1 0
BITMAP
64E0
6CE0
69E0
9360
0260
0660
0460
0C20
0820
1FE0
1020
3020
2020
6020
ENDCHAR
STARTCHAR 1F0D
ENCODING 7949
SWIDTH 495 0
DWIDTH 11 0
BBX 11 14 -1 0
BITMAP
64E0
CCE0
49E0
7360
0260
0660
0460
0C20
0820
1FE0
1020
3020
2020
6020
ENDCHAR
STARTCHAR 1F0E
ENCODING 7950
SWIDTH 495 0
DWIDTH 11 0
BBX 10 15 0 0
BITMAP
3C00
45C0
11C0
33C0
36C0
04C0
0CC0
08C0
1840
1040
3FC0
2040
6040
4040
C040
ENDCHAR
STARTCHAR 1F0F
ENCODING 7951
SWIDTH 495 0
DWIDTH 11 0
BBX 10 15 0 0
BITMAP
3C00
45C0
31C0
33C0
36C0
14C0
0CC0
08C0
1840
1040
3FC0
2040
6040
4040
C040
ENDCHAR
STARTCHAR 1F10
ENCODING 7952
SWIDTH 495 0
DWIDTH 11 0
BBX 9 15 2 0
BITMAP
0300
0100
0200
0000
0600
3F80
3000
6000
6000
3E00
6000
C000
C000
E300
7F00
ENDCHAR
STARTCHAR 1F11
ENCODING 7953
SWIDTH 495 0
DWIDTH 11 0
BBX 9 15 2 0
BITMAP
0700
0600
0200
0000
0600
3F80
3000
6000
6000
3E00
6000
C000
C000
E300
7F00
ENDCHAR
STARTCHAR 1F12
ENCODING 7954
SWIDTH 495 0
DWIDTH 11 0
BBX 10 16 2 0
BITMAP
0080
0F80
0480
08C0
0000
0600
3F80
3000
6000
6000
3E00
6000
C000
C000
E300
7F00
ENDCHAR
STARTCHAR 1F13
ENCODING 7955
SWIDTH 495 0
DWIDTH 11 0
BBX 9 15 2 1
BITMAP
1F00
1900
0980
0000
0600
3F80
3000
6000
6000
3E00
6000
C000
C000
E300
7F00
ENDCHAR
STARTCHAR 1F14
ENCODING 7956
SWIDTH 495 0
DWIDTH 11 0
BBX 11 15 2 1
BITMAP
0660
06C0
0580
0800
0600
3F80
3000
6000
6000
3E00
6000
C000
C000
E300
7F00
ENDCHAR
STARTCHAR 1F15
ENCODING 7957
SWIDTH 495 0
DWIDTH 11 0
BBX 10 15 2 1
BITMAP
0CC0
0980
0900
0000
0600
3F80
3000
6000
6000
3E00
6000
C000
C000
E300
7F00
ENDCHAR
STARTCHAR 1F18
ENCODING 7960
SWIDTH 495 0
DWIDTH 11 0
BBX 12 14 0 0
BITMAP
6FF0
6FF0
6C00
8C00
0800
1800
1FC0
1FC0
1000
3000
3000
3000
3FC0
7FC0
ENDCHAR
STARTCHAR 1F19
ENCODING 7961
SWIDTH 495 0
DWIDTH 11 0
BBX 11 14 1 0
BITMAP
DFE0
DFE0
9800
5800
1000
3000
3F80
3F80
2000
6000
6000
6000
7F80
FF80
ENDCHAR
STARTCHAR 1F1A
ENCODING 7962
SWIDTH 495 0
DWIDTH 11 0
BBX 15 14 -3 0
BITMAP
79FE
69FE
4D80
8580
0100
0300
03F8
03F8
0200
0600
0600
0600
07F8
0FF8
ENDCHAR
STARTCHAR 1F1B
ENCODING 7963
SWIDTH 495 0
DWIDTH 11 0
BBX 15 14 -3 0
BITMAP
79FE
C9FE
4D80
4580
0100
0300
03F8
03F8
0200
0600
0600
0600
07F8
0FF8
ENDCHAR
STARTCHAR 1F1C
ENCODING 7964
SWIDTH 495 0
DWIDTH 11 0
BBX 15 14 -3 0
BITMAP
65FE
6DFE
5980
9180
0100
0300
03F8
03F8
0200
0600
0600
0600
07F8
0FF8
ENDCHAR
STARTCHAR 1F1D
ENCODING 7965
SWIDTH 495 0
DWIDTH 11 0
BBX 15 14 -3 0
BITMAP
C5FE
CDFE
5980
5180
0100
0300
03F8
03F8
0200
0600
0600
0600
07F8
0FF8
ENDCHAR
STARTCHAR 1F20
ENCODING 7968
SWIDTH 495 0
DWIDTH 11 0
BBX 9 19 2 -4
BITMAP
0300
0300
0600
0400
0400
3F00
6180
6180
6180
6180
C100
C300
C300
C300
8300
0600
0600
0600
0600
ENDCHAR
STARTCHAR 1F21
ENCODING 7969
SWIDTH 495 0
DWIDTH 11 0
BBX 9 19 2 -4
BITMAP
0600
0600
0200
0000
0400
3F00
6180
6180
6180
6180
C100
C300
C300
C300
8300
0600
0600
0600
0600
ENDCHAR
STARTCHAR 1F22
ENCODING 7970
SWIDTH 495 0
DWIDTH 11 0
BBX 9 19 2 -3
BITMAP
0D80
0D80
0880
0080
0400
3F00
6180
6180
6180
6180
C100
C300
C300
C300
8300
0600
0600
0600
0600
ENDCHAR
STARTCHAR 1F23
ENCODING 7971
SWIDTH 495 0
DWIDTH 11 0
BBX 9 19 2 -3
BITMAP
1B00
1900
0980
0000
0400
3F00
6180
6180
6180
6180
C100
C300
C300
C300
8300
0600
0600
0600
0600
ENDCHAR
STARTCHAR 1F24
ENCODING 7972
SWIDTH 495 0
DWIDTH 11 0
BBX 10 19 2 -3
BITMAP
0640
06C0
0D80
0800
0400
3F00
6180
6180
6180
6180
C100
C300
C300
C300
8300
0600
0600
0600
0600
ENDCHAR
STARTCHAR 1F25
ENCODING 7973
SWIDTH 495 0
DWIDTH 11 0
BBX 10 19 2 -3
BITMAP
0CC0
0980
0B00
0000
0400
3F00
6180
6180
6180
6180
C100
C300
C300
C300
8300
0600
0600
0600
0600
ENDCHAR
STARTCHAR 1F26
ENCODING 7974
SWIDTH 495 0
DWIDTH 11 0
BBX 10 21 2 -4
BITMAP
0780
0CC0
0300
0300
0600
0000
0400
3F00
6180
6180
6180
6180
C100
C300
C300
C300
8300
0600
0600
0600
0600
ENDCHAR
STARTCHAR 1F27
ENCODING 7975
SWIDTH 495 0
DWIDTH 11 0
BBX 10 21 2 -4
BITMAP
0780
0CC0
0300
0200
0200
0000
0400
3F00
6180
6180
6180
6180
C100
C300
C300
C300
8300
0600
0600
0600
0600
ENDCHAR
STARTCHAR 1F28
ENCODING 7976
SWIDTH 495 0
DWIDTH 11 0
BBX 13 14 0 0
BITMAP
6C18
6C18
4830
9830
1830
1830
1FE0
3FE0
3060
3060
2040
60C0
60C0
60C0
ENDCHAR
STARTCHAR 1F29
ENCODING 7977
SWIDTH 495 0
DWIDTH 11 0
BBX 13 14 0 0
BITMAP
EC18
CC18
4830
5830
1830
1830
1FE0
3FE0
3060
3060
2040
60C0
60C0
60C0
ENDCHAR
STARTCHAR 1F2A
ENCODING 7978
SWIDTH 495 0
DWIDTH 11 0
BBX 17 14 -4 0
BITMAP
6CC180
6CC180
648300
858300
018300
018300
01FE00
03FE00
030600
030600
020400
060C00
060C00
060C00
ENDCHAR
STARTCHAR 1F2B
ENCODING 7979
SWIDTH 495 0
DWIDTH 11 0
BBX 16 14 -3 0
BITMAP
D983
D983
8906
4B06
0306
0306
03FC
07FC
060C
060C
0408
0C18
0C18
0C18
ENDCHAR
STARTCHAR 1F2C
ENCODING 7980
SWIDTH 495 0
DWIDTH 11 0
BBX 16 14 -3 0
BITMAP
6583
6D83
D906
9306
0306
0306
03FC
07FC
060C
060C
0408
0C18
0C18
0C18
ENDCHAR
STARTCHAR 1F2D
ENCODING 7981
SWIDTH 495 0
DWIDTH 11 0
BBX 16 14 -3 0
BITMAP
C583
CD83
9906
5306
0306
0306
03FC
07FC
060C
060C
0408
0C18
0C18
0C18
ENDCHAR
STARTCHAR 1F2E
ENCODING 7982
SWIDTH 495 0
DWIDTH 11 0
BBX 15 15 -2 0
BITMAP
7800
8B06
2306
620C
660C
060C
060C
07F8
0FF8
0C18
0C18
0810
1830
1830
1830
ENDCHAR
STARTCHAR 1F2F
ENCODING 7983
SWIDTH 495 0
DWIDTH 11 0
BBX 15 15 -2 0
BITMAP
7800
8B06
2306
620C
260C
260C
060C
07F8
0FF8
0C18
0C18
0810
1830
1830
1830
ENDCHAR
STARTCHAR 1F30
ENCODING 7984
SWIDTH 495 0
DWIDTH 11 0
BBX 6 15 3 0
BITMAP
0C
0C
18
00
00
F8
18
10
30
30
30
30
30
3C
1C
ENDCHAR
STARTCHAR 1F31
ENCODING 7985
SWIDTH 495 0
DWIDTH 11 0
BBX 6 15 3 0
BITMAP
18
10
18
00
00
F8
18
10
30
30
30
30
30
3C
1C
ENDCHAR
STARTCHAR 1F32
ENCODING 7986
SWIDTH 495 0
DWIDTH 11 0
BBX 7 15 3 1
BITMAP
3C
36
62
00
00
F8
18
10
30
30
30
30
30
3C
1C
ENDCHAR
STARTCHAR 1F33
ENCODING 7987
SWIDTH 495 0
DWIDTH 11 0
BBX 6 15 3 1
BITMAP
68
4C
44
00
00
F8
18
10
30
30
30
30
30
3C
1C
ENDCHAR
STARTCHAR 1F34
ENCODING 7988
SWIDTH 495 0
DWIDTH 11 0
BBX 8 15 3 1
BITMAP
33
16
2C
00
00
F8
18
10
30
30
30
30
30
3C
1C
ENDCHAR
STARTCHAR 1F35
ENCODING 7989
SWIDTH 495 0
DWIDTH 11 0
BBX 7 15 3 1
BITMAP
66
46
2C
20
00
F8
18
10
30
30
30
30
30
3C
1C
ENDCHAR
STARTCHAR 1F36
ENCODING 7990
SWIDTH 495 0
DWIDTH 11 0
BBX 7 17 3 0
BITMAP
1E
22
08
18
10
00
00
F8
18
10
30
30
30
30
30
3C
1C
ENDCHAR
STARTCHAR 1F37
ENCODING 7991
SWIDTH 495 0
DWIDTH 11 0
BBX 7 17 3 0
BITMAP
1E
22
18
18
08
00
00
F8
18
10
30
30
30
30
30
3C
1C
ENDCHAR
STARTCHAR 1F38
ENCODING 7992
SWIDTH 495 0
DWIDTH 11 0
BBX 11 14 1 0
BITMAP
6FE0
EFE0
4300
8300
0200
0600
0600
0600
0400
0C00
0C00
0C00
7F00
7F00
ENDCHAR
STARTCHAR 1F39
ENCODING 7993
SWIDTH 495 0
DWIDTH 11 0
BBX 11 14 1 0
BITMAP
CFE0
CFE0
C300
4300
0200
0600
0600
0600
0400
0C00
0C00
0C00
7F00
7F00
ENDCHAR
STARTCHAR 1F3A
ENCODING 7994
SWIDTH 495 0
DWIDTH 11 0
BBX 15 14 -3 0
BITMAP
68FE
6CFE
4430
8430
0020
0060
0060
0060
0040
00C0
00C0
00C0
07F0
07F0
ENDCHAR
STARTCHAR 1F3B
ENCODING 7995
SWIDTH 495 0
DWIDTH 11 0
BBX 14 14 -2 0
BITMAP
D1FC
D9FC
8860
4860
0040
00C0
00C0
00C0
0080
0180
0180
0180
0FE0
0FE0
ENDCHAR
STARTCHAR 1F3C
ENCODING 7996
SWIDTH 495 0
DWIDTH 11 0
BBX 15 14 -3 0
BITMAP
64FE
66FE
6C30
C830
0020
0060
0060
0060
0040
00C0
00C0
00C0
07F0
07F0
ENDCHAR
STARTCHAR 1F3D
ENCODING 7997
SWIDTH 495 0
DWIDTH 11 0
BBX 14 14 -2 0
BITMAP
C9FC
CDFC
9860
5060
0040
00C0
00C0
00C0
0080
0180
0180
0180
0FE0
0FE0
ENDCHAR
STARTCHAR 1F3E
ENCODING 7998
SWIDTH 495 0
DWIDTH 11 0
BBX 13 15 -1 0
BITMAP
7800
8BF8
63F8
60C0
40C0
0080
0180
0180
0180
0100
0300
0300
0300
1FC0
1FC0
ENDCHAR
STARTCHAR 1F3F
ENCODING 7999
SWIDTH 495 0
DWIDTH 11 0
BBX 13 15 -1 0
BITMAP
7800
8BF8
63F8
60C0
60C0
2080
0180
0180
0180
0100
0300
0300
0300
1FC0
1FC0
ENDCHAR
STARTCHAR 1F40
ENCODING 8000
SWIDTH 495 0
DWIDTH 11 0
BBX 9 15 2 0
BITMAP
0300
0300
0600
0400
0400
3F00
7180
6180
C180
C180
C180
C180
C300
EE00
7C00
ENDCHAR
STARTCHAR 1F41
ENCODING 8001
SWIDTH 495 0
DWIDTH 11 0
BBX 9 15 2 0
BITMAP
0600
0600
0200
0000
0400
3F00
7180
6180
C180
C180
C180
C180
C300
EE00
7C00
ENDCHAR
STARTCHAR 1F42
ENCODING 8002
SWIDTH 495 0
DWIDTH 11 0
BBX 9 15 2 1
BITMAP
0D80
0D80
0880
0080
0400
3F00
7180
6180
C180
C180
C180
C180
C300
EE00
7C00
ENDCHAR
STARTCHAR 1F43
ENCODING 8003
SWIDTH 495 0
DWIDTH 11 0
BBX 9 15 2 1
BITMAP
1B00
1900
0980
0000
0400
3F00
7180
6180
C180
C180
C180
C180
C300
EE00
7C00
ENDCHAR
STARTCHAR 1F44
ENCODING 8004
SWIDTH 495 0
DWIDTH 11 0
BBX 10 15 2 1
BITMAP
06C0
06C0
0D80
0800
0400
3F00
7180
6180
C180
C180
C180
C180
C300
EE00
7C00
ENDCHAR
STARTCHAR 1F45
ENCODING 8005
SWIDTH 495 0
DWIDTH 11 0
BBX 10 15 2 1
BITMAP
0CC0
0980
0B00
0000
0400
3F00
7180
6180
C180
C180
C180
C180
C300
EE00
7C00
ENDCHAR
STARTCHAR 1F48
ENCODING 8008
SWIDTH 495 0
DWIDTH 11 0
BBX 12 14 0 0
BITMAP
63C0
67E0
6C30
D830
1830
3030
3030
3020
3060
2060
20C0
30C0
3980
1F00
ENDCHAR
STARTCHAR 1F49
ENCODING 8009
SWIDTH 495 0
DWIDTH 11 0
BBX 12 14 0 0
BITMAP
C3C0
C7E0
CC30
5830
1830
3030
3030
3020
3060
2060
20C0
30C0
3980
1F00
ENDCHAR
STARTCHAR 1F4A
ENCODING 8010
SWIDTH 495 0
DWIDTH 11 0
BBX 16 14 -4 0
BITMAP
6C3C
6C7E
64C3
8583
0183
0303
0303
0302
0306
0206
020C
030C
0398
01F0
ENDCHAR
STARTCHAR 1F4B
ENCODING 8011
SWIDTH 495 0
DWIDTH 11 0
BBX 15 14 -3 0
BITMAP
D878
D8FC
8986
4B06
0306
0606
0606
0604
060C
040C
0418
0618
0730
03E0
ENDCHAR
STARTCHAR 1F4C
ENCODING 8012
SWIDTH 495 0
DWIDTH 11 0
BBX 15 14 -3 0
BITMAP
6478
6CFC
6D86
CB06
0306
0606
0606
0604
060C
040C
0418
0618
0730
03E0
ENDCHAR
STARTCHAR 1F4D
ENCODING 8013
SWIDTH 495 0
DWIDTH 11 0
BBX 14 14 -2 0
BITMAP
C8F0
D9F8
9B0C
560C
060C
0C0C
0C0C
0C08
0C18
0818
0830
0C30
0E60
07C0
ENDCHAR
STARTCHAR 1F50
ENCODING 8016
SWIDTH 495 0
DWIDTH 11 0
BBX 9 15 2 0
BITMAP
0300
0300
0600
0000
0000
6180
6180
6180
4180
C100
C300
C300
C300
EE00
7C00
ENDCHAR
STARTCHAR 1F51
ENCODING 8017
SWIDTH 495 0
DWIDTH 11 0
BBX 9 15 2 0
BITMAP
0600
0400
0200
0200
0000
6180
6180
6180
4180
C100
C300
C300
C300
EE00
7C00
ENDCHAR
STARTCHAR 1F52
ENCODING 8018
SWIDTH 495 0
DWIDTH 11 0
BBX 9 15 2 1
BITMAP
0D00
0D80
1880
1000
0000
6180
6180
6180
4180
C100
C300
C300
C300
EE00
7C00
ENDCHAR
STARTCHAR 1F53
ENCODING 8019
SWIDTH 495 0
DWIDTH 11 0
BBX 9 15 2 1
BITMAP
1B00
1300
1900
0100
0000
6180
6180
6180
4180
C100
C300
C300
C300
EE00
7C00
ENDCHAR
STARTCHAR 1F54
ENCODING 8020
SWIDTH 495 0
DWIDTH 11 0
BBX 10 15 2 1
BITMAP
0EC0
0580
0900
0100
0000
6180
6180
6180
4180
C100
C300
C300
C300
EE00
7C00
ENDCHAR
STARTCHAR 1F55
ENCODING 8021
SWIDTH 495 0
DWIDTH 11 0
BBX 10 15 2 1
BITMAP
18C0
1980
0B00
0000
0000
6180
6180
6180
4180
C100
C300
C300
C300
EE00
7C00
ENDCHAR
STARTCHAR 1F56
ENCODING 8022
SWIDTH 495 0
DWIDTH 11 0
BBX 9 17 2 0
BITMAP
0780
0880
0200
0600
0600
0000
0000
6180
6180
6180
4180
C100
C300
C300
C300
EE00
7C00
ENDCHAR
STARTCHAR 1F57
ENCODING 8023
SWIDTH 495 0
DWIDTH 11 0
BBX 9 17 2 0
BITMAP
0780
0880
0200
0600
0200
0000
0000
6180
6180
6180
4180
C100
C300
C300
C300
EE00
7C00
ENDCHAR
STARTCHAR 1F59
ENCODING 8025
SWIDTH 495 0
DWIDTH 11 0
BBX 14 14 0 0
BITMAP
D80C
D818
C830
4C30
0C60
0CC0
0480
0780
0700
0600
0600
0600
0600
0C00
ENDCHAR
STARTCHAR 1F5B
ENCODING 8027
SWIDTH 495 0
DWIDTH 11 0
BBX 17 14 -3 0
BITMAP
DB0180
DB0300
4D0600
4D8600
018C00
019800
009000
00F000
00E000
00C000
00C000
00C000
00C000
018000
ENDCHAR
STARTCHAR 1F5D
ENCODING 8029
SWIDTH 495 0
DWIDTH 11 0
BBX 18 14 -4 0
BITMAP
6580C0
CD8180
488300
50C300
00C600
00CC00
004800
007800
007000
006000
006000
006000
006000
00C000
ENDCHAR
STARTCHAR 1F5F
ENCODING 8031
SWIDTH 495 0
DWIDTH 11 0
BBX 17 15 -3 0
BITMAP
780000
CB0180
230300
610600
218600
018C00
019800
009000
00F000
00E000
00C000
00C000
00C000
00C000
018000
ENDCHAR
STARTCHAR 1F60
ENCODING 8032
SWIDTH 495 0
DWIDTH 11 0
BBX 10 15 1 0
BITMAP
0180
0180
0300
0000
1000
10C0
30C0
60C0
40C0
C4C0
CCC0
CCC0
CCC0
DD80
7700
ENDCHAR
STARTCHAR 1F61
ENCODING 8033
SWIDTH 495 0
DWIDTH 11 0
BBX 10 15 1 0
BITMAP
0300
0200
0300
0100
1000
10C0
30C0
60C0
40C0
C4C0
CCC0
CCC0
CCC0
DD80
7700
ENDCHAR
STARTCHAR 1F62
ENCODING 8034
SWIDTH 495 0
DWIDTH 11 0
BBX 10 15 1 1
BITMAP
0680
06C0
0C40
0800
1000
10C0
30C0
60C0
40C0
C4C0
CCC0
CCC0
CCC0
DD80
7700
ENDCHAR
STARTCHAR 1F63
ENCODING 8035
SWIDTH 495 0
DWIDTH 11 0
BBX 10 15 1 1
BITMAP
0D00
0980
0C80
0000
1000
10C0
30C0
60C0
40C0
C4C0
CCC0
CCC0
CCC0
DD80
7700
ENDCHAR
STARTCHAR 1F64
ENCODING 8036
SWIDTH 495 0
DWIDTH 11 0
BBX 11 15 1 1
BITMAP
0660
02C0
0480
0000
1000
10C0
30C0
60C0
40C0
C4C0
CCC0
CCC0
CCC0
DD80
7700
ENDCHAR
STARTCHAR 1F65
ENCODING 8037
SWIDTH 495 0
DWIDTH 11 0
BBX 10 15 1 1
BITMAP
0C40
0CC0
0580
0000
1000
10C0
30C0
60C0
40C0
C4C0
CCC0
CCC0
CCC0
DD80
7700
ENDCHAR
STARTCHAR 1F66
ENCODING 8038
SWIDTH 495 0
DWIDTH 11 0
BBX 10 17 1 0
BITMAP
03C0
0440
0100
0300
0300
0000
1000
10C0
30C0
60C0
40C0
C4C0
CCC0
CCC0
CCC0
DD80
7700
ENDCHAR
STARTCHAR 1F67
ENCODING 8039
SWIDTH 495 0
DWIDTH 11 0
BBX 10 17 1 0
BITMAP
03C0
0440
0100
0300
0100
0000
1000
10C0
30C0
60C0
40C0
C4C0
CCC0
CCC0
CCC0
DD80
7700
ENDCHAR
STARTCHAR 1F68
ENCODING 8040
SWIDTH 495 0
DWIDTH 11 0
BBX 12 14 0 0
BITMAP
63C0
67E0
4C30
9830
3030
3030
3030
3020
3060
3060
30C0
3180
F1E0
F3C0
ENDCHAR
STARTCHAR 1F69
ENCODING 8041
SWIDTH 495 0
DWIDTH 11 0
BBX 12 14 0 0
BITMAP
C3C0
C7E0
CC30
5830
3030
3030
3030
3020
3060
3060
30C0
3180
F1E0
F3C0
ENDCHAR
STARTCHAR 1F6A
ENCODING 8042
SWIDTH 495 0
DWIDTH 11 0
BBX 16 14 -4 0
BITMAP
683C
6C7E
4CC3
8583
0303
0303
0303
0302
0306
0306
030C
0318
0F1E
0F3C
ENDCHAR
STARTCHAR 1F6B
ENCODING 8043
SWIDTH 495 0
DWIDTH 11 0
BBX 15 14 -3 0
BITMAP
D078
D8FC
8986
4B06
0606
0606
0606
0604
060C
060C
0618
0630
1E3C
1E78
ENDCHAR
STARTCHAR 1F6C
ENCODING 8044
SWIDTH 495 0
DWIDTH 11 0
BBX 15 14 -3 0
BITMAP
6478
6CFC
4986
9306
0606
0606
0606
0604
060C
060C
0618
0630
1E3C
1E78
ENDCHAR
STARTCHAR 1F6D
ENCODING 8045
SWIDTH 495 0
DWIDTH 11 0
BBX 15 14 -3 0
BITMAP
4478
CCFC
4986
5306
0606
0606
0606
0604
060C
060C
0618
0630
1E3C
1E78
ENDCHAR
STARTCHAR 1F6E
ENCODING 8046
SWIDTH 495 0
DWIDTH 11 0
BBX 13 15 -1 0
BITMAP
7800
89E0
23F0
6618
6C18
1818
1818
1818
1810
1830
1830
1860
18C0
78F0
79E0
ENDCHAR
STARTCHAR 1F6F
ENCODING 8047
SWIDTH 495 0
DWIDTH 11 0
BBX 13 15 -1 0
BITMAP
F000
89E0
63F0
6618
4C18
3818
1818
1818
1810
1830
1830
1860
18C0
78F0
79E0
ENDCHAR
STARTCHAR 1F70
ENCODING 8048
SWIDTH 495 0
DWIDTH 11 0
BBX 9 15 2 0
BITMAP
0C00
0600
0300
0000
0300
1F80
3180
6180
C180
C300
C300
C300
C300
E700
7D80
ENDCHAR
STARTCHAR 1F71
ENCODING 8049
SWIDTH 495 0
DWIDTH 11 0
BBX 9 15 2 0
BITMAP
0180
0300
0600
0000
0300
1F80
3180
6180
C180
C300
C300
C300
C300
E700
7D80
ENDCHAR
STARTCHAR 1F72
ENCODING 8050
SWIDTH 495 0
DWIDTH 11 0
BBX 9 15 2 0
BITMAP
0C00
0600
0300
0000
0600
3F80
3000
6000
6000
3E00
6000
C000
C000
E300
7F00
ENDCHAR
STARTCHAR 1F73
ENCODING 8051
SWIDTH 495 0
DWIDTH 11 0
BBX 9 15 2 0
BITMAP
0180
0300
0600
0000
0600
3F80
3000
6000
6000
3E00
6000
C000
C000
E300
7F00
ENDCHAR
STARTCHAR 1F74
ENCODING 8052
SWIDTH 495 0
DWIDTH 11 0
BBX 9 19 2 -4
BITMAP
0C00
0600
0300
0000
0400
3F00
6180
6180
6180
6180
C100
C300
C300
C300
8300
0600
0600
0600
0600
ENDCHAR
STARTCHAR 1F75
ENCODING 8053
SWIDTH 495 0
DWIDTH 11 0
BBX 9 19 2 -4
BITMAP
0180
0300
0600
0000
0400
3F00
6180
6180
6180
6180
C100
C300
C300
C300
8300
0600
0600
0600
0600
ENDCHAR
STARTCHAR 1F76
ENCODING 8054
SWIDTH 495 0
DWIDTH 11 0
BBX 6 15 3 0
BITMAP
30
38
0C
00
00
F8
18
10
30
30
30
30
30
3C
1C
ENDCHAR
STARTCHAR 1F77
ENCODING 8055
SWIDTH 495 0
DWIDTH 11 0
BBX 6 15 3 0
BITMAP
04
1C
38
00
00
F8
18
10
30
30
30
30
30
3C
1C
ENDCHAR
STARTCHAR 1F78
ENCODING 8056
SWIDTH 495 0
DWIDTH 11 0
BBX 9 15 2 0
BITMAP
0C00
0600
0300
0000
0400
3F00
7180
6180
C180
C180
C180
C180
C300
EE00
7C00
ENDCHAR
STARTCHAR 1F79
ENCODING 8057
SWIDTH 495 0
DWIDTH 11 0
BBX 9 15 2 0
BITMAP
0180
0300
0600
0000
0400
3F00
7180
6180
C180
C180
C180
C180
C300
EE00
7C00
ENDCHAR
STARTCHAR 1F7A
ENCODING 8058
SWIDTH 495 0
DWIDTH 11 0
BBX 9 15 2 0
BITMAP
0C00
0E00
0300
0000
0000
6180
6180
6180
4180
C100
C300
C300
C300
EE00
7C00
ENDCHAR
STARTCHAR 1F7B
ENCODING 8059
SWIDTH 495 0
DWIDTH 11 0
BBX 9 15 2 0
BITMAP
0100
0700
0C00
0000
0000
6180
6180
6180
4180
C100
C300
C300
C300
EE00
7C00
ENDCHAR
STARTCHAR 1F7C
ENCODING 8060
SWIDTH 495 0
DWIDTH 11 0
BBX 10 15 1 0
BITMAP
0600
0700
0300
0000
1000
10C0
30C0
60C0
40C0
C4C0
CCC0
CCC0
CCC0
DD80
7700
ENDCHAR
STARTCHAR 1F7D
ENCODING 8061
SWIDTH 495 0
DWIDTH 11 0
BBX 10 15 1 0
BITMAP
0080
0380
0700
0000
1000
10C0
30C0
60C0
40C0
C4C0
CCC0
CCC0
CCC0
DD80
7700
ENDCHAR
STARTCHAR 1F80
ENCODING 8064
SWIDTH 495 0
DWIDTH 11 0
BBX 9 19 2 -4
BITMAP
0300
0300
0200
0400
0300
1F80
3180
6180
C180
C300
C300
C300
C300
E700
7D80
0000
3000
3800
1800
ENDCHAR
STARTCHAR 1F81
ENCODING 8065
SWIDTH 495 0
DWIDTH 11 0
BBX 9 19 2 -4
BITMAP
0700
0600
0200
0000
0300
1F80
3180
6180
C180
C300
C300
C300
C300
E700
7D80
0000
3000
3800
1800
ENDCHAR
STARTCHAR 1F82
ENCODING 8066
SWIDTH 495 0
DWIDTH 11 0
BBX 10 19 2 -3
BITMAP
0D80
0480
08C0
0000
0300
1F80
3180
6180
C180
C300
C300
C300
C300
E700
7D80
0000
3000
3800
1800
ENDCHAR
STARTCHAR 1F83
ENCODING 8067
SWIDTH 495 0
DWIDTH 11 0
BBX 9 20 2 -4
BITMAP
0100
1B00
1900
0980
0000
0300
1F80
3180
6180
C180
C300
C300
C300
C300
E700
7D80
0000
3000
3800
1800
ENDCHAR
STARTCHAR 1F84
ENCODING 8068
SWIDTH 495 0
DWIDTH 11 0
BBX 10 19 2 -3
BITMAP
0640
06C0
0D80
0800
0300
1F80
3180
6180
C180
C300
C300
C300
C300
E700
7D80
0000
3000
3800
1800
ENDCHAR
STARTCHAR 1F85
ENCODING 8069
SWIDTH 495 0
DWIDTH 11 0
BBX 10 19 2 -3
BITMAP
0CC0
0980
0B00
0000
0300
1F80
3180
6180
C180
C300
C300
C300
C300
E700
7D80
0000
3000
3800
1800
ENDCHAR
STARTCHAR 1F86
ENCODING 8070
SWIDTH 495 0
DWIDTH 11 0
BBX 10 21 2 -4
BITMAP
0780
04C0
0300
0300
0600
0000
0300
1F80
3180
6180
C180
C300
C300
C300
C300
E700
7D80
0000
3000
3800
1800
ENDCHAR
STARTCHAR 1F87
ENCODING 8071
SWIDTH 495 0
DWIDTH 11 0
BBX 10 21 2 -4
BITMAP
0780
04C0
0300
0300
0200
0000
0300
1F80
3180
6180
C180
C300
C300
C300
C300
E700
7D80
0000
3000
3800
1800
ENDCHAR
STARTCHAR 1F88
ENCODING 8072
SWIDTH 495 0
DWIDTH 11 0
BBX 12 14 0 0
BITMAP
6600
6600
6A00
CA00
1A30
1220
1260
3260
2260
7E40
62C0
42C0
C2C0
C260
ENDCHAR
STARTCHAR 1F89
ENCODING 8073
SWIDTH 495 0
DWIDTH 11 0
BBX 12 14 0 0
BITMAP
E600
C600
4A00
4A00
1A30
1220
1260
3260
2260
7E40
62C0
42C0
C2C0
C260
ENDCHAR
STARTCHAR 1F8A
ENCODING 8074
SWIDTH 495 0
DWIDTH 11 0
BBX 16 14 -4 0
BITMAP
6C60
6C60
64A0
C6A0
01A3
0122
0126
0326
0226
07E4
062C
042C
0C2C
0C26
ENDCHAR
STARTCHAR 1F8B
ENCODING 8075
SWIDTH 495 0
DWIDTH 11 0
BBX 15 14 -3 0
BITMAP
D8C0
D8C0
C940
4D40
0346
0244
024C
064C
044C
0FC8
0C58
0858
1858
184C
ENDCHAR
STARTCHAR 1F8C
ENCODING 8076
SWIDTH 495 0
DWIDTH 11 0
BBX 15 14 -3 0
BITMAP
64C0
6CC0
6940
9940
0346
0244
024C
064C
044C
0FC8
0C58
0858
1858
184C
ENDCHAR
STARTCHAR 1F8D
ENCODING 8077
SWIDTH 495 0
DWIDTH 11 0
BBX 15 14 -3 0
BITMAP
64C0
CCC0
4940
7140
0346
0244
024C
064C
044C
0FC8
0C58
0858
1858
184C
ENDCHAR
STARTCHAR 1F8E
ENCODING 8078
SWIDTH 495 0
DWIDTH 11 0
BBX 13 15 -1 0
BITMAP
7800
8B00
2300
6500
6500
0D18
0910
0930
1930
1130
3F20
3160
2160
6160
6130
ENDCHAR
STARTCHAR 1F8F
ENCODING 8079
SWIDTH 495 0
DWIDTH 11 0
BBX 13 15 -1 0
BITMAP
7800
8B00
2300
6500
6500
2D18
0910
0930
1930
1130
3F20
3160
2160
6160
6130
ENDCHAR
STARTCHAR 1F90
ENCODING 8080
SWIDTH 495 0
DWIDTH 11 0
BBX 10 19 1 -4
BITMAP
0180
0180
0300
0200
0200
1F80
30C0
30C0
30C0
30C0
6080
6180
6180
6180
4180
0300
C300
E300
6300
ENDCHAR
STARTCHAR 1F91
ENCODING 8081
SWIDTH 495 0
DWIDTH 11 0
BBX 10 19 1 -4
BITMAP
0300
0300
0100
0000
0200
1F80
30C0
30C0
30C0
30C0
6080
6180
6180
6180
4180
0300
C300
E300
6300
ENDCHAR
STARTCHAR 1F92
ENCODING 8082
SWIDTH 495 0
DWIDTH 11 0
BBX 10 19 1 -3
BITMAP
06C0
06C0
0440
0040
0200
1F80
30C0
30C0
30C0
30C0
6080
6180
6180
6180
4180
0300
C300
E300
6300
ENDCHAR
STARTCHAR 1F93
ENCODING 8083
SWIDTH 495 0
DWIDTH 11 0
BBX 10 19 1 -3
BITMAP
0D80
0C80
04C0
0000
0200
1F80
30C0
30C0
30C0
30C0
6080
6180
6180
6180
4180
0300
C300
E300
6300
ENDCHAR
STARTCHAR 1F94
ENCODING 8084
SWIDTH 495 0
DWIDTH 11 0
BBX 11 19 1 -3
BITMAP
0320
0360
06C0
0400
0200
1F80
30C0
30C0
30C0
30C0
6080
6180
6180
6180
4180
0300
C300
E300
6300
ENDCHAR
STARTCHAR 1F95
ENCODING 8085
SWIDTH 495 0
DWIDTH 11 0
BBX 11 19 1 -3
BITMAP
0660
04C0
0580
0000
0200
1F80
30C0
30C0
30C0
30C0
6080
6180
6180
6180
4180
0300
C300
E300
6300
ENDCHAR
STARTCHAR 1F96
ENCODING 8086
SWIDTH 495 0
DWIDTH 11 0
BBX 11 21 1 -4
BITMAP
03C0
0660
0180
0180
0300
0000
0200
1F80
30C0
30C0
30C0
30C0
6080
6180
6180
6180
4180
0300
C300
E300
6300
ENDCHAR
STARTCHAR 1F97
ENCODING 8087
SWIDTH 495 0
DWIDTH 11 0
BBX 11 21 1 -4
BITMAP
03C0
0660
0180
0100
0100
0000
0200
1F80
30C0
30C0
30C0
30C0
6080
6180
6180
6180
4180
0300
C300
E300
6300
ENDCHAR
STARTCHAR 1F98
ENCODING 8088
SWIDTH 495 0
DWIDTH 11 0
BBX 12 14 0 0
BITMAP
68C0
7880
5980
9980
11B0
3120
3F60
3F60
2360
6240
66C0
66C0
46C0
4460
ENDCHAR
STARTCHAR 1F99
ENCODING 8089
SWIDTH 495 0
DWIDTH 11 0
BBX 12 14 0 0
BITMAP
E8C0
D880
5980
5980
11B0
3120
3F60
3F60
2360
6240
66C0
66C0
46C0
4460
ENDCHAR
STARTCHAR 1F9A
ENCODING 8090
SWIDTH 495 0
DWIDTH 11 0
BBX 16 14 -4 0
BITMAP
6C8C
6D88
6598
8598
011B
0312
03F6
03F6
0236
0624
066C
066C
046C
0446
ENDCHAR
STARTCHAR 1F9B
ENCODING 8091
SWIDTH 495 0
DWIDTH 11 0
BBX 15 14 -3 0
BITMAP
D918
DB10
8B30
4B30
0236
0624
07EC
07EC
046C
0C48
0CD8
0CD8
08D8
088C
ENDCHAR
STARTCHAR 1F9C
ENCODING 8092
SWIDTH 495 0
DWIDTH 11 0
BBX 15 14 -3 0
BITMAP
6518
6F10
DB30
9330
0236
0624
07EC
07EC
046C
0C48
0CD8
0CD8
08D8
088C
ENDCHAR
STARTCHAR 1F9D
ENCODING 8093
SWIDTH 495 0
DWIDTH 11 0
BBX 15 14 -3 0
BITMAP
C518
CF10
9B30
5330
0236
0624
07EC
07EC
046C
0C48
0CD8
0CD8
08D8
088C
ENDCHAR
STARTCHAR 1F9E
ENCODING 8094
SWIDTH 495 0
DWIDTH 11 0
BBX 14 15 -2 0
BITMAP
7800
8A30
2620
6660
6660
046C
0C48
0FD8
0FD8
08D8
1890
19B0
19B0
11B0
1118
ENDCHAR
STARTCHAR 1F9F
ENCODING 8095
SWIDTH 495 0
DWIDTH 11 0
BBX 14 15 -2 0
BITMAP
7800
8A30
2620
6660
2660
246C
0C48
0FD8
0FD8
08D8
1890
19B0
19B0
11B0
1118
ENDCHAR
STARTCHAR 1FA0
ENCODING 8096
SWIDTH 495 0
DWIDTH 11 0
BBX 10 19 1 -4
BITMAP
0180
0180
0300
0000
1000
10C0
30C0
60C0
40C0
C4C0
CCC0
CCC0
CCC0
DD80
7700
0000
1800
1C00
0C00
ENDCHAR
STARTCHAR 1FA1
ENCODING 8097
SWIDTH 495 0
DWIDTH 11 0
BBX 10 19 1 -4
BITMAP
0300
0200
0300
0100
1000
10C0
30C0
60C0
40C0
C4C0
CCC0
CCC0
CCC0
DD80
7700
0000
1800
1C00
0C00
ENDCHAR
STARTCHAR 1FA2
ENCODING 8098
SWIDTH 495 0
DWIDTH 11 0
BBX 10 19 1 -3
BITMAP
0680
06C0
0C40
0800
1000
10C0
30C0
60C0
40C0
C4C0
CCC0
CCC0
CCC0
DD80
7700
0000
1800
1C00
0C00
ENDCHAR
STARTCHAR 1FA3
ENCODING 8099
SWIDTH 495 0
DWIDTH 11 0
BBX 10 19 1 -3
BITMAP
0D00
0980
0C80
0000
1000
10C0
30C0
60C0
40C0
C4C0
CCC0
CCC0
CCC0
DD80
7700
0000
1800
1C00
0C00
ENDCHAR
STARTCHAR 1FA4
ENCODING 8100
SWIDTH 495 0
DWIDTH 11 0
BBX 11 19 1 -3
BITMAP
0660
02C0
0480
0000
1000
10C0
30C0
60C0
40C0
C4C0
CCC0
CCC0
CCC0
DD80
7700
0000
1800
1C00
0C00
ENDCHAR
STARTCHAR 1FA5
ENCODING 8101
SWIDTH 495 0
DWIDTH 11 0
BBX 10 19 1 -3
BITMAP
0C40
0CC0
0580
0000
1000
10C0
30C0
60C0
40C0
C4C0
CCC0
CCC0
CCC0
DD80
7700
0000
1800
1C00
0C00
ENDCHAR
STARTCHAR 1FA6
ENCODING 8102
SWIDTH 495 0
DWIDTH 11 0
BBX 10 21 1 -4
BITMAP
03C0
0440
0100
0300
0300
0000
1000
10C0
30C0
60C0
40C0
C4C0
CCC0
CCC0
CCC0
DD80
7700
0000
1800
1C00
0C00
ENDCHAR
STARTCHAR 1FA7
ENCODING 8103
SWIDTH 495 0
DWIDTH 11 0
BBX 10 21 1 -4
BITMAP
03C0
0440
0100
0300
0100
0000
1000
10C0
30C0
60C0
40C0
C4C0
CCC0
CCC0
CCC0
DD80
7700
0000
1800
1C00
0C00
ENDCHAR
STARTCHAR 1FA8
ENCODING 8104
SWIDTH 495 0
DWIDTH 11 0
BBX 13 14 -1 0
BITMAP
6380
6780
6CC0
D8C0
18D8
1090
10B0
31B0
3130
3120
3360
3260
7760
7730
ENDCHAR
STARTCHAR 1FA9
ENCODING 8105
SWIDTH 495 0
DWIDTH 11 0
BBX 13 14 -1 0
BITMAP
C380
C780
4CC0
58C0
18D8
1090
10B0
31B0
3130
3120
3360
3260
7760
7730
ENDCHAR
STARTCHAR 1FAA
ENCODING 8106
SWIDTH 495 0
DWIDTH 11 0
BBX 17 14 -5 0
BITMAP
6C3800
6C7800
64CC00
858C00
018D80
010900
010B00
031B00
031300
031200
033600
032600
077600
077300
ENDCHAR
STARTCHAR 1FAB
ENCODING 8107
SWIDTH 495 0
DWIDTH 11 0
BBX 16 14 -4 0
BITMAP
D870
D8F0
8998
4B18
031B
0212
0216
0636
0626
0624
066C
064C
0EEC
0EE6
ENDCHAR
STARTCHAR 1FAC
ENCODING 8108
SWIDTH 495 0
DWIDTH 11 0
BBX 16 14 -4 0
BITMAP
6470
66F0
6D98
CB18
031B
0212
0216
0636
0626
0624
066C
064C
0EEC
0EE6
ENDCHAR
STARTCHAR 1FAD
ENCODING 8109
SWIDTH 495 0
DWIDTH 11 0
BBX 15 14 -3 0
BITMAP
C8E0
CDE0
9B30
5630
0636
0424
042C
0C6C
0C4C
0C48
0CD8
0C98
1DD8
1DCC
ENDCHAR
STARTCHAR 1FAE
ENCODING 8110
SWIDTH 495 0
DWIDTH 11 0
BBX 14 15 -2 0
BITMAP
7800
C9C0
23C0
2660
6C60
0C6C
0848
0858
18D8
1898
1890
19B0
1930
3BB0
3B98
ENDCHAR
STARTCHAR 1FAF
ENCODING 8111
SWIDTH 495 0
DWIDTH 11 0
BBX 14 15 -2 0
BITMAP
7800
C9C0
23C0
6660
2C60
0C6C
0848
0858
18D8
1898
1890
19B0
1930
3BB0
3B98
ENDCHAR
STARTCHAR 1FB0
ENCODING 8112
SWIDTH 495 0
DWIDTH 11 0
BBX 10 15 2 0
BITMAP
08C0
0D80
0700
0000
0300
1F80
3180
6180
C180
C300
C300
C300
C300
E700
7D80
ENDCHAR
STARTCHAR 1FB1
ENCODING 8113
SWIDTH 495 0
DWIDTH 11 0
BBX 9 14 2 0
BITMAP
0F80
0000
0000
0300
1F80
3180
6180
C180
C300
C300
C300
C300
E700
7D80
ENDCHAR
STARTCHAR 1FB2
ENCODING 8114
SWIDTH 495 0
DWIDTH 11 0
BBX 9 19 2 -4
BITMAP
0C00
0600
0300
0000
0300
1F80
3180
6180
C180
C300
C300
C300
C300
E700
7D80
0000
3000
3800
1800
ENDCHAR
STARTCHAR 1FB3
ENCODING 8115
SWIDTH 495 0
DWIDTH 11 0
BBX 9 15 2 -4
BITMAP
0300
1F80
3180
6180
C180
C300
C300
C300
C300
E700
7D80
0000
3000
3800
1800
ENDCHAR
STARTCHAR 1FB4
ENCODING 8116
SWIDTH 495 0
DWIDTH 11 0
BBX 9 19 2 -4
BITMAP
0180
0300
0600
0000
0300
1F80
3180
6180
C180
C300
C300
C300
C300
E700
7D80
0000
3000
3800
1800
ENDCHAR
STARTCHAR 1FB6
ENCODING 8118
SWIDTH 495 0
DWIDTH 11 0
BBX 9 15 2 0
BITMAP
0700
0D80
0880
0000
0300
1F80
3180
6180
C180
C300
C300
C300
C300
E700
7D80
ENDCHAR
STARTCHAR 1FB7
ENCODING 8119
SWIDTH 495 0
DWIDTH 11 0
BBX 9 19 2 -4
BITMAP
0700
0D80
0880
0000
0300
1F80
3180
6180
C180
C300
C300
C300
C300
E700
7D80
0000
3000
3800
1800
ENDCHAR
STARTCHAR 1FB8
ENCODING 8120
SWIDTH 495 0
DWIDTH 11 0
BBX 12 18 0 0
BITMAP
0110
01E0
00C0
0000
0180
03C0
03C0
06C0
04C0
0CC0
08C0
18C0
10C0
3FC0
6040
6040
C040
C040
ENDCHAR
STARTCHAR 1FB9
ENCODING 8121
SWIDTH 495 0
DWIDTH 11 0
BBX 12 17 0 0
BITMAP
03F0
0000
0000
0180
03C0
03C0
06C0
04C0
0CC0
08C0
18C0
10C0
3FC0
6040
6040
C040
C040
ENDCHAR
STARTCHAR 1FBA
ENCODING 8122
SWIDTH 495 0
DWIDTH 11 0
BBX 10 14 0 0
BITMAP
41C0
61C0
33C0
16C0
04C0
0CC0
08C0
1840
1040
3FC0
2040
6040
4040
C040
ENDCHAR
STARTCHAR 1FBB
ENCODING 8123
SWIDTH 495 0
DWIDTH 11 0
BBX 11 14 0 0
BITMAP
09C0
1DC0
33C0
26C0
06C0
0CC0
0840
1840
1040
3FC0
2040
6040
4060
C060
ENDCHAR
STARTCHAR 1FBC
ENCODING 8124
SWIDTH 495 0
DWIDTH 11 0
BBX 12 14 0 0
BITMAP
0600
0600
0A00
0A00
1A30
1220
1260
3260
2260
7E40
62C0
42C0
C2C0
C260
ENDCHAR
STARTCHAR 1FBD
ENCODING 8125
SWIDTH 495 0
DWIDTH 11 0
BBX 3 4 6 11
BITMAP
60
60
C0
80
ENDCHAR
STARTCHAR 1FBE
ENCODING 8126
SWIDTH 495 0
DWIDTH 11 0
BBX 3 3 4 -4
BITMAP
C0
E0
60
ENDCHAR
STARTCHAR 1FBF
ENCODING 8127
SWIDTH 495 0
DWIDTH 11 0
BBX 3 4 6 11
BITMAP
60
60
C0
80
ENDCHAR
STARTCHAR 1FC0
ENCODING 8128
SWIDTH 495 0
DWIDTH 11 0
BBX 5 3 6 12
BITMAP
70
D8
88
ENDCHAR
STARTCHAR 1FC1
ENCODING 8129
SWIDTH 495 0
DWIDTH 11 0
BBX 6 5 5 12
BITMAP
3C
24
00
44
CC
ENDCHAR
STARTCHAR 1FC2
ENCODING 8130
SWIDTH 495 0
DWIDTH 11 0
BBX 10 19 1 -4
BITMAP
0600
0300
0180
0000
0200
1F80
30C0
30C0
30C0
30C0
6080
6180
6180
6180
4180
0300
C300
E300
6300
ENDCHAR
STARTCHAR 1FC3
ENCODING 8131
SWIDTH 495 0
DWIDTH 11 0
BBX 10 15 1 -4
BITMAP
0200
1F80
30C0
30C0
30C0
30C0
6080
6180
6180
6180
4180
0300
C300
E300
6300
ENDCHAR
STARTCHAR 1FC4
ENCODING 8132
SWIDTH 495 0
DWIDTH 11 0
BBX 10 19 1 -4
BITMAP
00C0
0180
0300
0000
0200
1F80
30C0
30C0
30C0
30C0
6080
6180
6180
6180
4180
0300
C300
E300
6300
ENDCHAR
STARTCHAR 1FC6
ENCODING 8134
SWIDTH 495 0
DWIDTH 11 0
BBX 9 19 2 -4
BITMAP
0700
0D80
0880
0000
0400
3F00
6180
6180
6180
6180
C100
C300
C300
C300
8300
0600
0600
0600
0600
ENDCHAR
STARTCHAR 1FC7
ENCODING 8135
SWIDTH 495 0
DWIDTH 11 0
BBX 10 19 1 -4
BITMAP
0380
06C0
0440
0000
0200
1F80
30C0
30C0
30C0
30C0
6080
6180
6180
6180
4180
0300
C300
E300
6300
ENDCHAR
STARTCHAR 1FC8
ENCODING 8136
SWIDTH 495 0
DWIDTH 11 0
BBX 13 14 0 0
BITMAP
87F8
C7F0
6C00
2C00
0C00
0800
1FC0
1FC0
1800
1000
3000
3000
3FC0
3FC0
ENDCHAR
STARTCHAR 1FC9
ENCODING 8137
SWIDTH 495 0
DWIDTH 11 0
BBX 13 14 0 0
BITMAP
27F8
77F0
CC00
8C00
0C00
0800
1FC0
1FC0
1800
1000
3000
3000
3FC0
3FC0
ENDCHAR
STARTCHAR 1FCA
ENCODING 8138
SWIDTH 495 0
DWIDTH 11 0
BBX 14 14 -1 0
BITMAP
860C
C60C
6418
2C18
0C18
0C18
0FF0
1FF0
1830
1830
1020
3060
3060
3060
ENDCHAR
STARTCHAR 1FCB
ENCODING 8139
SWIDTH 495 0
DWIDTH 11 0
BBX 14 14 -1 0
BITMAP
160C
760C
E418
8C18
0C18
0C18
0FF0
1FF0
1830
1830
1020
3060
3060
3060
ENDCHAR
STARTCHAR 1FCC
ENCODING 8140
SWIDTH 495 0
DWIDTH 11 0
BBX 11 14 1 0
BITMAP
1180
3100
3300
3300
2360
6240
7EC0
7EC0
46C0
C480
CD80
CD80
8D80
88C0
ENDCHAR
STARTCHAR 1FCD
ENCODING 8141
SWIDTH 495 0
DWIDTH 11 0
BBX 6 3 5 12
BITMAP
F8
48
8C
ENDCHAR
STARTCHAR 1FCE
ENCODING 8142
SWIDTH 495 0
DWIDTH 11 0
BBX 6 3 6 12
BITMAP
CC
D8
B0
ENDCHAR
STARTCHAR 1FCF
ENCODING 8143
SWIDTH 495 0
DWIDTH 11 0
BBX 5 5 6 11
BITMAP
78
88
20
60
60
ENDCHAR
STARTCHAR 1FD0
ENCODING 8144
SWIDTH 495 0
DWIDTH 11 0
BBX 7 15 3 0
BITMAP
46
6C
38
00
00
F8
18
10
30
30
30
30
30
3C
1C
ENDCHAR
STARTCHAR 1FD1
ENCODING 8145
SWIDTH 495 0
DWIDTH 11 0
BBX 7 14 3 0
BITMAP
7E
00
00
00
F8
18
10
30
30
30
30
30
3C
1C
ENDCHAR
STARTCHAR 1FD2
ENCODING 8146
SWIDTH 495 0
DWIDTH 11 0
BBX 8 15 3 0
BITMAP
58
EB
4B
08
00
F8
18
10
30
30
30
30
30
3C
1C
ENDCHAR
STARTCHAR 1FD3
ENCODING 8147
SWIDTH 495 0
DWIDTH 11 0
BBX 8 15 3 0
BITMAP
4C
DB
53
00
00
F8
18
10
30
30
30
30
30
3C
1C
ENDCHAR
STARTCHAR 1FD6
ENCODING 8150
SWIDTH 495 0
DWIDTH 11 0
BBX 7 15 3 0
BITMAP
1C
36
66
00
00
F8
18
10
30
30
30
30
30
3C
1C
ENDCHAR
STARTCHAR 1FD7
ENCODING 8151
SWIDTH 495 0
DWIDTH 11 0
BBX 7 17 3 0
BITMAP
1E
32
00
66
66
00
00
F8
18
10
30
30
30
30
30
3C
1C
ENDCHAR
STARTCHAR 1FD8
ENCODING 8152
SWIDTH 495 0
DWIDTH 11 0
BBX 10 18 2 0
BITMAP
0440
0780
0300
0000
1FC0
1FC0
0600
0600
0400
0C00
0C00
0C00
0800
1800
1800
1800
FE00
FE00
ENDCHAR
STARTCHAR 1FD9
ENCODING 8153
SWIDTH 495 0
DWIDTH 11 0
BBX 10 17 2 0
BITMAP
0FC0
0000
0000
1FC0
1FC0
0600
0600
0400
0C00
0C00
0C00
0800
1800
1800
1800
FE00
FE00
ENDCHAR
STARTCHAR 1FDA
ENCODING 8154
SWIDTH 495 0
DWIDTH 11 0
BBX 12 14 0 0
BITMAP
87F0
C7F0
6180
2180
0100
0300
0300
0300
0200
0600
0600
0600
3F80
3F80
ENDCHAR
STARTCHAR 1FDB
ENCODING 8155
SWIDTH 495 0
DWIDTH 11 0
BBX 12 14 0 0
BITMAP
27F0
77F0
C180
8180
0100
0300
0300
0300
0200
0600
0600
0600
3F80
3F80
ENDCHAR
STARTCHAR 1FDD
ENCODING 8157
SWIDTH 495 0
DWIDTH 11 0
BBX 5 3 6 12
BITMAP
F0
98
98
ENDCHAR
STARTCHAR 1FDE
ENCODING 8158
SWIDTH 495 0
DWIDTH 11 0
BBX 7 3 5 12
BITMAP
C6
CC
58
ENDCHAR
STARTCHAR 1FDF
ENCODING 8159
SWIDTH 495 0
DWIDTH 11 0
BBX 5 5 6 11
BITMAP
78
88
20
60
20
ENDCHAR
STARTCHAR 1FE0
ENCODING 8160
SWIDTH 495 0
DWIDTH 11 0
BBX 9 15 2 0
BITMAP
0880
0D80
0700
0000
0000
6180
6180
6180
4180
C100
C300
C300
C300
EE00
7C00
ENDCHAR
STARTCHAR 1FE1
ENCODING 8161
SWIDTH 495 0
DWIDTH 11 0
BBX 9 14 2 0
BITMAP
1F80
0000
0000
0000
6180
6180
6180
4180
C100
C300
C300
C300
EE00
7C00
ENDCHAR
STARTCHAR 1FE2
ENCODING 8162
SWIDTH 495 0
DWIDTH 11 0
BBX 10 15 2 0
BITMAP
1600
36C0
12C0
0000
0000
6180
6180
6180
4180
C100
C300
C300
C300
EE00
7C00
ENDCHAR
STARTCHAR 1FE3
ENCODING 8163
SWIDTH 495 0
DWIDTH 11 0
BBX 10 15 2 0
BITMAP
1300
36C0
14C0
0000
0000
6180
6180
6180
4180
C100
C300
C300
C300
EE00
7C00
ENDCHAR
STARTCHAR 1FE4
ENCODING 8164
SWIDTH 495 0
DWIDTH 11 0
BBX 11 19 0 -4
BITMAP
00C0
00C0
0180
0100
0100
07C0
0C60
1860
1860
1060
3060
3060
30C0
3980
7F00
6000
6000
6000
C000
ENDCHAR
STARTCHAR 1FE5
ENCODING 8165
SWIDTH 495 0
DWIDTH 11 0
BBX 11 19 0 -4
BITMAP
0180
0180
0080
0000
0100
07C0
0C60
1860
1860
1060
3060
3060
30C0
3980
7F00
6000
6000
6000
C000
ENDCHAR
STARTCHAR 1FE6
ENCODING 8166
SWIDTH 495 0
DWIDTH 11 0
BBX 9 15 2 0
BITMAP
0700
0D00
1980
0000
0000
6180
6180
6180
4180
C100
C300
C300
C300
EE00
7C00
ENDCHAR
STARTCHAR 1FE7
ENCODING 8167
SWIDTH 495 0
DWIDTH 11 0
BBX 9 17 2 0
BITMAP
0780
0C80
0000
1980
1980
0000
0000
6180
6180
6180
4180
C100
C300
C300
C300
EE00
7C00
ENDCHAR
STARTCHAR 1FE8
ENCODING 8168
SWIDTH 495 0
DWIDTH 11 0
BBX 11 18 3 0
BITMAP
0880
0F00
0600
0000
C060
C0C0
4180
6180
6300
6600
2400
3C00
3800
3000
3000
3000
3000
6000
ENDCHAR
STARTCHAR 1FE9
ENCODING 8169
SWIDTH 495 0
DWIDTH 11 0
BBX 11 17 3 0
BITMAP
1F80
0000
0000
C060
C0C0
4180
6180
6300
6600
2400
3C00
3800
3000
3000
3000
3000
6000
ENDCHAR
STARTCHAR 1FEA
ENCODING 8170
SWIDTH 495 0
DWIDTH 11 0
BBX 15 14 -1 0
BITMAP
CC06
CC0C
6418
2618
0630
0660
0240
03C0
0380
0300
0300
0300
0300
0600
ENDCHAR
STARTCHAR 1FEB
ENCODING 8171
SWIDTH 495 0
DWIDTH 11 0
BBX 15 14 -1 0
BITMAP
2C06
6C0C
C418
8618
0630
0660
0240
03C0
0380
0300
0300
0300
0300
0600
ENDCHAR
STARTCHAR 1FEC
ENCODING 8172
SWIDTH 495 0
DWIDTH 11 0
BBX 11 14 1 0
BITMAP
DF80
DFC0
9860
5860
3060
3060
30C0
3F80
3E00
6000
6000
6000
4000
C000
ENDCHAR
STARTCHAR 1FED
ENCODING 8173
SWIDTH 495 0
DWIDTH 11 0
BBX 8 3 4 11
BITMAP
58
DB
4B
ENDCHAR
STARTCHAR 1FEE
ENCODING 8174
SWIDTH 495 0
DWIDTH 11 0
BBX 8 4 4 11
BITMAP
4C
DB
53
10
ENDCHAR
STARTCHAR 1FEF
ENCODING 8175
SWIDTH 495 0
DWIDTH 11 0
BBX 4 3 6 11
BITMAP
C0
60
30
ENDCHAR
STARTCHAR 1FF2
ENCODING 8178
SWIDTH 495 0
DWIDTH 11 0
BBX 10 19 1 -4
BITMAP
0600
0700
0380
0000
1000
10C0
30C0
60C0
40C0
C4C0
CCC0
CCC0
CCC0
DD80
7700
0000
1800
1C00
0C00
ENDCHAR
STARTCHAR 1FF3
ENCODING 8179
SWIDTH 495 0
DWIDTH 11 0
BBX 10 15 1 -4
BITMAP
1000
10C0
30C0
60C0
40C0
C4C0
CCC0
CCC0
CCC0
DD80
7700
0000
1800
1C00
0C00
ENDCHAR
STARTCHAR 1FF4
ENCODING 8180
SWIDTH 495 0
DWIDTH 11 0
BBX 10 19 1 -4
BITMAP
0180
0380
0600
0000
1000
10C0
30C0
60C0
40C0
C4C0
CCC0
CCC0
CCC0
DD80
7700
0000
1800
1C00
0C00
ENDCHAR
STARTCHAR 1FF6
ENCODING 8182
SWIDTH 495 0
DWIDTH 11 0
BBX 10 15 1 0
BITMAP
0380
0680
0CC0
0000
1000
10C0
30C0
60C0
40C0
C4C0
CCC0
CCC0
CCC0
DD80
7700
ENDCHAR
STARTCHAR 1FF7
ENCODING 8183
SWIDTH 495 0
DWIDTH 11 0
BBX 10 19 1 -4
BITMAP
0380
0680
0CC0
0000
1000
10C0
30C0
60C0
40C0
C4C0
CCC0
CCC0
CCC0
DD80
7700
0000
1800
1C00
0C00
ENDCHAR
STARTCHAR 1FF8
ENCODING 8184
SWIDTH 495 0
DWIDTH 11 0
BBX 13 14 -1 0
BITMAP
81E0
C3F0
6618
2C18
0C18
1818
1818
1810
1830
1030
1060
1860
1CC0
0F80
ENDCHAR
STARTCHAR 1FF9
ENCODING 8185
SWIDTH 495 0
DWIDTH 11 0
BBX 12 14 0 0
BITMAP
23C0
77E0
CC30
9830
1830
3030
3030
3020
3060
2060
20C0
30C0
3980
1F00
ENDCHAR
STARTCHAR 1FFA
ENCODING 8186
SWIDTH 495 0
DWIDTH 11 0
BBX 14 14 -2 0
BITMAP
40F0
E1F8
330C
160C
0C0C
0C0C
0C0C
0C08
0C18
0C18
0C30
0C60
3C78
3CF0
ENDCHAR
STARTCHAR 1FFB
ENCODING 8187
SWIDTH 495 0
DWIDTH 11 0
BBX 12 14 0 0
BITMAP
23C0
67E0
CC30
9830
3030
3030
3030
3020
3060
3060
30C0
3180
F1E0
F3C0
ENDCHAR
STARTCHAR 1FFC
ENCODING 8188
SWIDTH 495 0
DWIDTH 11 0
BBX 12 14 0 0
BITMAP
0700
0F00
1980
3180
31B0
2120
2160
6360
6260
6240
66C0
64C0
EEC0
EE60
ENDCHAR
STARTCHAR 1FFD
ENCODING 8189
SWIDTH 495 0
DWIDTH 11 0
BBX 4 3 6 12
BITMAP
30
70
C0
ENDCHAR
STARTCHAR 1FFE
ENCODING 8190
SWIDTH 495 0
DWIDTH 11 0
BBX 3 3 7 11
BITMAP
E0
C0
40
ENDCHAR
STARTCHAR 2013
ENCODING 8211
SWIDTH 495 0
DWIDTH 11 0
BBX 9 2 2 5
BITMAP
7F80
FF00
ENDCHAR
STARTCHAR 2014
ENCODING 8212
SWIDTH 495 0
DWIDTH 11 0
BBX 11 2 1 5
BITMAP
FFE0
FFE0
ENDCHAR
STARTCHAR 2015
ENCODING 8213
SWIDTH 495 0
DWIDTH 11 0
BBX 11 2 1 5
BITMAP
FFE0
FFE0
ENDCHAR
STARTCHAR 2018
ENCODING 8216
SWIDTH 495 0
DWIDTH 11 0
BBX 5 7 6 9
BITMAP
18
78
60
E0
E0
E0
40
ENDCHAR
STARTCHAR 2019
ENCODING 8217
SWIDTH 495 0
DWIDTH 11 0
BBX 5 7 5 9
BITMAP
10
38
38
18
30
E0
80
ENDCHAR
STARTCHAR 201A
ENCODING 8218
SWIDTH 495 0
DWIDTH 11 0
BBX 5 6 2 -3
BITMAP
38
38
38
18
30
E0
ENDCHAR
STARTCHAR 201C
ENCODING 8220
SWIDTH 495 0
DWIDTH 11 0
BBX 10 5 3 10
BITMAP
31C0
6300
6300
E380
6300
ENDCHAR
STARTCHAR 201D
ENCODING 8221
SWIDTH 495 0
DWIDTH 11 0
BBX 9 5 3 10
BITMAP
7380
7380
3180
3180
C700
ENDCHAR
STARTCHAR 201E
ENCODING 8222
SWIDTH 495 0
DWIDTH 11 0
BBX 9 6 1 -3
BITMAP
6100
7380
7380
2180
E700
8600
ENDCHAR
STARTCHAR 2020
ENCODING 8224
SWIDTH 495 0
DWIDTH 11 0
BBX 8 17 3 -3
BITMAP
04
0C
0C
08
08
FF
18
10
10
30
30
20
20
60
60
40
40
ENDCHAR
STARTCHAR 2021
ENCODING 8225
SWIDTH 495 0
DWIDTH 11 0
BBX 9 17 2 -3
BITMAP
0200
0600
0600
0400
0400
7F80
0C00
0800
0800
1800
FF00
1000
1000
3000
3000
2000
2000
ENDCHAR
STARTCHAR 2022
ENCODING 8226
SWIDTH 495 0
DWIDTH 11 0
BBX 6 7 4 3
BITMAP
20
F8
FC
FC
FC
F8
70
ENDCHAR
STARTCHAR 2026
ENCODING 8230
SWIDTH 495 0
DWIDTH 11 0
BBX 9 2 1 0
BITMAP
D980
D980
ENDCHAR
STARTCHAR 2030
ENCODING 8240
SWIDTH 495 0
DWIDTH 11 0
BBX 12 14 1 0
BITMAP
1800
2800
2810
2860
2980
3700
0C00
3000
CCC0
1540
3540
2740
2B40
3980
ENDCHAR
STARTCHAR 2039
ENCODING 8249
SWIDTH 495 0
DWIDTH 11 0
BBX 5 9 4 1
BITMAP
08
18
30
60
C0
60
60
20
20
ENDCHAR
STARTCHAR 203A
ENCODING 8250
SWIDTH 495 0
DWIDTH 11 0
BBX 5 9 4 1
BITMAP
60
20
30
30
18
30
60
C0
80
ENDCHAR
STARTCHAR 2044
ENCODING 8260
SWIDTH 495 0
DWIDTH 11 0
BBX 12 14 1 0
BITMAP
0030
0060
00C0
0080
0180
0300
0600
0400
0800
1800
3000
6000
4000
C000
ENDCHAR
STARTCHAR 2070
ENCODING 8304
SWIDTH 495 0
DWIDTH 11 0
BBX 7 8 4 6
BITMAP
3C
26
46
56
D4
C4
48
70
ENDCHAR
STARTCHAR 2074
ENCODING 8308
SWIDTH 495 0
DWIDTH 11 0
BBX 6 8 4 6
BITMAP
0C
1C
2C
48
C8
FC
18
10
ENDCHAR
STARTCHAR 2075
ENCODING 8309
SWIDTH 495 0
DWIDTH 11 0
BBX 7 8 4 6
BITMAP
3E
20
20
78
0C
0C
88
F0
ENDCHAR
STARTCHAR 2076
ENCODING 8310
SWIDTH 495 0
DWIDTH 11 0
BBX 7 8 4 6
BITMAP
0E
38
60
7C
C4
C4
4C
70
ENDCHAR
STARTCHAR 2077
ENCODING 8311
SWIDTH 495 0
DWIDTH 11 0
BBX 6 8 5 6
BITMAP
7C
0C
18
30
20
60
C0
C0
ENDCHAR
STARTCHAR 2078
ENCODING 8312
SWIDTH 495 0
DWIDTH 11 0
BBX 6 8 5 6
BITMAP
38
4C
4C
78
D8
88
98
F0
ENDCHAR
STARTCHAR 2079
ENCODING 8313
SWIDTH 495 0
DWIDTH 11 0
BBX 6 8 4 6
BITMAP
3C
64
44
44
7C
08
30
E0
ENDCHAR
STARTCHAR 2080
ENCODING 8320
SWIDTH 495 0
DWIDTH 11 0
BBX 6 8 3 0
BITMAP
1C
64
44
D4
D4
CC
C8
70
ENDCHAR
STARTCHAR 2081
ENCODING 8321
SWIDTH 495 0
DWIDTH 11 0
BBX 5 8 3 0
BITMAP
08
38
78
10
10
30
30
F8
ENDCHAR
STARTCHAR 2082
ENCODING 8322
SWIDTH 495 0
DWIDTH 11 0
BBX 6 8 3 0
BITMAP
3C
6C
04
0C
18
60
40
F8
ENDCHAR
STARTCHAR 2083
ENCODING 8323
SWIDTH 495 0
DWIDTH 11 0
BBX 6 8 3 0
BITMAP
3C
2C
04
38
18
0C
0C
F8
ENDCHAR
STARTCHAR 2084
ENCODING 8324
SWIDTH 495 0
DWIDTH 11 0
BBX 6 8 3 0
BITMAP
0C
1C
38
48
C8
FC
10
10
ENDCHAR
STARTCHAR 2085
ENCODING 8325
SWIDTH 495 0
DWIDTH 11 0
BBX 7 8 2 0
BITMAP
1E
1E
30
38
0C
04
0C
F8
ENDCHAR
STARTCHAR 2086
ENCODING 8326
SWIDTH 495 0
DWIDTH 11 0
BBX 6 8 3 0
BITMAP
0C
38
40
F8
88
88
88
70
ENDCHAR
STARTCHAR 2087
ENCODING 8327
SWIDTH 495 0
DWIDTH 11 0
BBX 6 8 4 0
BITMAP
FC
FC
18
30
60
40
C0
80
ENDCHAR
STARTCHAR 2088
ENCODING 8328
SWIDTH 495 0
DWIDTH 11 0
BBX 6 8 3 0
BITMAP
1C
24
64
3C
78
CC
CC
78
ENDCHAR
STARTCHAR 2089
ENCODING 8329
SWIDTH 495 0
DWIDTH 11 0
BBX 7 8 3 0
BITMAP
1C
64
46
44
7C
0C
18
E0
ENDCHAR
STARTCHAR 20AC
ENCODING 8364
SWIDTH 495 0
DWIDTH 11 0
BBX 12 14 1 0
BITMAP
01F0
07E0
0E00
0C00
1800
7F80
3000
3000
FF00
3000
3000
3000
1880
0F80
ENDCHAR
STARTCHAR 20AE
ENCODING 8366
SWIDTH 495 0
DWIDTH 11 0
BBX 11 14 2 0
BITMAP
3FE0
7FE0
0600
0400
0D80
0F00
3C00
6C00
0B00
1E00
7800
D800
1000
3000
ENDCHAR
STARTCHAR 20B4
ENCODING 8372
SWIDTH 495 0
DWIDTH 11 0
BBX 11 14 1 0
BITMAP
0F80
0FC0
00C0
00C0
00C0
7FE0
0700
0C00
7FC0
FFC0
6000
6000
7100
3F00
ENDCHAR
STARTCHAR 20B9
ENCODING 8377
SWIDTH 495 0
DWIDTH 11 0
BBX 11 14 2 0
BITMAP
3FE0
3FE0
0300
0180
7FC0
0300
0700
FC00
C000
6000
3000
3000
1800
1800
ENDCHAR
STARTCHAR 2113
ENCODING 8467
SWIDTH 495 0
DWIDTH 11 0
BBX 8 15 2 0
BITMAP
1E
33
33
33
33
32
32
34
3C
38
70
F0
30
39
1F
ENDCHAR
STARTCHAR 2116
ENCODING 8470
SWIDTH 495 0
DWIDTH 11 0
BBX 13 14 0 0
BITMAP
19B8
1928
1968
1B48
3B58
3B50
3A70
2E20
2E00
6EE0
6CE0
4C00
4C00
CC00
ENDCHAR
STARTCHAR 2122
ENCODING 8482
SWIDTH 495 0
DWIDTH 11 0
BBX 10 6 3 8
BITMAP
F480
4480
4FC0
4BC0
4AC0
48C0
ENDCHAR
STARTCHAR 2126
ENCODING 8486
SWIDTH 495 0
DWIDTH 11 0
BBX 12 14 0 0
BITMAP
03C0
07E0
0C30
1830
3030
3030
3030
3020
3060
3060
30C0
3180
F1E0
F3C0
ENDCHAR
STARTCHAR 212E
ENCODING 8494
SWIDTH 495 0
DWIDTH 11 0
BBX 10 9 1 0
BITMAP
0E00
3180
40C0
40C0
C0C0
FF00
4000
4000
3F80
ENDCHAR
STARTCHAR 2153
ENCODING 8531
SWIDTH 495 0
DWIDTH 11 0
BBX 12 14 1 0
BITMAP
0C30
3860
08C0
0880
1980
1300
0600
0C00
0980
1AC0
30C0
6180
4080
C780
ENDCHAR
STARTCHAR 2154
ENCODING 8532
SWIDTH 495 0
DWIDTH 11 0
BBX 12 14 1 0
BITMAP
3830
0860
08C0
3080
4180
7B00
0600
0400
0D80
1AC0
30C0
6180
4080
C780
ENDCHAR
STARTCHAR 2155
ENCODING 8533
SWIDTH 495 0
DWIDTH 11 0
BBX 12 14 1 0
BITMAP
0C30
3860
0840
08C0
1980
1300
0600
0400
0DC0
19C0
3180
20C0
40C0
C780
ENDCHAR
STARTCHAR 2156
ENCODING 8534
SWIDTH 495 0
DWIDTH 11 0
BBX 12 14 1 0
BITMAP
3830
0860
0840
30C0
4180
7B00
0600
0400
0DC0
19C0
3180
20C0
60C0
C780
ENDCHAR
STARTCHAR 2157
ENCODING 8535
SWIDTH 495 0
DWIDTH 11 0
BBX 12 14 1 0
BITMAP
3C30
0C60
1840
08C0
0980
7300
0600
0400
0DC0
19C0
3180
20C0
40C0
C780
ENDCHAR
STARTCHAR 2158
ENCODING 8536
SWIDTH 495 0
DWIDTH 11 0
BBX 12 14 1 0
BITMAP
0C30
1C20
2860
7CC0
7D80
1B00
0200
0600
0DC0
19C0
1180
20C0
60C0
C780
ENDCHAR
STARTCHAR 2159
ENCODING 8537
SWIDTH 495 0
DWIDTH 11 0
BBX 12 14 1 0
BITMAP
0C30
3860
0840
08C0
1980
1300
0600
0400
0C40
1980
3380
22C0
46C0
C380
ENDCHAR
STARTCHAR 215A
ENCODING 8538
SWIDTH 495 0
DWIDTH 11 0
BBX 12 14 1 0
BITMAP
1C30
3020
3860
08C0
4980
7300
0200
0600
0C40
1980
1380
22C0
66C0
C380
ENDCHAR
STARTCHAR 215B
ENCODING 8539
SWIDTH 495 0
DWIDTH 11 0
BBX 12 14 1 0
BITMAP
0C30
3860
08C0
0880
1980
1300
0600
0C00
09C0
1B40
3340
63C0
4440
C780
ENDCHAR
STARTCHAR 215C
ENCODING 8540
SWIDTH 495 0
DWIDTH 11 0
BBX 12 14 1 0
BITMAP
3C30
0C60
18C0
0880
0980
7300
0600
0C00
09C0
1B40
3340
63C0
4440
C780
ENDCHAR
STARTCHAR 215D
ENCODING 8541
SWIDTH 495 0
DWIDTH 11 0
BBX 12 14 1 0
BITMAP
1C30
3060
38C0
0880
4980
7300
0600
0C00
09C0
1B40
3340
63C0
4440
C780
ENDCHAR
STARTCHAR 215E
ENCODING 8542
SWIDTH 495 0
DWIDTH 11 0
BBX 12 14 1 0
BITMAP
1E30
0460
0CC0
0880
1180
1300
0600
0C00
09C0
1B40
3340
63C0
4440
C780
ENDCHAR
STARTCHAR 2202
ENCODING 8706
SWIDTH 495 0
DWIDTH 11 0
BBX 10 15 2 0
BITMAP
1F00
0380
0180
00C0
00C0
1EC0
3FC0
60C0
C080
C180
C180
C300
C300
CE00
7C00
ENDCHAR
STARTCHAR 2206
ENCODING 8710
SWIDTH 495 0
DWIDTH 11 0
BBX 10 14 0 0
BITMAP
0180
03C0
03C0
06C0
04C0
0CC0
08C0
18C0
10C0
30C0
6040
6040
FFC0
FFC0
ENDCHAR
STARTCHAR 220F
ENCODING 8719
SWIDTH 495 0
DWIDTH 11 0
BBX 12 16 1 -2
BITMAP
1FF0
1FE0
1060
3060
3060
3040
20C0
60C0
60C0
6080
6180
C180
C180
C180
C300
8300
ENDCHAR
STARTCHAR 2211
ENCODING 8721
SWIDTH 495 0
DWIDTH 11 0
BBX 12 16 1 -2
BITMAP
0FF0
1FF0
0C00
0C00
0400
0600
0600
0300
0600
0E00
0C00
1800
3000
6000
C000
FF00
ENDCHAR
STARTCHAR 2212
ENCODING 8722
SWIDTH 495 0
DWIDTH 11 0
BBX 9 2 2 5
BITMAP
FF80
FF80
ENDCHAR
STARTCHAR 2215
ENCODING 8725
SWIDTH 495 0
DWIDTH 11 0
BBX 12 14 1 0
BITMAP
0030
0060
00C0
0080
0180
0300
0600
0400
0800
1800
3000
6000
4000
C000
ENDCHAR
STARTCHAR 2219
ENCODING 8729
SWIDTH 495 0
DWIDTH 11 0
BBX 3 4 5 4
BITMAP
60
E0
E0
40
ENDCHAR
STARTCHAR 221A
ENCODING 8730
SWIDTH 495 0
DWIDTH 11 0
BBX 12 16 2 0
BITMAP
0030
0020
0060
0040
00C0
0080
0180
0100
2300
E200
6600
2400
2C00
2800
3800
3000
ENDCHAR
STARTCHAR 221E
ENCODING 8734
SWIDTH 495 0
DWIDTH 11 0
BBX 9 6 2 3
BITMAP
3100
FF80
8C80
8880
9D80
E700
ENDCHAR
STARTCHAR 222B
ENCODING 8747
SWIDTH 495 0
DWIDTH 11 0
BBX 12 19 0 -4
BITMAP
00F0
01C0
0180
0100
0300
0300
0300
0300
0200
0600
0600
0600
0400
0C00
0C00
0C00
1800
7800
E000
ENDCHAR
STARTCHAR 2248
ENCODING 8776
SWIDTH 495 0
DWIDTH 11 0
BBX 11 8 1 2
BITMAP
1800
3E60
67C0
0180
0000
78C0
4F80
C700
ENDCHAR
STARTCHAR 2260
ENCODING 8800
SWIDTH 495 0
DWIDTH 11 0
BBX 10 11 2 0
BITMAP
0180
0300
7FC0
7F80
0C00
1800
FF80
FF00
6000
6000
4000
ENDCHAR
STARTCHAR 2264
ENCODING 8804
SWIDTH 495 0
DWIDTH 11 0
BBX 11 11 1 0
BITMAP
0060
03E0
0F00
3800
3800
1E00
0780
01C0
0000
FF80
FF80
ENDCHAR
STARTCHAR 2265
ENCODING 8805
SWIDTH 495 0
DWIDTH 11 0
BBX 11 11 1 0
BITMAP
1800
0E00
0380
00E0
01E0
0F80
3C00
7000
0000
FF80
FF80
ENDCHAR
STARTCHAR 2500
ENCODING 9472
SWIDTH 495 0
DWIDTH 11 0
BBX 11 2 0 6
BITMAP
FFE0
FFE0
ENDCHAR
STARTCHAR 2502
ENCODING 9474
SWIDTH 495 0
DWIDTH 11 0
BBX 1 22 5 -4
BITMAP
80
80
80
80
80
80
80
80
80
80
80
80
80
80
80
80
80
80
80
80
80
80
ENDCHAR
STARTCHAR 250C
ENCODING 9484
SWIDTH 495 0
DWIDTH 11 0
BBX 6 12 5 -4
BITMAP
FC
FC
80
80
80
80
80
80
80
80
80
80
ENDCHAR
STARTCHAR 2510
ENCODING 9488
SWIDTH 495 0
DWIDTH 11 0
BBX 6 12 0 -4
BITMAP
FC
FC
04
04
04
04
04
04
04
04
04
04
ENDCHAR
STARTCHAR 2514
ENCODING 9492
SWIDTH 495 0
DWIDTH 11 0
BBX 6 12 5 6
BITMAP
80
80
80
80
80
80
80
80
80
80
FC
FC
ENDCHAR
STARTCHAR 2518
ENCODING 9496
SWIDTH 495 0
DWIDTH 11 0
BBX 6 12 0 6
BITMAP
04
04
04
04
04
04
04
04
04
04
FC
FC
ENDCHAR
STARTCHAR 251C
ENCODING 9500
SWIDTH 495 0
DWIDTH 11 0
BBX 6 22 5 -4
BITMAP
80
80
80
80
80
80
80
80
80
80
FC
FC
80
80
80
80
80
80
80
80
80
80
ENDCHAR
STARTCHAR 2524
ENCODING 9508
SWIDTH 495 0
DWIDTH 11 0
BBX 6 22 0 -4
BITMAP
04
04
04
04
04
04
04
04
04
04
FC
FC
04
04
04
04
04
04
04
04
04
04
ENDCHAR
STARTCHAR 252C
ENCODING 9516
SWIDTH 495 0
DWIDTH 11 0
BBX 11 12 0 -4
BITMAP
FFE0
FFE0
0400
0400
0400
0400
0400
0400
0400
0400
0400
0400
ENDCHAR
STARTCHAR 2534
ENCODING 9524
SWIDTH 495 0
DWIDTH 11 0
BBX 11 12 0 6
BITMAP
0400
0400
0400
0400
0400
0400
0400
0400
0400
0400
FFE0
FFE0
ENDCHAR
STARTCHAR 253C
ENCODING 9532
SWIDTH 495 0
DWIDTH 11 0
BBX 11 22 0 -4
BITMAP
0400
0400
0400
0400
0400
0400
0400
0400
0400
0400
FFE0
FFE0
0400
0400
0400
0400
0400
0400
0400
0400
0400
0400
ENDCHAR
STARTCHAR 2550
ENCODING 9552
SWIDTH 495 0
DWIDTH 11 0
BBX 11 5 0 5
BITMAP
FFE0
FFE0
0000
0000
FFE0
ENDCHAR
STARTCHAR 2551
ENCODING 9553
SWIDTH 495 0
DWIDTH 11 0
BBX 5 22 3 -4
BITMAP
D8
D8
D8
D8
D8
D8
D8
D8
D8
D8
D8
D8
D8
D8
D8
D8
D8
D8
D8
D8
D8
D8
ENDCHAR
STARTCHAR 2552
ENCODING 9554
SWIDTH 495 0
DWIDTH 11 0
BBX 6 14 5 -4
BITMAP
FC
FC
00
00
FC
80
80
80
80
80
80
80
80
80
ENDCHAR
STARTCHAR 2553
ENCODING 9555
SWIDTH 495 0
DWIDTH 11 0
BBX 8 12 3 -4
BITMAP
DF
DF
D8
D8
D8
D8
D8
D8
D8
D8
D8
D8
ENDCHAR
STARTCHAR 2554
ENCODING 9556
SWIDTH 495 0
DWIDTH 11 0
BBX 8 14 3 -4
BITMAP
FF
FF
C0
C0
DF
D8
D8
D8
D8
D8
D8
D8
D8
D8
ENDCHAR
STARTCHAR 2555
ENCODING 9557
SWIDTH 495 0
DWIDTH 11 0
BBX 6 14 0 -4
BITMAP
FC
FC
00
00
FC
04
04
04
04
04
04
04
04
04
ENDCHAR
STARTCHAR 2556
ENCODING 9558
SWIDTH 495 0
DWIDTH 11 0
BBX 8 12 0 -4
BITMAP
FB
FB
1B
1B
1B
1B
1B
1B
1B
1B
1B
1B
ENDCHAR
STARTCHAR 2557
ENCODING 9559
SWIDTH 495 0
DWIDTH 11 0
BBX 8 14 0 -4
BITMAP
FF
FF
03
03
FB
1B
1B
1B
1B
1B
1B
1B
1B
1B
ENDCHAR
STARTCHAR 2558
ENCODING 9560
SWIDTH 495 0
DWIDTH 11 0
BBX 6 13 5 5
BITMAP
80
80
80
80
80
80
80
80
FC
FC
00
00
FC
ENDCHAR
STARTCHAR 2559
ENCODING 9561
SWIDTH 495 0
DWIDTH 11 0
BBX 8 12 3 6
BITMAP
D8
D8
D8
D8
D8
D8
D8
D8
D8
D8
DF
DF
ENDCHAR
STARTCHAR 255A
ENCODING 9562
SWIDTH 495 0
DWIDTH 11 0
BBX 8 13 3 5
BITMAP
D8
D8
D8
D8
D8
D8
D8
D8
DF
DF
C0
C0
FF
ENDCHAR
STARTCHAR 255B
ENCODING 9563
SWIDTH 495 0
DWIDTH 11 0
BBX 6 13 0 5
BITMAP
04
04
04
04
04
04
04
04
FC
FC
00
00
FC
ENDCHAR
STARTCHAR 255C
ENCODING 9564
SWIDTH 495 0
DWIDTH 11 0
BBX 8 12 0 6
BITMAP
1B
1B
1B
1B
1B
1B
1B
1B
1B
1B
FB
FB
ENDCHAR
STARTCHAR 255D
ENCODING 9565
SWIDTH 495 0
DWIDTH 11 0
BBX 8 13 0 5
BITMAP
1B
1B
1B
1B
1B
1B
1B
1B
FB
FB
03
03
FF
ENDCHAR
STARTCHAR 255E
ENCODING 9566
SWIDTH 495 0
DWIDTH 11 0
BBX 6 22 5 -4
BITMAP
80
80
80
80
80
80
80
80
FC
FC
00
00
FC
80
80
80
80
80
80
80
80
80
ENDCHAR
STARTCHAR 255F
ENCODING 9567
SWIDTH 495 0
DWIDTH 11 0
BBX 8 22 3 -4
BITMAP
D8
D8
D8
D8
D8
D8
D8
D8
D8
D8
DF
DF
D8
D8
D8
D8
D8
D8
D8
D8
D8
D8
ENDCHAR
STARTCHAR 2560
ENCODING 9568
SWIDTH 495 0
DWIDTH 11 0
BBX 8 22 3 -4
BITMAP
D8
D8
D8
D8
D8
D8
D8
D8
DF
DF
C0
C0
DF
D8
D8
D8
D8
D8
D8
D8
D8
D8
ENDCHAR
STARTCHAR 2561
ENCODING 9569
SWIDTH 495 0
DWIDTH 11 0
BBX 6 22 0 -4
BITMAP
04
04
04
04
04
04
04
04
FC
FC
00
00
FC
04
04
04
04
04
04
04
04
04
ENDCHAR
STARTCHAR 2562
ENCODING 9570
SWIDTH 495 0
DWIDTH 11 0
BBX 8 22 0 -4
BITMAP
1B
1B
1B
1B
1B
1B
1B
1B
1B
1B
FB
FB
1B
1B
1B
1B
1B
1B
1B
1B
1B
1B
ENDCHAR
STARTCHAR 2563
ENCODING 9571
SWIDTH 495 0
DWIDTH 11 0
BBX 8 22 0 -4
BITMAP
1B
1B
1B
1B
1B
1B
1B
1B
FB
FB
03
03
FB
1B
1B
1B
1B
1B
1B
1B
1B
1B
ENDCHAR
STARTCHAR 2564
ENCODING 9572
SWIDTH 495 0
DWIDTH 11 0
BBX 11 14 0 -4
BITMAP
FFE0
FFE0
0000
0000
FFE0
0400
0400
0400
0400
0400
0400
0400
0400
0400
ENDCHAR
STARTCHAR 2565
ENCODING 9573
SWIDTH 495 0
DWIDTH 11 0
BBX 11 12 0 -4
BITMAP
FFE0
FFE0
1B00
1B00
1B00
1B00
1B00
1B00
1B00
1B00
1B00
1B00
ENDCHAR
STARTCHAR 2566
ENCODING 9574
SWIDTH 495 0
DWIDTH 11 0
BBX 11 14 0 -4
BITMAP
FFE0
FFE0
0000
0000
FBE0
1B00
1B00
1B00
1B00
1B00
1B00
1B00
1B00
1B00
ENDCHAR
STARTCHAR 2567
ENCODING 9575
SWIDTH 495 0
DWIDTH 11 0
BBX 11 13 0 5
BITMAP
0400
0400
0400
0400
0400
0400
0400
0400
FFE0
FFE0
0000
0000
FFE0
ENDCHAR
STARTCHAR 2568
ENCODING 9576
SWIDTH 495 0
DWIDTH 11 0
BBX 11 12 0 6
BITMAP
1B00
1B00
1B00
1B00
1B00
1B00
1B00
1B00
1B00
1B00
FFE0
FFE0
ENDCHAR
STARTCHAR 2569
ENCODING 9577
SWIDTH 495 0
DWIDTH 11 0
BBX 11 13 0 5
BITMAP
1B00
1B00
1B00
1B00
1B00
1B00
1B00
1B00
FBE0
FBE0
0000
0000
FFE0
ENDCHAR
STARTCHAR 256A
ENCODING 9578
SWIDTH 495 0
DWIDTH 11 0
BBX 11 22 0 -4
BITMAP
0400
0400
0400
0400
0400
0400
0400
0400
FFE0
FFE0
0400
0400
FFE0
0400
0400
0400
0400
0400
0400
0400
0400
0400
ENDCHAR
STARTCHAR 256B
ENCODING 9579
SWIDTH 495 0
DWIDTH 11 0
BBX 11 22 0 -4
BITMAP
1B00
1B00
1B00
1B00
1B00
1B00
1B00
1B00
1B00
1B00
FFE0
FFE0
1B00
1B00
1B00
1B00
1B00
1B00
1B00
1B00
1B00
1B00
ENDCHAR
STARTCHAR 256C
ENCODING 9580
SWIDTH 495 0
DWIDTH 11 0
BBX 11 22 0 -4
BITMAP
1B00
1B00
1B00
1B00
1B00
1B00
1B00
1B00
FBE0
FBE0
0000
0000
FBE0
1B00
1B00
1B00
1B00
1B00
1B00
1B00
1B00
1B00
ENDCHAR
STARTCHAR 2588
ENCODING 9608
SWIDTH 495 0
DWIDTH 11 0
BBX 11 22 0 -4
BITMAP
FFE0
FFE0
FFE0
FFE0
FFE0
FFE0
FFE0
FFE0
FFE0
FFE0
FFE0
FFE0
FFE0
FFE0
FFE0
FFE0
FFE0
FFE0
FFE0
FFE0
FFE0
FFE0
ENDCHAR
STARTCHAR 2591
ENCODING 9617
SWIDTH 495 0
DWIDTH 11 0
BBX 11 20 0 -2
BITMAP
2440
0000
9120
0000
2440
9120
0000
2440
0000
9120
0000
2440
9120
0000
2440
0000
9120
0000
2440
9120
ENDCHAR
STARTCHAR 2592
ENCODING 9618
SWIDTH 495 0
DWIDTH 11 0
BBX 11 20 0 -2
BITMAP
4A80
0000
B560
0000
4A80
B560
0000
4A80
0000
B560
0000
4A80
B560
0000
4A80
0000
B560
0000
4A80
B560
ENDCHAR
STARTCHAR 2593
ENCODING 9619
SWIDTH 495 0
DWIDTH 11 0
BBX 11 22 0 -4
BITMAP
FFE0
FFE0
B560
FFE0
B560
FFE0
FFE0
B560
FFE0
B560
FFE0
B560
FFE0
FFE0
B560
FFE0
B560
FFE0
B560
FFE0
FFE0
B560
ENDCHAR
STARTCHAR 25CA
ENCODING 9674
SWIDTH 495 0
DWIDTH 11 0
BBX 9 14 2 0
BITMAP
0200
0600
0F00
1B00
3180
2180
6180
C180
4300
6200
6600
3C00
3800
1000
ENDCHAR
STARTCHAR E0FF
ENCODING 57599
SWIDTH 495 0
DWIDTH 11 0
BBX 9 8 3 7
BITMAP
3E00
7500
6F80
DD80
DF80
6B80
7D00
3E00
ENDCHAR
STARTCHAR EFFD
ENCODING 61437
SWIDTH 495 0
DWIDTH 11 0
BBX 13 14 0 0
BITMAP
3C78
64C8
4488
D470
D4B0
CD18
D990
70E0
0000
0000
0000
1C00
1C00
1C00
ENDCHAR
STARTCHAR F000
ENCODING 61440
SWIDTH 495 0
DWIDTH 11 0
BBX 19 15 -4 0
BITMAP
FE0FE0
812020
812020
812020
812020
812020
800020
7F1FC0
812020
812020
812020
812020
812020
812020
7F1FC0
ENDCHAR
STARTCHAR F001
ENCODING 61441
SWIDTH 495 0
DWIDTH 11 0
BBX 15 19 -2 -4
BITMAP
00F4
0186
0304
0300
0300
07CC
0208
0618
0618
0618
0418
0C30
0C30
0C30
0C30
0800
1800
F000
E000
ENDCHAR
STARTCHAR F002
ENCODING 61442
SWIDTH 495 0
DWIDTH 11 0
BBX 15 19 -2 -4
BITMAP
00F6
0184
030C
030C
030C
07C8
0218
0618
0618
0610
0430
0C30
0C30
0C38
0C18
0800
1800
F000
E000
ENDCHAR
STARTCHAR F506
ENCODING 62726
SWIDTH 495 0
DWIDTH 11 0
BBX 12 14 1 0
BITMAP
0C30
3860
08C0
0880
1900
1300
0600
0C00
09E0
1BC0
3080
6100
C100
8200
ENDCHAR
STARTCHAR F507
ENCODING 62727
SWIDTH 495 0
DWIDTH 11 0
BBX 12 14 1 0
BITMAP
3830
0860
08C0
3080
4180
7B00
0600
0400
09E0
1BC0
3080
6100
4100
C200
ENDCHAR
STARTCHAR F508
ENCODING 62728
SWIDTH 495 0
DWIDTH 11 0
BBX 12 14 1 0
BITMAP
3C30
0C60
18C0
0880
0980
7300
0600
0400
09E0
1BC0
3080
6100
4100
C200
ENDCHAR
STARTCHAR F509
ENCODING 62729
SWIDTH 495 0
DWIDTH 11 0
BBX 12 14 1 0
BITMAP
0C30
1C60
2840
7CC0
7D80
1B00
0600
0400
0DE0
1BC0
3080
2100
4100
C200
ENDCHAR
STARTCHAR F50A
ENCODING 62730
SWIDTH 495 0
DWIDTH 11 0
BBX 12 14 1 0
BITMAP
1C30
3060
3840
08C0
4980
7300
0600
0400
0DE0
1BC0
3080
2100
4100
C200
ENDCHAR
STARTCHAR F50B
ENCODING 62731
SWIDTH 495 0
DWIDTH 11 0
BBX 12 14 1 0
BITMAP
0C30
3060
3840
4CC0
6980
3300
0600
0400
0DE0
1BC0
3080
2100
4100
C200
ENDCHAR
STARTCHAR F50C
ENCODING 62732
SWIDTH 495 0
DWIDTH 11 0
BBX 12 14 1 0
BITMAP
0C30
3860
0840
08C0
1980
1300
0600
0400
0D80
1B40
3240
23C0
4080
C700
ENDCHAR
STARTCHAR F50D
ENCODING 62733
SWIDTH 495 0
DWIDTH 11 0
BBX 12 14 1 0
BITMAP
3830
0860
0840
30C0
4180
7B00
0600
0400
0D80
1B40
3240
23C0
4080
C700
ENDCHAR
STARTCHAR F50E
ENCODING 62734
SWIDTH 495 0
DWIDTH 11 0
BBX 12 14 1 0
BITMAP
0C30
1C60
2840
7CC0
7D80
1B00
0600
0400
0D80
1B40
3240
23C0
4080
C700
ENDCHAR
STARTCHAR F50F
ENCODING 62735
SWIDTH 495 0
DWIDTH 11 0
BBX 12 14 1 0
BITMAP
1C30
3060
3840
08C0
4980
7300
0600
0400
0D80
1B40
3240
23C0
4080
C700
ENDCHAR
STARTCHAR F510
ENCODING 62736
SWIDTH 495 0
DWIDTH 11 0
BBX 12 14 1 0
BITMAP
1E30
0460
0C40
08C0
1180
1300
0600
0400
0D80
1B40
3240
23C0
4080
C700
ENDCHAR
STARTCHAR F511
ENCODING 62737
SWIDTH 495 0
DWIDTH 11 0
BBX 12 14 1 0
BITMAP
3C30
2460
3840
6CC0
4980
3300
0600
0400
0D80
1B40
3240
23C0
4080
C700
ENDCHAR
STARTCHAR F80A
ENCODING 63498
SWIDTH 495 0
DWIDTH 11 0
BBX 6 8 5 8
BITMAP
3C
44
C4
F4
8C
C8
F8
20
ENDCHAR
STARTCHAR F80B
ENCODING 63499
SWIDTH 495 0
DWIDTH 11 0
BBX 5 7 5 9
BITMAP
18
78
10
10
10
30
F8
ENDCHAR
STARTCHAR F80C
ENCODING 63500
SWIDTH 495 0
DWIDTH 11 0
BBX 6 7 5 9
BITMAP
78
0C
08
18
60
C0
F8
ENDCHAR
STARTCHAR F80D
ENCODING 63501
SWIDTH 495 0
DWIDTH 11 0
BBX 6 8 5 8
BITMAP
3C
04
0C
38
0C
0C
F8
60
ENDCHAR
STARTCHAR F80E
ENCODING 63502
SWIDTH 495 0
DWIDTH 11 0
BBX 6 7 5 9
BITMAP
0C
3C
68
48
FC
FC
10
ENDCHAR
STARTCHAR F80F
ENCODING 63503
SWIDTH 495 0
DWIDTH 11 0
BBX 6 8 5 8
BITMAP
3C
20
60
78
0C
0C
F8
60
ENDCHAR
STARTCHAR F810
ENCODING 63504
SWIDTH 495 0
DWIDTH 11 0
BBX 6 8 5 8
BITMAP
1C
20
40
FC
CC
CC
78
20
ENDCHAR
STARTCHAR F811
ENCODING 63505
SWIDTH 495 0
DWIDTH 11 0
BBX 6 7 6 9
BITMAP
FC
18
30
60
40
C0
80
ENDCHAR
STARTCHAR F812
ENCODING 63506
SWIDTH 495 0
DWIDTH 11 0
BBX 7 8 5 8
BITMAP
3C
66
64
38
4C
CC
F8
20
ENDCHAR
STARTCHAR F813
ENCODING 63507
SWIDTH 495 0
DWIDTH 11 0
BBX 6 7 5 9
BITMAP
3C
44
44
7C
3C
18
F0
ENDCHAR
STARTCHAR F814
ENCODING 63508
SWIDTH 495 0
DWIDTH 11 0
BBX 7 8 2 -4
BITMAP
3C
66
46
D4
C4
CC
78
20
ENDCHAR
STARTCHAR F815
ENCODING 63509
SWIDTH 495 0
DWIDTH 11 0
BBX 5 7 3 -3
BITMAP
18
70
10
30
30
20
F8
ENDCHAR
STARTCHAR F816
ENCODING 63510
SWIDTH 495 0
DWIDTH 11 0
BBX 6 7 2 -3
BITMAP
3C
04
04
18
30
40
FC
ENDCHAR
STARTCHAR F817
ENCODING 63511
SWIDTH 495 0
DWIDTH 11 0
BBX 6 8 2 -4
BITMAP
3C
04
0C
38
0C
0C
F8
20
ENDCHAR
STARTCHAR F818
ENCODING 63512
SWIDTH 495 0
DWIDTH 11 0
BBX 6 7 2 -3
BITMAP
0C
14
2C
48
FC
FC
18
ENDCHAR
STARTCHAR F819
ENCODING 63513
SWIDTH 495 0
DWIDTH 11 0
BBX 7 8 2 -4
BITMAP
3E
20
20
78
0C
0C
F8
60
ENDCHAR
STARTCHAR F81A
ENCODING 63514
SWIDTH 495 0
DWIDTH 11 0
BBX 6 8 2 -4
BITMAP
1C
30
40
7C
C4
CC
78
20
ENDCHAR
STARTCHAR F81B
ENCODING 63515
SWIDTH 495 0
DWIDTH 11 0
BBX 6 7 3 -3
BITMAP
7C
0C
18
30
20
60
C0
ENDCHAR
STARTCHAR F81C
ENCODING 63516
SWIDTH 495 0
DWIDTH 11 0
BBX 7 8 2 -4
BITMAP
3E
26
24
38
4C
C4
7C
30
ENDCHAR
STARTCHAR F81D
ENCODING 63517
SWIDTH 495 0
DWIDTH 11 0
BBX 6 7 3 -3
BITMAP
78
CC
8C
FC
28
18
E0
ENDCHAR
STARTCHAR FB01
ENCODING 64257
SWIDTH 495 0
DWIDTH 11 0
BBX 15 19 -2 -4
BITMAP
00F4
0186
0304
0300
0300
07CC
0208
0618
0618
0618
0418
0C30
0C30
0C30
0C30
0800
1800
F000
E000
ENDCHAR
STARTCHAR FB02
ENCODING 64258
SWIDTH 495 0
DWIDTH 11 0
BBX 15 19 -2 -4
BITMAP
00F6
0184
030C
030C
030C
07C8
0218
0618
0618
0610
0430
0C30
0C30
0C38
0C18
0800
1800
F000
E000
ENDCHAR
STARTCHAR FFFD
ENCODING 65533
SWIDTH 495 0
DWIDTH 11 0
BBX 10 10 1 1
BITMAP
0C00
1E00
3100
7D80
F9C0
7BC0
3F80
1300
0A00
0400
ENDCHAR
ENDFONT
